G04 EAGLE Gerber RS-274X export*
G75*
%MOMM*%
%FSLAX34Y34*%
%LPD*%
%INSilkscreen Top*%
%IPPOS*%
%AMOC8*
5,1,8,0,0,1.08239X$1,22.5*%
G01*
%ADD10C,0.127000*%
%ADD11C,0.200000*%
%ADD12C,0.203200*%
%ADD13C,0.254000*%
%ADD14C,0.005078*%
%ADD15C,0.152400*%
%ADD16C,0.050800*%


D10*
X746125Y477838D02*
X746125Y487363D01*
X746125Y461963D02*
X746125Y452438D01*
X746125Y436563D02*
X746125Y427038D01*
X746125Y411163D02*
X746125Y401638D01*
X90450Y491100D02*
X61950Y491100D01*
X61950Y474100D02*
X90450Y474100D01*
D11*
X105200Y482600D02*
X105202Y482663D01*
X105208Y482725D01*
X105218Y482787D01*
X105231Y482849D01*
X105249Y482909D01*
X105270Y482968D01*
X105295Y483026D01*
X105324Y483082D01*
X105356Y483136D01*
X105391Y483188D01*
X105429Y483237D01*
X105471Y483285D01*
X105515Y483329D01*
X105563Y483371D01*
X105612Y483409D01*
X105664Y483444D01*
X105718Y483476D01*
X105774Y483505D01*
X105832Y483530D01*
X105891Y483551D01*
X105951Y483569D01*
X106013Y483582D01*
X106075Y483592D01*
X106137Y483598D01*
X106200Y483600D01*
X106263Y483598D01*
X106325Y483592D01*
X106387Y483582D01*
X106449Y483569D01*
X106509Y483551D01*
X106568Y483530D01*
X106626Y483505D01*
X106682Y483476D01*
X106736Y483444D01*
X106788Y483409D01*
X106837Y483371D01*
X106885Y483329D01*
X106929Y483285D01*
X106971Y483237D01*
X107009Y483188D01*
X107044Y483136D01*
X107076Y483082D01*
X107105Y483026D01*
X107130Y482968D01*
X107151Y482909D01*
X107169Y482849D01*
X107182Y482787D01*
X107192Y482725D01*
X107198Y482663D01*
X107200Y482600D01*
X107198Y482537D01*
X107192Y482475D01*
X107182Y482413D01*
X107169Y482351D01*
X107151Y482291D01*
X107130Y482232D01*
X107105Y482174D01*
X107076Y482118D01*
X107044Y482064D01*
X107009Y482012D01*
X106971Y481963D01*
X106929Y481915D01*
X106885Y481871D01*
X106837Y481829D01*
X106788Y481791D01*
X106736Y481756D01*
X106682Y481724D01*
X106626Y481695D01*
X106568Y481670D01*
X106509Y481649D01*
X106449Y481631D01*
X106387Y481618D01*
X106325Y481608D01*
X106263Y481602D01*
X106200Y481600D01*
X106137Y481602D01*
X106075Y481608D01*
X106013Y481618D01*
X105951Y481631D01*
X105891Y481649D01*
X105832Y481670D01*
X105774Y481695D01*
X105718Y481724D01*
X105664Y481756D01*
X105612Y481791D01*
X105563Y481829D01*
X105515Y481871D01*
X105471Y481915D01*
X105429Y481963D01*
X105391Y482012D01*
X105356Y482064D01*
X105324Y482118D01*
X105295Y482174D01*
X105270Y482232D01*
X105249Y482291D01*
X105231Y482351D01*
X105218Y482413D01*
X105208Y482475D01*
X105202Y482537D01*
X105200Y482600D01*
D10*
X180975Y373063D02*
X180975Y363538D01*
D12*
X539750Y368300D02*
X552450Y368300D01*
X539750Y368300D02*
X533400Y374650D01*
X533400Y387350D02*
X539750Y393700D01*
X577850Y368300D02*
X584200Y374650D01*
X577850Y368300D02*
X565150Y368300D01*
X558800Y374650D01*
X558800Y387350D02*
X565150Y393700D01*
X577850Y393700D01*
X584200Y387350D01*
X558800Y374650D02*
X552450Y368300D01*
X558800Y387350D02*
X552450Y393700D01*
X539750Y393700D01*
X615950Y368300D02*
X628650Y368300D01*
X615950Y368300D02*
X609600Y374650D01*
X609600Y387350D02*
X615950Y393700D01*
X609600Y374650D02*
X603250Y368300D01*
X590550Y368300D01*
X584200Y374650D01*
X584200Y387350D02*
X590550Y393700D01*
X603250Y393700D01*
X609600Y387350D01*
X635000Y387350D02*
X635000Y374650D01*
X628650Y368300D01*
X635000Y387350D02*
X628650Y393700D01*
X615950Y393700D01*
X533400Y387350D02*
X533400Y374650D01*
X222250Y88900D02*
X209550Y88900D01*
X222250Y88900D02*
X228600Y82550D01*
X228600Y69850D02*
X222250Y63500D01*
X184150Y88900D02*
X177800Y82550D01*
X184150Y88900D02*
X196850Y88900D01*
X203200Y82550D01*
X203200Y69850D02*
X196850Y63500D01*
X184150Y63500D01*
X177800Y69850D01*
X203200Y82550D02*
X209550Y88900D01*
X203200Y69850D02*
X209550Y63500D01*
X222250Y63500D01*
X146050Y88900D02*
X133350Y88900D01*
X146050Y88900D02*
X152400Y82550D01*
X152400Y69850D02*
X146050Y63500D01*
X152400Y82550D02*
X158750Y88900D01*
X171450Y88900D01*
X177800Y82550D01*
X177800Y69850D02*
X171450Y63500D01*
X158750Y63500D01*
X152400Y69850D01*
X107950Y88900D02*
X101600Y82550D01*
X107950Y88900D02*
X120650Y88900D01*
X127000Y82550D01*
X127000Y69850D02*
X120650Y63500D01*
X107950Y63500D01*
X101600Y69850D01*
X127000Y82550D02*
X133350Y88900D01*
X127000Y69850D02*
X133350Y63500D01*
X146050Y63500D01*
X69850Y88900D02*
X57150Y88900D01*
X69850Y88900D02*
X76200Y82550D01*
X76200Y69850D02*
X69850Y63500D01*
X76200Y82550D02*
X82550Y88900D01*
X95250Y88900D01*
X101600Y82550D01*
X101600Y69850D02*
X95250Y63500D01*
X82550Y63500D01*
X76200Y69850D01*
X50800Y69850D02*
X50800Y82550D01*
X57150Y88900D01*
X50800Y69850D02*
X57150Y63500D01*
X69850Y63500D01*
X234950Y88900D02*
X247650Y88900D01*
X254000Y82550D01*
X254000Y69850D01*
X247650Y63500D01*
X228600Y82550D02*
X234950Y88900D01*
X228600Y69850D02*
X234950Y63500D01*
X247650Y63500D01*
X215900Y285750D02*
X222250Y292100D01*
X234950Y292100D01*
X241300Y285750D01*
X241300Y273050D02*
X234950Y266700D01*
X222250Y266700D01*
X215900Y273050D01*
X184150Y292100D02*
X171450Y292100D01*
X184150Y292100D02*
X190500Y285750D01*
X190500Y273050D02*
X184150Y266700D01*
X190500Y285750D02*
X196850Y292100D01*
X209550Y292100D01*
X215900Y285750D01*
X215900Y273050D02*
X209550Y266700D01*
X196850Y266700D01*
X190500Y273050D01*
X146050Y292100D02*
X139700Y285750D01*
X146050Y292100D02*
X158750Y292100D01*
X165100Y285750D01*
X165100Y273050D02*
X158750Y266700D01*
X146050Y266700D01*
X139700Y273050D01*
X165100Y285750D02*
X171450Y292100D01*
X165100Y273050D02*
X171450Y266700D01*
X184150Y266700D01*
X107950Y292100D02*
X95250Y292100D01*
X107950Y292100D02*
X114300Y285750D01*
X114300Y273050D02*
X107950Y266700D01*
X114300Y285750D02*
X120650Y292100D01*
X133350Y292100D01*
X139700Y285750D01*
X139700Y273050D02*
X133350Y266700D01*
X120650Y266700D01*
X114300Y273050D01*
X88900Y273050D02*
X88900Y285750D01*
X95250Y292100D01*
X88900Y273050D02*
X95250Y266700D01*
X107950Y266700D01*
X241300Y273050D02*
X241300Y285750D01*
X222250Y266700D02*
X215900Y260350D01*
X222250Y266700D02*
X234950Y266700D01*
X241300Y260350D01*
X241300Y247650D02*
X234950Y241300D01*
X222250Y241300D01*
X215900Y247650D01*
X184150Y266700D02*
X171450Y266700D01*
X184150Y266700D02*
X190500Y260350D01*
X190500Y247650D02*
X184150Y241300D01*
X190500Y260350D02*
X196850Y266700D01*
X209550Y266700D01*
X215900Y260350D01*
X215900Y247650D02*
X209550Y241300D01*
X196850Y241300D01*
X190500Y247650D01*
X146050Y266700D02*
X139700Y260350D01*
X146050Y266700D02*
X158750Y266700D01*
X165100Y260350D01*
X165100Y247650D02*
X158750Y241300D01*
X146050Y241300D01*
X139700Y247650D01*
X165100Y260350D02*
X171450Y266700D01*
X165100Y247650D02*
X171450Y241300D01*
X184150Y241300D01*
X107950Y266700D02*
X95250Y266700D01*
X107950Y266700D02*
X114300Y260350D01*
X114300Y247650D02*
X107950Y241300D01*
X114300Y260350D02*
X120650Y266700D01*
X133350Y266700D01*
X139700Y260350D01*
X139700Y247650D02*
X133350Y241300D01*
X120650Y241300D01*
X114300Y247650D01*
X88900Y247650D02*
X88900Y260350D01*
X95250Y266700D01*
X88900Y247650D02*
X95250Y241300D01*
X107950Y241300D01*
X241300Y247650D02*
X241300Y260350D01*
X685800Y120650D02*
X685800Y107950D01*
X679450Y101600D01*
X666750Y101600D02*
X660400Y107950D01*
X685800Y146050D02*
X679450Y152400D01*
X685800Y146050D02*
X685800Y133350D01*
X679450Y127000D01*
X666750Y127000D02*
X660400Y133350D01*
X660400Y146050D01*
X666750Y152400D01*
X679450Y127000D02*
X685800Y120650D01*
X666750Y127000D02*
X660400Y120650D01*
X660400Y107950D01*
X685800Y184150D02*
X685800Y196850D01*
X685800Y184150D02*
X679450Y177800D01*
X666750Y177800D02*
X660400Y184150D01*
X679450Y177800D02*
X685800Y171450D01*
X685800Y158750D01*
X679450Y152400D01*
X666750Y152400D02*
X660400Y158750D01*
X660400Y171450D01*
X666750Y177800D01*
X685800Y222250D02*
X679450Y228600D01*
X685800Y222250D02*
X685800Y209550D01*
X679450Y203200D01*
X666750Y203200D02*
X660400Y209550D01*
X660400Y222250D01*
X666750Y228600D01*
X679450Y203200D02*
X685800Y196850D01*
X666750Y203200D02*
X660400Y196850D01*
X660400Y184150D01*
X685800Y260350D02*
X685800Y273050D01*
X685800Y260350D02*
X679450Y254000D01*
X666750Y254000D02*
X660400Y260350D01*
X679450Y254000D02*
X685800Y247650D01*
X685800Y234950D01*
X679450Y228600D01*
X666750Y228600D02*
X660400Y234950D01*
X660400Y247650D01*
X666750Y254000D01*
X666750Y279400D02*
X679450Y279400D01*
X685800Y273050D01*
X666750Y279400D02*
X660400Y273050D01*
X660400Y260350D01*
X685800Y95250D02*
X685800Y82550D01*
X679450Y76200D01*
X666750Y76200D01*
X660400Y82550D01*
X679450Y101600D02*
X685800Y95250D01*
X666750Y101600D02*
X660400Y95250D01*
X660400Y82550D01*
X406400Y234950D02*
X406400Y247650D01*
X412750Y254000D01*
X425450Y254000D02*
X431800Y247650D01*
X406400Y209550D02*
X412750Y203200D01*
X406400Y209550D02*
X406400Y222250D01*
X412750Y228600D01*
X425450Y228600D02*
X431800Y222250D01*
X431800Y209550D01*
X425450Y203200D01*
X412750Y228600D02*
X406400Y234950D01*
X425450Y228600D02*
X431800Y234950D01*
X431800Y247650D01*
X406400Y171450D02*
X406400Y158750D01*
X406400Y171450D02*
X412750Y177800D01*
X425450Y177800D02*
X431800Y171450D01*
X412750Y177800D02*
X406400Y184150D01*
X406400Y196850D01*
X412750Y203200D01*
X425450Y203200D02*
X431800Y196850D01*
X431800Y184150D01*
X425450Y177800D01*
X406400Y133350D02*
X412750Y127000D01*
X406400Y133350D02*
X406400Y146050D01*
X412750Y152400D01*
X425450Y152400D02*
X431800Y146050D01*
X431800Y133350D01*
X425450Y127000D01*
X412750Y152400D02*
X406400Y158750D01*
X425450Y152400D02*
X431800Y158750D01*
X431800Y171450D01*
X406400Y95250D02*
X406400Y82550D01*
X406400Y95250D02*
X412750Y101600D01*
X425450Y101600D02*
X431800Y95250D01*
X412750Y101600D02*
X406400Y107950D01*
X406400Y120650D01*
X412750Y127000D01*
X425450Y127000D02*
X431800Y120650D01*
X431800Y107950D01*
X425450Y101600D01*
X425450Y76200D02*
X412750Y76200D01*
X406400Y82550D01*
X425450Y76200D02*
X431800Y82550D01*
X431800Y95250D01*
X406400Y260350D02*
X406400Y273050D01*
X412750Y279400D01*
X425450Y279400D01*
X431800Y273050D01*
X412750Y254000D02*
X406400Y260350D01*
X425450Y254000D02*
X431800Y260350D01*
X431800Y273050D01*
X685800Y273050D02*
X685800Y260350D01*
X685800Y273050D02*
X692150Y279400D01*
X704850Y279400D02*
X711200Y273050D01*
X685800Y234950D02*
X692150Y228600D01*
X685800Y234950D02*
X685800Y247650D01*
X692150Y254000D01*
X704850Y254000D02*
X711200Y247650D01*
X711200Y234950D01*
X704850Y228600D01*
X692150Y254000D02*
X685800Y260350D01*
X704850Y254000D02*
X711200Y260350D01*
X711200Y273050D01*
X685800Y196850D02*
X685800Y184150D01*
X685800Y196850D02*
X692150Y203200D01*
X704850Y203200D02*
X711200Y196850D01*
X692150Y203200D02*
X685800Y209550D01*
X685800Y222250D01*
X692150Y228600D01*
X704850Y228600D02*
X711200Y222250D01*
X711200Y209550D01*
X704850Y203200D01*
X704850Y177800D02*
X692150Y177800D01*
X685800Y184150D01*
X704850Y177800D02*
X711200Y184150D01*
X711200Y196850D01*
X704850Y279400D02*
X692150Y279400D01*
D10*
X682823Y180044D02*
X679069Y180044D01*
X682823Y180043D02*
X682888Y180041D01*
X682952Y180035D01*
X683016Y180025D01*
X683080Y180012D01*
X683142Y179994D01*
X683203Y179973D01*
X683263Y179949D01*
X683321Y179920D01*
X683378Y179888D01*
X683432Y179853D01*
X683484Y179815D01*
X683534Y179773D01*
X683581Y179729D01*
X683625Y179682D01*
X683667Y179632D01*
X683705Y179580D01*
X683740Y179526D01*
X683772Y179469D01*
X683801Y179411D01*
X683825Y179351D01*
X683846Y179290D01*
X683864Y179228D01*
X683877Y179164D01*
X683887Y179100D01*
X683893Y179036D01*
X683895Y178971D01*
X683895Y178435D01*
X680141Y182992D02*
X679069Y184332D01*
X683895Y184332D01*
X683895Y182992D02*
X683895Y185673D01*
X683895Y188478D02*
X683895Y190087D01*
X683893Y190152D01*
X683887Y190216D01*
X683877Y190280D01*
X683864Y190344D01*
X683846Y190406D01*
X683825Y190467D01*
X683801Y190527D01*
X683772Y190585D01*
X683740Y190642D01*
X683705Y190696D01*
X683667Y190748D01*
X683625Y190798D01*
X683581Y190845D01*
X683534Y190889D01*
X683484Y190931D01*
X683432Y190969D01*
X683378Y191004D01*
X683321Y191036D01*
X683263Y191065D01*
X683203Y191089D01*
X683142Y191110D01*
X683080Y191128D01*
X683016Y191141D01*
X682952Y191151D01*
X682888Y191157D01*
X682823Y191159D01*
X682286Y191159D01*
X682221Y191157D01*
X682157Y191151D01*
X682093Y191141D01*
X682029Y191128D01*
X681967Y191110D01*
X681906Y191089D01*
X681846Y191065D01*
X681788Y191036D01*
X681731Y191004D01*
X681677Y190969D01*
X681625Y190931D01*
X681575Y190889D01*
X681528Y190845D01*
X681484Y190798D01*
X681442Y190748D01*
X681404Y190696D01*
X681369Y190642D01*
X681337Y190585D01*
X681308Y190527D01*
X681284Y190467D01*
X681263Y190406D01*
X681245Y190344D01*
X681232Y190280D01*
X681222Y190216D01*
X681216Y190152D01*
X681214Y190087D01*
X681214Y188478D01*
X679069Y188478D01*
X679069Y191159D01*
D12*
X450850Y368300D02*
X438150Y368300D01*
X431800Y374650D01*
X431800Y387350D02*
X438150Y393700D01*
X476250Y368300D02*
X482600Y374650D01*
X476250Y368300D02*
X463550Y368300D01*
X457200Y374650D01*
X457200Y387350D02*
X463550Y393700D01*
X476250Y393700D01*
X482600Y387350D01*
X457200Y374650D02*
X450850Y368300D01*
X457200Y387350D02*
X450850Y393700D01*
X438150Y393700D01*
X514350Y368300D02*
X527050Y368300D01*
X514350Y368300D02*
X508000Y374650D01*
X508000Y387350D02*
X514350Y393700D01*
X508000Y374650D02*
X501650Y368300D01*
X488950Y368300D01*
X482600Y374650D01*
X482600Y387350D02*
X488950Y393700D01*
X501650Y393700D01*
X508000Y387350D01*
X533400Y387350D02*
X533400Y374650D01*
X527050Y368300D01*
X533400Y387350D02*
X527050Y393700D01*
X514350Y393700D01*
X431800Y387350D02*
X431800Y374650D01*
X69850Y533400D02*
X57150Y533400D01*
X69850Y533400D02*
X76200Y527050D01*
X76200Y514350D02*
X69850Y508000D01*
X76200Y527050D02*
X82550Y533400D01*
X95250Y533400D01*
X101600Y527050D01*
X101600Y514350D02*
X95250Y508000D01*
X82550Y508000D01*
X76200Y514350D01*
X50800Y514350D02*
X50800Y527050D01*
X57150Y533400D01*
X50800Y514350D02*
X57150Y508000D01*
X69850Y508000D01*
X101600Y514350D02*
X101600Y527050D01*
X114300Y488950D02*
X120650Y482600D01*
X133350Y482600D02*
X139700Y488950D01*
X146050Y482600D01*
X158750Y482600D02*
X165100Y488950D01*
X171450Y482600D01*
X184150Y482600D02*
X190500Y488950D01*
X196850Y482600D01*
X209550Y482600D02*
X215900Y488950D01*
X114300Y488950D02*
X114300Y527050D01*
X120650Y533400D01*
X133350Y533400D01*
X139700Y527050D01*
X146050Y533400D01*
X158750Y533400D01*
X165100Y527050D01*
X171450Y533400D01*
X184150Y533400D01*
X190500Y527050D01*
X196850Y533400D01*
X209550Y533400D01*
X215900Y527050D01*
X215900Y488950D01*
X209550Y482600D02*
X196850Y482600D01*
X184150Y482600D02*
X171450Y482600D01*
X158750Y482600D02*
X146050Y482600D01*
X133350Y482600D02*
X120650Y482600D01*
X120650Y480060D02*
X133350Y480060D01*
X120650Y482600D02*
X114300Y488950D01*
X114300Y527050D01*
X120650Y533400D01*
X660400Y463550D02*
X666750Y469900D01*
X660400Y450850D02*
X666750Y444500D01*
X660400Y438150D01*
X660400Y425450D02*
X666750Y419100D01*
X660400Y412750D01*
X660400Y400050D02*
X666750Y393700D01*
X666750Y469900D02*
X704850Y469900D01*
X711200Y463550D01*
X711200Y450850D01*
X704850Y444500D01*
X711200Y438150D01*
X711200Y425450D01*
X704850Y419100D01*
X711200Y412750D01*
X711200Y400050D01*
X704850Y393700D01*
X704850Y444500D02*
X666750Y444500D01*
X666750Y419100D02*
X704850Y419100D01*
X704850Y393700D02*
X666750Y393700D01*
X660400Y400050D02*
X660400Y412750D01*
X660400Y425450D02*
X660400Y438150D01*
X660400Y450850D02*
X660400Y463550D01*
X657050Y463550D02*
X657050Y450850D01*
X704850Y469900D02*
X711200Y476250D01*
X711200Y488950D02*
X704850Y495300D01*
X711200Y501650D01*
X711200Y514350D02*
X704850Y520700D01*
X711200Y527050D01*
X711200Y539750D02*
X704850Y546100D01*
X704850Y469900D02*
X666750Y469900D01*
X660400Y476250D01*
X660400Y488950D01*
X666750Y495300D01*
X660400Y501650D01*
X660400Y514350D01*
X666750Y520700D01*
X660400Y527050D01*
X660400Y539750D01*
X666750Y546100D01*
X666750Y495300D02*
X704850Y495300D01*
X704850Y520700D02*
X666750Y520700D01*
X666750Y546100D02*
X704850Y546100D01*
X711200Y539750D02*
X711200Y527050D01*
X711200Y514350D02*
X711200Y501650D01*
X711200Y488950D02*
X711200Y476250D01*
X714550Y476250D02*
X714550Y488950D01*
X361950Y469900D02*
X355600Y463550D01*
X355600Y450850D02*
X361950Y444500D01*
X355600Y438150D01*
X355600Y425450D02*
X361950Y419100D01*
X355600Y412750D01*
X355600Y400050D02*
X361950Y393700D01*
X361950Y469900D02*
X400050Y469900D01*
X406400Y463550D01*
X406400Y450850D01*
X400050Y444500D01*
X406400Y438150D01*
X406400Y425450D01*
X400050Y419100D01*
X406400Y412750D01*
X406400Y400050D01*
X400050Y393700D01*
X400050Y444500D02*
X361950Y444500D01*
X361950Y419100D02*
X400050Y419100D01*
X400050Y393700D02*
X361950Y393700D01*
X355600Y400050D02*
X355600Y412750D01*
X355600Y425450D02*
X355600Y438150D01*
X355600Y450850D02*
X355600Y463550D01*
X352250Y463550D02*
X352250Y450850D01*
X76200Y171450D02*
X69850Y165100D01*
X76200Y184150D02*
X69850Y190500D01*
X76200Y196850D01*
X76200Y209550D02*
X69850Y215900D01*
X76200Y222250D01*
X76200Y234950D02*
X69850Y241300D01*
X69850Y165100D02*
X31750Y165100D01*
X25400Y171450D01*
X25400Y184150D01*
X31750Y190500D01*
X25400Y196850D01*
X25400Y209550D01*
X31750Y215900D01*
X25400Y222250D01*
X25400Y234950D01*
X31750Y241300D01*
X31750Y190500D02*
X69850Y190500D01*
X69850Y215900D02*
X31750Y215900D01*
X31750Y241300D02*
X69850Y241300D01*
X76200Y234950D02*
X76200Y222250D01*
X76200Y209550D02*
X76200Y196850D01*
X76200Y184150D02*
X76200Y171450D01*
X79550Y171450D02*
X79550Y184150D01*
X228600Y57150D02*
X234950Y63500D01*
X247650Y63500D01*
X254000Y57150D01*
X254000Y44450D02*
X247650Y38100D01*
X234950Y38100D01*
X228600Y44450D01*
X196850Y63500D02*
X184150Y63500D01*
X196850Y63500D02*
X203200Y57150D01*
X203200Y44450D02*
X196850Y38100D01*
X203200Y57150D02*
X209550Y63500D01*
X222250Y63500D01*
X228600Y57150D01*
X228600Y44450D02*
X222250Y38100D01*
X209550Y38100D01*
X203200Y44450D01*
X158750Y63500D02*
X152400Y57150D01*
X158750Y63500D02*
X171450Y63500D01*
X177800Y57150D01*
X177800Y44450D02*
X171450Y38100D01*
X158750Y38100D01*
X152400Y44450D01*
X177800Y57150D02*
X184150Y63500D01*
X177800Y44450D02*
X184150Y38100D01*
X196850Y38100D01*
X120650Y63500D02*
X107950Y63500D01*
X120650Y63500D02*
X127000Y57150D01*
X127000Y44450D02*
X120650Y38100D01*
X127000Y57150D02*
X133350Y63500D01*
X146050Y63500D01*
X152400Y57150D01*
X152400Y44450D02*
X146050Y38100D01*
X133350Y38100D01*
X127000Y44450D01*
X101600Y44450D02*
X101600Y57150D01*
X107950Y63500D01*
X101600Y44450D02*
X107950Y38100D01*
X120650Y38100D01*
X254000Y44450D02*
X254000Y57150D01*
X52900Y401600D02*
X52900Y436600D01*
X52900Y401600D02*
X124900Y401600D01*
X124900Y436600D01*
X52900Y436600D01*
X48700Y150850D02*
X48602Y150848D01*
X48504Y150842D01*
X48406Y150833D01*
X48309Y150819D01*
X48212Y150802D01*
X48116Y150781D01*
X48021Y150756D01*
X47927Y150728D01*
X47835Y150695D01*
X47743Y150660D01*
X47653Y150620D01*
X47565Y150578D01*
X47478Y150531D01*
X47394Y150482D01*
X47311Y150429D01*
X47231Y150373D01*
X47152Y150313D01*
X47076Y150251D01*
X47003Y150186D01*
X46932Y150118D01*
X46864Y150047D01*
X46799Y149974D01*
X46737Y149898D01*
X46677Y149819D01*
X46621Y149739D01*
X46568Y149656D01*
X46519Y149572D01*
X46472Y149485D01*
X46430Y149397D01*
X46390Y149307D01*
X46355Y149215D01*
X46322Y149123D01*
X46294Y149029D01*
X46269Y148934D01*
X46248Y148838D01*
X46231Y148741D01*
X46217Y148644D01*
X46208Y148546D01*
X46202Y148448D01*
X46200Y148350D01*
X48700Y150850D02*
X103700Y150850D01*
X103798Y150848D01*
X103896Y150842D01*
X103994Y150833D01*
X104091Y150819D01*
X104188Y150802D01*
X104284Y150781D01*
X104379Y150756D01*
X104473Y150728D01*
X104565Y150695D01*
X104657Y150660D01*
X104747Y150620D01*
X104835Y150578D01*
X104922Y150531D01*
X105006Y150482D01*
X105089Y150429D01*
X105169Y150373D01*
X105248Y150313D01*
X105324Y150251D01*
X105397Y150186D01*
X105468Y150118D01*
X105536Y150047D01*
X105601Y149974D01*
X105663Y149898D01*
X105723Y149819D01*
X105779Y149739D01*
X105832Y149656D01*
X105881Y149572D01*
X105928Y149485D01*
X105970Y149397D01*
X106010Y149307D01*
X106045Y149215D01*
X106078Y149123D01*
X106106Y149029D01*
X106131Y148934D01*
X106152Y148838D01*
X106169Y148741D01*
X106183Y148644D01*
X106192Y148546D01*
X106198Y148448D01*
X106200Y148350D01*
X106200Y118350D02*
X106198Y118252D01*
X106192Y118154D01*
X106183Y118056D01*
X106169Y117959D01*
X106152Y117862D01*
X106131Y117766D01*
X106106Y117671D01*
X106078Y117577D01*
X106045Y117485D01*
X106010Y117393D01*
X105970Y117303D01*
X105928Y117215D01*
X105881Y117128D01*
X105832Y117044D01*
X105779Y116961D01*
X105723Y116881D01*
X105663Y116802D01*
X105601Y116726D01*
X105536Y116653D01*
X105468Y116582D01*
X105397Y116514D01*
X105324Y116449D01*
X105248Y116387D01*
X105169Y116327D01*
X105089Y116271D01*
X105006Y116218D01*
X104922Y116169D01*
X104835Y116122D01*
X104747Y116080D01*
X104657Y116040D01*
X104565Y116005D01*
X104473Y115972D01*
X104379Y115944D01*
X104284Y115919D01*
X104188Y115898D01*
X104091Y115881D01*
X103994Y115867D01*
X103896Y115858D01*
X103798Y115852D01*
X103700Y115850D01*
X48700Y115850D01*
X48602Y115852D01*
X48504Y115858D01*
X48406Y115867D01*
X48309Y115881D01*
X48212Y115898D01*
X48116Y115919D01*
X48021Y115944D01*
X47927Y115972D01*
X47835Y116005D01*
X47743Y116040D01*
X47653Y116080D01*
X47565Y116122D01*
X47478Y116169D01*
X47394Y116218D01*
X47311Y116271D01*
X47231Y116327D01*
X47152Y116387D01*
X47076Y116449D01*
X47003Y116514D01*
X46932Y116582D01*
X46864Y116653D01*
X46799Y116726D01*
X46737Y116802D01*
X46677Y116881D01*
X46621Y116961D01*
X46568Y117044D01*
X46519Y117128D01*
X46472Y117215D01*
X46430Y117303D01*
X46390Y117393D01*
X46355Y117485D01*
X46322Y117577D01*
X46294Y117671D01*
X46269Y117766D01*
X46248Y117862D01*
X46231Y117959D01*
X46217Y118056D01*
X46208Y118154D01*
X46202Y118252D01*
X46200Y118350D01*
X46200Y122350D01*
X46200Y144350D02*
X46200Y148350D01*
X106200Y148350D02*
X106200Y144350D01*
X106200Y122350D02*
X106200Y118350D01*
X91200Y140850D02*
X61200Y140850D01*
X61200Y125850D02*
X91200Y125850D01*
X61200Y125850D02*
X61200Y140850D01*
X91200Y140850D02*
X91200Y125850D01*
X694250Y93700D02*
X694250Y58700D01*
X766250Y58700D01*
X766250Y93700D01*
X694250Y93700D01*
X544000Y68300D02*
X543902Y68298D01*
X543804Y68292D01*
X543706Y68283D01*
X543609Y68269D01*
X543512Y68252D01*
X543416Y68231D01*
X543321Y68206D01*
X543227Y68178D01*
X543135Y68145D01*
X543043Y68110D01*
X542953Y68070D01*
X542865Y68028D01*
X542778Y67981D01*
X542694Y67932D01*
X542611Y67879D01*
X542531Y67823D01*
X542452Y67763D01*
X542376Y67701D01*
X542303Y67636D01*
X542232Y67568D01*
X542164Y67497D01*
X542099Y67424D01*
X542037Y67348D01*
X541977Y67269D01*
X541921Y67189D01*
X541868Y67106D01*
X541819Y67022D01*
X541772Y66935D01*
X541730Y66847D01*
X541690Y66757D01*
X541655Y66665D01*
X541622Y66573D01*
X541594Y66479D01*
X541569Y66384D01*
X541548Y66288D01*
X541531Y66191D01*
X541517Y66094D01*
X541508Y65996D01*
X541502Y65898D01*
X541500Y65800D01*
X544000Y68300D02*
X599000Y68300D01*
X599098Y68298D01*
X599196Y68292D01*
X599294Y68283D01*
X599391Y68269D01*
X599488Y68252D01*
X599584Y68231D01*
X599679Y68206D01*
X599773Y68178D01*
X599865Y68145D01*
X599957Y68110D01*
X600047Y68070D01*
X600135Y68028D01*
X600222Y67981D01*
X600306Y67932D01*
X600389Y67879D01*
X600469Y67823D01*
X600548Y67763D01*
X600624Y67701D01*
X600697Y67636D01*
X600768Y67568D01*
X600836Y67497D01*
X600901Y67424D01*
X600963Y67348D01*
X601023Y67269D01*
X601079Y67189D01*
X601132Y67106D01*
X601181Y67022D01*
X601228Y66935D01*
X601270Y66847D01*
X601310Y66757D01*
X601345Y66665D01*
X601378Y66573D01*
X601406Y66479D01*
X601431Y66384D01*
X601452Y66288D01*
X601469Y66191D01*
X601483Y66094D01*
X601492Y65996D01*
X601498Y65898D01*
X601500Y65800D01*
X601500Y35800D02*
X601498Y35702D01*
X601492Y35604D01*
X601483Y35506D01*
X601469Y35409D01*
X601452Y35312D01*
X601431Y35216D01*
X601406Y35121D01*
X601378Y35027D01*
X601345Y34935D01*
X601310Y34843D01*
X601270Y34753D01*
X601228Y34665D01*
X601181Y34578D01*
X601132Y34494D01*
X601079Y34411D01*
X601023Y34331D01*
X600963Y34252D01*
X600901Y34176D01*
X600836Y34103D01*
X600768Y34032D01*
X600697Y33964D01*
X600624Y33899D01*
X600548Y33837D01*
X600469Y33777D01*
X600389Y33721D01*
X600306Y33668D01*
X600222Y33619D01*
X600135Y33572D01*
X600047Y33530D01*
X599957Y33490D01*
X599865Y33455D01*
X599773Y33422D01*
X599679Y33394D01*
X599584Y33369D01*
X599488Y33348D01*
X599391Y33331D01*
X599294Y33317D01*
X599196Y33308D01*
X599098Y33302D01*
X599000Y33300D01*
X544000Y33300D01*
X543902Y33302D01*
X543804Y33308D01*
X543706Y33317D01*
X543609Y33331D01*
X543512Y33348D01*
X543416Y33369D01*
X543321Y33394D01*
X543227Y33422D01*
X543135Y33455D01*
X543043Y33490D01*
X542953Y33530D01*
X542865Y33572D01*
X542778Y33619D01*
X542694Y33668D01*
X542611Y33721D01*
X542531Y33777D01*
X542452Y33837D01*
X542376Y33899D01*
X542303Y33964D01*
X542232Y34032D01*
X542164Y34103D01*
X542099Y34176D01*
X542037Y34252D01*
X541977Y34331D01*
X541921Y34411D01*
X541868Y34494D01*
X541819Y34578D01*
X541772Y34665D01*
X541730Y34753D01*
X541690Y34843D01*
X541655Y34935D01*
X541622Y35027D01*
X541594Y35121D01*
X541569Y35216D01*
X541548Y35312D01*
X541531Y35409D01*
X541517Y35506D01*
X541508Y35604D01*
X541502Y35702D01*
X541500Y35800D01*
X541500Y39800D01*
X541500Y61800D02*
X541500Y65800D01*
X601500Y65800D02*
X601500Y61800D01*
X601500Y39800D02*
X601500Y35800D01*
X586500Y58300D02*
X556500Y58300D01*
X556500Y43300D02*
X586500Y43300D01*
X556500Y43300D02*
X556500Y58300D01*
X586500Y58300D02*
X586500Y43300D01*
X182094Y431800D02*
X173506Y431800D01*
X173506Y457200D02*
X182094Y457200D01*
X184888Y447184D02*
X184888Y441816D01*
D13*
X167640Y460502D03*
D12*
X155450Y200150D02*
X155450Y130050D01*
X155450Y200150D02*
X225550Y200150D01*
X225550Y133600D01*
X222000Y130050D02*
X155450Y130050D01*
X222000Y130050D02*
X225550Y133600D01*
X225552Y128270D02*
X225554Y128348D01*
X225560Y128425D01*
X225570Y128503D01*
X225584Y128579D01*
X225601Y128655D01*
X225623Y128730D01*
X225648Y128803D01*
X225677Y128876D01*
X225710Y128946D01*
X225747Y129015D01*
X225786Y129082D01*
X225829Y129147D01*
X225876Y129209D01*
X225925Y129269D01*
X225978Y129327D01*
X226033Y129381D01*
X226091Y129433D01*
X226152Y129482D01*
X226215Y129528D01*
X226281Y129570D01*
X226348Y129609D01*
X226417Y129644D01*
X226488Y129676D01*
X226561Y129704D01*
X226635Y129729D01*
X226710Y129749D01*
X226786Y129766D01*
X226863Y129779D01*
X226940Y129788D01*
X227018Y129793D01*
X227095Y129794D01*
X227173Y129791D01*
X227251Y129784D01*
X227328Y129773D01*
X227404Y129758D01*
X227480Y129740D01*
X227554Y129717D01*
X227628Y129691D01*
X227699Y129661D01*
X227770Y129627D01*
X227838Y129590D01*
X227904Y129549D01*
X227969Y129505D01*
X228031Y129458D01*
X228090Y129408D01*
X228147Y129354D01*
X228201Y129298D01*
X228252Y129240D01*
X228300Y129178D01*
X228345Y129115D01*
X228386Y129049D01*
X228424Y128981D01*
X228459Y128911D01*
X228490Y128840D01*
X228517Y128767D01*
X228540Y128693D01*
X228560Y128617D01*
X228576Y128541D01*
X228588Y128464D01*
X228596Y128387D01*
X228600Y128309D01*
X228600Y128231D01*
X228596Y128153D01*
X228588Y128076D01*
X228576Y127999D01*
X228560Y127923D01*
X228540Y127847D01*
X228517Y127773D01*
X228490Y127700D01*
X228459Y127629D01*
X228424Y127559D01*
X228386Y127491D01*
X228345Y127425D01*
X228300Y127362D01*
X228252Y127300D01*
X228201Y127242D01*
X228147Y127186D01*
X228090Y127132D01*
X228031Y127082D01*
X227969Y127035D01*
X227904Y126991D01*
X227838Y126950D01*
X227770Y126913D01*
X227699Y126879D01*
X227628Y126849D01*
X227554Y126823D01*
X227480Y126800D01*
X227404Y126782D01*
X227328Y126767D01*
X227251Y126756D01*
X227173Y126749D01*
X227095Y126746D01*
X227018Y126747D01*
X226940Y126752D01*
X226863Y126761D01*
X226786Y126774D01*
X226710Y126791D01*
X226635Y126811D01*
X226561Y126836D01*
X226488Y126864D01*
X226417Y126896D01*
X226348Y126931D01*
X226281Y126970D01*
X226215Y127012D01*
X226152Y127058D01*
X226091Y127107D01*
X226033Y127159D01*
X225978Y127213D01*
X225925Y127271D01*
X225876Y127331D01*
X225829Y127393D01*
X225786Y127458D01*
X225747Y127525D01*
X225710Y127594D01*
X225677Y127664D01*
X225648Y127737D01*
X225623Y127810D01*
X225601Y127885D01*
X225584Y127961D01*
X225570Y128037D01*
X225560Y128115D01*
X225554Y128192D01*
X225552Y128270D01*
D10*
X486100Y255200D02*
X606100Y255200D01*
X606100Y105200D01*
X486100Y105200D01*
X486100Y255200D01*
X466100Y257800D02*
X466100Y332800D01*
X626100Y332800D01*
X626100Y257800D01*
X466100Y97800D02*
X466100Y92800D01*
X486100Y92800D01*
X626100Y92800D02*
X626100Y97800D01*
X626100Y92800D02*
X606100Y92800D01*
X451100Y256550D02*
X451102Y256649D01*
X451108Y256749D01*
X451118Y256848D01*
X451132Y256946D01*
X451149Y257044D01*
X451171Y257141D01*
X451196Y257237D01*
X451225Y257332D01*
X451258Y257426D01*
X451295Y257518D01*
X451335Y257609D01*
X451379Y257698D01*
X451427Y257786D01*
X451478Y257871D01*
X451532Y257954D01*
X451589Y258036D01*
X451650Y258114D01*
X451714Y258191D01*
X451780Y258264D01*
X451850Y258335D01*
X451922Y258403D01*
X451997Y258469D01*
X452075Y258531D01*
X452155Y258590D01*
X452237Y258646D01*
X452321Y258698D01*
X452408Y258747D01*
X452496Y258793D01*
X452586Y258835D01*
X452678Y258874D01*
X452771Y258909D01*
X452865Y258940D01*
X452961Y258967D01*
X453058Y258990D01*
X453155Y259010D01*
X453253Y259026D01*
X453352Y259038D01*
X453451Y259046D01*
X453550Y259050D01*
X453650Y259050D01*
X453749Y259046D01*
X453848Y259038D01*
X453947Y259026D01*
X454045Y259010D01*
X454142Y258990D01*
X454239Y258967D01*
X454335Y258940D01*
X454429Y258909D01*
X454522Y258874D01*
X454614Y258835D01*
X454704Y258793D01*
X454792Y258747D01*
X454879Y258698D01*
X454963Y258646D01*
X455045Y258590D01*
X455125Y258531D01*
X455203Y258469D01*
X455278Y258403D01*
X455350Y258335D01*
X455420Y258264D01*
X455486Y258191D01*
X455550Y258114D01*
X455611Y258036D01*
X455668Y257954D01*
X455722Y257871D01*
X455773Y257786D01*
X455821Y257698D01*
X455865Y257609D01*
X455905Y257518D01*
X455942Y257426D01*
X455975Y257332D01*
X456004Y257237D01*
X456029Y257141D01*
X456051Y257044D01*
X456068Y256946D01*
X456082Y256848D01*
X456092Y256749D01*
X456098Y256649D01*
X456100Y256550D01*
X456098Y256451D01*
X456092Y256351D01*
X456082Y256252D01*
X456068Y256154D01*
X456051Y256056D01*
X456029Y255959D01*
X456004Y255863D01*
X455975Y255768D01*
X455942Y255674D01*
X455905Y255582D01*
X455865Y255491D01*
X455821Y255402D01*
X455773Y255314D01*
X455722Y255229D01*
X455668Y255146D01*
X455611Y255064D01*
X455550Y254986D01*
X455486Y254909D01*
X455420Y254836D01*
X455350Y254765D01*
X455278Y254697D01*
X455203Y254631D01*
X455125Y254569D01*
X455045Y254510D01*
X454963Y254454D01*
X454879Y254402D01*
X454792Y254353D01*
X454704Y254307D01*
X454614Y254265D01*
X454522Y254226D01*
X454429Y254191D01*
X454335Y254160D01*
X454239Y254133D01*
X454142Y254110D01*
X454045Y254090D01*
X453947Y254074D01*
X453848Y254062D01*
X453749Y254054D01*
X453650Y254050D01*
X453550Y254050D01*
X453451Y254054D01*
X453352Y254062D01*
X453253Y254074D01*
X453155Y254090D01*
X453058Y254110D01*
X452961Y254133D01*
X452865Y254160D01*
X452771Y254191D01*
X452678Y254226D01*
X452586Y254265D01*
X452496Y254307D01*
X452408Y254353D01*
X452321Y254402D01*
X452237Y254454D01*
X452155Y254510D01*
X452075Y254569D01*
X451997Y254631D01*
X451922Y254697D01*
X451850Y254765D01*
X451780Y254836D01*
X451714Y254909D01*
X451650Y254986D01*
X451589Y255064D01*
X451532Y255146D01*
X451478Y255229D01*
X451427Y255314D01*
X451379Y255402D01*
X451335Y255491D01*
X451295Y255582D01*
X451258Y255674D01*
X451225Y255768D01*
X451196Y255863D01*
X451171Y255959D01*
X451149Y256056D01*
X451132Y256154D01*
X451118Y256252D01*
X451108Y256351D01*
X451102Y256451D01*
X451100Y256550D01*
D14*
X299949Y212115D02*
X299492Y212115D01*
X299493Y212115D02*
X299486Y212603D01*
X299468Y213090D01*
X299438Y213577D01*
X299396Y214063D01*
X299342Y214547D01*
X299276Y215031D01*
X299199Y215512D01*
X299110Y215992D01*
X299010Y216469D01*
X298898Y216944D01*
X298774Y217415D01*
X298639Y217884D01*
X298493Y218349D01*
X298335Y218811D01*
X298167Y219268D01*
X297987Y219722D01*
X297796Y220170D01*
X297595Y220614D01*
X297382Y221053D01*
X297160Y221487D01*
X296926Y221915D01*
X296683Y222338D01*
X296429Y222754D01*
X296165Y223164D01*
X295891Y223568D01*
X295608Y223965D01*
X295315Y224355D01*
X295012Y224737D01*
X294701Y225113D01*
X294380Y225480D01*
X294051Y225840D01*
X293713Y226191D01*
X293366Y226534D01*
X293012Y226869D01*
X292649Y227195D01*
X292278Y227512D01*
X291900Y227820D01*
X291515Y228119D01*
X291122Y228408D01*
X290723Y228688D01*
X290979Y229065D01*
X290980Y229066D01*
X291388Y228780D01*
X291790Y228484D01*
X292184Y228178D01*
X292571Y227863D01*
X292950Y227539D01*
X293321Y227206D01*
X293684Y226863D01*
X294038Y226512D01*
X294384Y226153D01*
X294721Y225785D01*
X295049Y225409D01*
X295367Y225025D01*
X295677Y224634D01*
X295976Y224235D01*
X296266Y223829D01*
X296546Y223416D01*
X296816Y222997D01*
X297076Y222571D01*
X297325Y222139D01*
X297563Y221701D01*
X297791Y221257D01*
X298009Y220808D01*
X298215Y220354D01*
X298410Y219895D01*
X298594Y219431D01*
X298766Y218963D01*
X298927Y218491D01*
X299077Y218015D01*
X299215Y217536D01*
X299341Y217054D01*
X299456Y216568D01*
X299559Y216080D01*
X299650Y215590D01*
X299729Y215097D01*
X299796Y214603D01*
X299851Y214107D01*
X299894Y213610D01*
X299925Y213112D01*
X299943Y212614D01*
X299950Y212115D01*
X299903Y212115D01*
X299896Y212613D01*
X299878Y213110D01*
X299847Y213607D01*
X299804Y214103D01*
X299749Y214597D01*
X299682Y215090D01*
X299603Y215582D01*
X299513Y216071D01*
X299410Y216558D01*
X299296Y217042D01*
X299170Y217524D01*
X299032Y218002D01*
X298883Y218477D01*
X298722Y218948D01*
X298550Y219415D01*
X298366Y219877D01*
X298172Y220335D01*
X297966Y220788D01*
X297749Y221236D01*
X297522Y221679D01*
X297284Y222116D01*
X297035Y222547D01*
X296776Y222972D01*
X296507Y223391D01*
X296228Y223802D01*
X295938Y224207D01*
X295639Y224605D01*
X295331Y224996D01*
X295013Y225378D01*
X294686Y225753D01*
X294350Y226120D01*
X294005Y226479D01*
X293651Y226829D01*
X293289Y227171D01*
X292919Y227504D01*
X292541Y227827D01*
X292155Y228141D01*
X291762Y228446D01*
X291361Y228741D01*
X290953Y229027D01*
X290927Y228988D01*
X291334Y228703D01*
X291733Y228409D01*
X292126Y228105D01*
X292511Y227791D01*
X292888Y227468D01*
X293257Y227136D01*
X293618Y226796D01*
X293971Y226446D01*
X294315Y226088D01*
X294651Y225722D01*
X294977Y225348D01*
X295294Y224966D01*
X295602Y224576D01*
X295900Y224180D01*
X296189Y223776D01*
X296468Y223365D01*
X296736Y222947D01*
X296995Y222523D01*
X297243Y222093D01*
X297480Y221657D01*
X297707Y221215D01*
X297923Y220768D01*
X298129Y220316D01*
X298323Y219859D01*
X298506Y219398D01*
X298678Y218932D01*
X298838Y218462D01*
X298987Y217988D01*
X299124Y217511D01*
X299250Y217031D01*
X299364Y216548D01*
X299466Y216062D01*
X299557Y215574D01*
X299636Y215084D01*
X299702Y214592D01*
X299757Y214098D01*
X299800Y213603D01*
X299831Y213108D01*
X299849Y212612D01*
X299856Y212115D01*
X299809Y212115D01*
X299802Y212611D01*
X299784Y213106D01*
X299753Y213600D01*
X299710Y214093D01*
X299656Y214586D01*
X299589Y215077D01*
X299511Y215566D01*
X299420Y216053D01*
X299318Y216538D01*
X299204Y217020D01*
X299079Y217499D01*
X298942Y217975D01*
X298793Y218447D01*
X298633Y218916D01*
X298462Y219381D01*
X298279Y219841D01*
X298086Y220297D01*
X297881Y220748D01*
X297665Y221194D01*
X297439Y221635D01*
X297202Y222070D01*
X296954Y222499D01*
X296697Y222922D01*
X296429Y223339D01*
X296150Y223749D01*
X295863Y224152D01*
X295565Y224548D01*
X295258Y224936D01*
X294941Y225318D01*
X294616Y225691D01*
X294281Y226056D01*
X293938Y226413D01*
X293586Y226762D01*
X293226Y227102D01*
X292857Y227433D01*
X292481Y227755D01*
X292097Y228068D01*
X291705Y228371D01*
X291306Y228665D01*
X290901Y228949D01*
X290874Y228910D01*
X291279Y228627D01*
X291677Y228334D01*
X292068Y228031D01*
X292451Y227719D01*
X292826Y227397D01*
X293194Y227067D01*
X293553Y226728D01*
X293904Y226380D01*
X294247Y226024D01*
X294581Y225659D01*
X294906Y225287D01*
X295221Y224907D01*
X295528Y224519D01*
X295825Y224124D01*
X296112Y223722D01*
X296389Y223313D01*
X296657Y222897D01*
X296914Y222475D01*
X297161Y222047D01*
X297397Y221613D01*
X297623Y221173D01*
X297838Y220729D01*
X298043Y220279D01*
X298236Y219824D01*
X298418Y219364D01*
X298589Y218901D01*
X298749Y218433D01*
X298897Y217961D01*
X299034Y217486D01*
X299159Y217008D01*
X299272Y216527D01*
X299374Y216044D01*
X299464Y215558D01*
X299543Y215070D01*
X299609Y214580D01*
X299664Y214089D01*
X299706Y213597D01*
X299737Y213103D01*
X299755Y212609D01*
X299762Y212115D01*
X299715Y212115D01*
X299708Y212608D01*
X299690Y213101D01*
X299659Y213593D01*
X299617Y214084D01*
X299562Y214574D01*
X299496Y215063D01*
X299418Y215550D01*
X299328Y216035D01*
X299227Y216517D01*
X299113Y216997D01*
X298988Y217474D01*
X298852Y217948D01*
X298704Y218418D01*
X298545Y218885D01*
X298374Y219347D01*
X298192Y219806D01*
X297999Y220260D01*
X297796Y220709D01*
X297581Y221153D01*
X297356Y221591D01*
X297120Y222024D01*
X296874Y222451D01*
X296617Y222872D01*
X296350Y223287D01*
X296073Y223695D01*
X295787Y224096D01*
X295491Y224490D01*
X295185Y224877D01*
X294870Y225257D01*
X294546Y225628D01*
X294213Y225992D01*
X293871Y226347D01*
X293521Y226694D01*
X293162Y227033D01*
X292795Y227362D01*
X292421Y227683D01*
X292038Y227994D01*
X291649Y228296D01*
X291252Y228589D01*
X290848Y228871D01*
X290821Y228833D01*
X291224Y228550D01*
X291620Y228259D01*
X292009Y227957D01*
X292391Y227647D01*
X292764Y227327D01*
X293130Y226998D01*
X293488Y226660D01*
X293837Y226314D01*
X294178Y225960D01*
X294511Y225597D01*
X294834Y225226D01*
X295148Y224848D01*
X295453Y224462D01*
X295749Y224068D01*
X296035Y223668D01*
X296311Y223261D01*
X296577Y222847D01*
X296833Y222427D01*
X297079Y222001D01*
X297314Y221569D01*
X297539Y221132D01*
X297753Y220689D01*
X297956Y220241D01*
X298149Y219788D01*
X298330Y219331D01*
X298500Y218869D01*
X298659Y218404D01*
X298807Y217934D01*
X298943Y217462D01*
X299068Y216986D01*
X299181Y216507D01*
X299282Y216026D01*
X299372Y215542D01*
X299450Y215056D01*
X299516Y214569D01*
X299570Y214080D01*
X299612Y213590D01*
X299643Y213099D01*
X299661Y212607D01*
X299668Y212115D01*
X299621Y212115D01*
X299614Y212606D01*
X299596Y213096D01*
X299565Y213586D01*
X299523Y214075D01*
X299469Y214563D01*
X299403Y215049D01*
X299325Y215534D01*
X299236Y216016D01*
X299135Y216497D01*
X299022Y216974D01*
X298898Y217449D01*
X298762Y217921D01*
X298615Y218389D01*
X298456Y218853D01*
X298286Y219314D01*
X298105Y219770D01*
X297913Y220222D01*
X297711Y220669D01*
X297497Y221111D01*
X297273Y221547D01*
X297038Y221978D01*
X296793Y222403D01*
X296537Y222822D01*
X296272Y223235D01*
X295996Y223641D01*
X295711Y224041D01*
X295416Y224433D01*
X295112Y224818D01*
X294798Y225196D01*
X294476Y225565D01*
X294144Y225927D01*
X293804Y226281D01*
X293455Y226626D01*
X293098Y226963D01*
X292733Y227291D01*
X292360Y227610D01*
X291980Y227920D01*
X291592Y228221D01*
X291197Y228512D01*
X290795Y228794D01*
X290768Y228755D01*
X291170Y228474D01*
X291564Y228184D01*
X291951Y227884D01*
X292330Y227574D01*
X292702Y227256D01*
X293067Y226929D01*
X293423Y226593D01*
X293770Y226248D01*
X294110Y225895D01*
X294441Y225534D01*
X294762Y225165D01*
X295075Y224788D01*
X295379Y224404D01*
X295673Y224013D01*
X295958Y223614D01*
X296232Y223209D01*
X296497Y222797D01*
X296752Y222379D01*
X296997Y221955D01*
X297231Y221525D01*
X297455Y221090D01*
X297668Y220649D01*
X297870Y220203D01*
X298062Y219752D01*
X298242Y219297D01*
X298412Y218838D01*
X298570Y218374D01*
X298717Y217907D01*
X298852Y217437D01*
X298976Y216963D01*
X299089Y216487D01*
X299190Y216007D01*
X299279Y215526D01*
X299357Y215042D01*
X299422Y214557D01*
X299476Y214071D01*
X299519Y213583D01*
X299549Y213094D01*
X299567Y212605D01*
X299574Y212115D01*
X299527Y212115D01*
X299520Y212604D01*
X299502Y213092D01*
X299472Y213579D01*
X299430Y214066D01*
X299376Y214552D01*
X299310Y215036D01*
X299233Y215518D01*
X299144Y215998D01*
X299043Y216476D01*
X298931Y216952D01*
X298807Y217424D01*
X298672Y217894D01*
X298525Y218360D01*
X298367Y218822D01*
X298198Y219280D01*
X298018Y219734D01*
X297827Y220184D01*
X297625Y220629D01*
X297413Y221069D01*
X297190Y221503D01*
X296956Y221932D01*
X296712Y222355D01*
X296458Y222772D01*
X296193Y223183D01*
X295919Y223588D01*
X295635Y223985D01*
X295342Y224376D01*
X295039Y224759D01*
X294727Y225135D01*
X294406Y225503D01*
X294076Y225863D01*
X293737Y226215D01*
X293390Y226559D01*
X293035Y226894D01*
X292671Y227221D01*
X292300Y227538D01*
X291922Y227847D01*
X291535Y228146D01*
X291142Y228436D01*
X290742Y228716D01*
D15*
X290830Y234950D02*
X300990Y234950D01*
D14*
X290979Y126535D02*
X290722Y126913D01*
X290723Y126912D02*
X291122Y127192D01*
X291515Y127481D01*
X291900Y127780D01*
X292278Y128088D01*
X292649Y128405D01*
X293012Y128731D01*
X293366Y129066D01*
X293713Y129409D01*
X294051Y129761D01*
X294380Y130120D01*
X294701Y130488D01*
X295012Y130863D01*
X295314Y131246D01*
X295607Y131635D01*
X295891Y132032D01*
X296165Y132436D01*
X296428Y132846D01*
X296682Y133262D01*
X296926Y133685D01*
X297159Y134113D01*
X297382Y134547D01*
X297594Y134986D01*
X297796Y135430D01*
X297986Y135879D01*
X298166Y136332D01*
X298335Y136790D01*
X298492Y137251D01*
X298639Y137716D01*
X298774Y138185D01*
X298897Y138657D01*
X299009Y139131D01*
X299110Y139609D01*
X299198Y140088D01*
X299276Y140570D01*
X299341Y141053D01*
X299395Y141537D01*
X299437Y142023D01*
X299467Y142510D01*
X299485Y142997D01*
X299492Y143485D01*
X299948Y143485D01*
X299949Y143485D01*
X299942Y142986D01*
X299924Y142488D01*
X299893Y141990D01*
X299850Y141493D01*
X299795Y140997D01*
X299728Y140503D01*
X299649Y140011D01*
X299558Y139520D01*
X299455Y139032D01*
X299341Y138547D01*
X299214Y138064D01*
X299076Y137585D01*
X298927Y137109D01*
X298766Y136637D01*
X298593Y136169D01*
X298409Y135705D01*
X298214Y135246D01*
X298008Y134792D01*
X297791Y134343D01*
X297563Y133899D01*
X297324Y133461D01*
X297075Y133029D01*
X296816Y132603D01*
X296546Y132184D01*
X296266Y131771D01*
X295976Y131365D01*
X295676Y130966D01*
X295367Y130575D01*
X295048Y130191D01*
X294721Y129815D01*
X294384Y129448D01*
X294038Y129088D01*
X293684Y128737D01*
X293321Y128395D01*
X292950Y128061D01*
X292571Y127737D01*
X292184Y127422D01*
X291790Y127116D01*
X291388Y126821D01*
X290980Y126534D01*
X290953Y126573D01*
X291361Y126859D01*
X291762Y127154D01*
X292155Y127459D01*
X292541Y127773D01*
X292919Y128097D01*
X293289Y128429D01*
X293651Y128771D01*
X294005Y129121D01*
X294349Y129480D01*
X294686Y129847D01*
X295013Y130222D01*
X295331Y130605D01*
X295639Y130995D01*
X295938Y131393D01*
X296227Y131798D01*
X296507Y132210D01*
X296776Y132628D01*
X297035Y133053D01*
X297283Y133484D01*
X297521Y133921D01*
X297749Y134364D01*
X297965Y134812D01*
X298171Y135265D01*
X298366Y135723D01*
X298549Y136186D01*
X298721Y136653D01*
X298882Y137124D01*
X299031Y137598D01*
X299169Y138077D01*
X299295Y138558D01*
X299409Y139042D01*
X299512Y139529D01*
X299603Y140019D01*
X299681Y140510D01*
X299748Y141003D01*
X299803Y141498D01*
X299846Y141993D01*
X299877Y142490D01*
X299895Y142987D01*
X299902Y143485D01*
X299855Y143485D01*
X299848Y142989D01*
X299830Y142492D01*
X299799Y141997D01*
X299756Y141502D01*
X299701Y141009D01*
X299635Y140517D01*
X299556Y140027D01*
X299466Y139538D01*
X299363Y139052D01*
X299249Y138569D01*
X299124Y138089D01*
X298986Y137612D01*
X298837Y137138D01*
X298677Y136668D01*
X298505Y136203D01*
X298322Y135741D01*
X298128Y135284D01*
X297923Y134832D01*
X297707Y134385D01*
X297480Y133943D01*
X297242Y133507D01*
X296994Y133077D01*
X296736Y132653D01*
X296467Y132236D01*
X296189Y131825D01*
X295900Y131421D01*
X295602Y131024D01*
X295294Y130634D01*
X294977Y130252D01*
X294651Y129878D01*
X294315Y129512D01*
X293971Y129154D01*
X293618Y128805D01*
X293257Y128464D01*
X292888Y128132D01*
X292511Y127809D01*
X292126Y127496D01*
X291733Y127191D01*
X291334Y126897D01*
X290927Y126612D01*
X290901Y126651D01*
X291306Y126935D01*
X291705Y127229D01*
X292097Y127532D01*
X292481Y127845D01*
X292857Y128167D01*
X293225Y128499D01*
X293586Y128839D01*
X293938Y129187D01*
X294281Y129544D01*
X294616Y129909D01*
X294941Y130283D01*
X295258Y130664D01*
X295565Y131053D01*
X295862Y131449D01*
X296150Y131852D01*
X296428Y132262D01*
X296696Y132678D01*
X296954Y133101D01*
X297201Y133530D01*
X297438Y133965D01*
X297665Y134406D01*
X297880Y134852D01*
X298085Y135303D01*
X298279Y135759D01*
X298461Y136219D01*
X298633Y136684D01*
X298793Y137153D01*
X298941Y137625D01*
X299078Y138101D01*
X299204Y138581D01*
X299318Y139063D01*
X299420Y139547D01*
X299510Y140034D01*
X299588Y140524D01*
X299655Y141014D01*
X299709Y141507D01*
X299752Y142000D01*
X299783Y142495D01*
X299801Y142990D01*
X299808Y143485D01*
X299761Y143485D01*
X299754Y142991D01*
X299736Y142497D01*
X299705Y142004D01*
X299663Y141511D01*
X299608Y141020D01*
X299542Y140530D01*
X299464Y140042D01*
X299373Y139557D01*
X299272Y139073D01*
X299158Y138592D01*
X299033Y138114D01*
X298896Y137639D01*
X298748Y137167D01*
X298588Y136700D01*
X298417Y136236D01*
X298235Y135777D01*
X298042Y135322D01*
X297838Y134872D01*
X297623Y134427D01*
X297397Y133987D01*
X297160Y133553D01*
X296914Y133125D01*
X296656Y132703D01*
X296389Y132287D01*
X296112Y131878D01*
X295824Y131476D01*
X295527Y131081D01*
X295221Y130693D01*
X294905Y130313D01*
X294580Y129941D01*
X294247Y129576D01*
X293904Y129220D01*
X293553Y128872D01*
X293194Y128533D01*
X292826Y128203D01*
X292451Y127881D01*
X292067Y127569D01*
X291677Y127267D01*
X291279Y126973D01*
X290874Y126690D01*
X290848Y126729D01*
X291252Y127012D01*
X291649Y127304D01*
X292038Y127606D01*
X292421Y127918D01*
X292795Y128238D01*
X293162Y128568D01*
X293520Y128906D01*
X293871Y129253D01*
X294212Y129609D01*
X294545Y129972D01*
X294870Y130344D01*
X295185Y130723D01*
X295490Y131110D01*
X295786Y131504D01*
X296073Y131905D01*
X296350Y132313D01*
X296617Y132728D01*
X296873Y133149D01*
X297119Y133576D01*
X297355Y134009D01*
X297581Y134448D01*
X297795Y134892D01*
X297999Y135341D01*
X298192Y135795D01*
X298373Y136253D01*
X298544Y136715D01*
X298703Y137182D01*
X298851Y137652D01*
X298988Y138126D01*
X299112Y138603D01*
X299226Y139083D01*
X299327Y139566D01*
X299417Y140050D01*
X299495Y140537D01*
X299562Y141026D01*
X299616Y141516D01*
X299658Y142007D01*
X299689Y142499D01*
X299707Y142992D01*
X299714Y143485D01*
X299667Y143485D01*
X299660Y142993D01*
X299642Y142502D01*
X299611Y142011D01*
X299569Y141520D01*
X299515Y141032D01*
X299449Y140544D01*
X299371Y140058D01*
X299281Y139575D01*
X299180Y139093D01*
X299067Y138615D01*
X298942Y138139D01*
X298806Y137666D01*
X298659Y137197D01*
X298500Y136731D01*
X298330Y136270D01*
X298148Y135812D01*
X297956Y135360D01*
X297753Y134912D01*
X297539Y134469D01*
X297314Y134031D01*
X297078Y133599D01*
X296833Y133173D01*
X296577Y132753D01*
X296311Y132339D01*
X296034Y131932D01*
X295749Y131532D01*
X295453Y131139D01*
X295148Y130753D01*
X294834Y130374D01*
X294510Y130004D01*
X294178Y129641D01*
X293837Y129286D01*
X293488Y128940D01*
X293130Y128602D01*
X292764Y128274D01*
X292390Y127954D01*
X292009Y127643D01*
X291620Y127342D01*
X291224Y127050D01*
X290821Y126768D01*
X290795Y126807D01*
X291197Y127088D01*
X291592Y127379D01*
X291980Y127680D01*
X292360Y127990D01*
X292733Y128309D01*
X293098Y128637D01*
X293455Y128974D01*
X293804Y129319D01*
X294144Y129673D01*
X294475Y130035D01*
X294798Y130405D01*
X295112Y130782D01*
X295416Y131167D01*
X295711Y131560D01*
X295996Y131959D01*
X296271Y132365D01*
X296537Y132778D01*
X296792Y133197D01*
X297037Y133622D01*
X297272Y134053D01*
X297496Y134490D01*
X297710Y134932D01*
X297913Y135378D01*
X298105Y135830D01*
X298286Y136286D01*
X298455Y136747D01*
X298614Y137211D01*
X298761Y137680D01*
X298897Y138151D01*
X299021Y138626D01*
X299134Y139104D01*
X299235Y139584D01*
X299325Y140066D01*
X299402Y140551D01*
X299468Y141037D01*
X299522Y141525D01*
X299565Y142014D01*
X299595Y142504D01*
X299613Y142994D01*
X299620Y143485D01*
X299573Y143485D01*
X299566Y142995D01*
X299548Y142506D01*
X299518Y142017D01*
X299476Y141530D01*
X299422Y141043D01*
X299356Y140558D01*
X299278Y140074D01*
X299189Y139593D01*
X299088Y139114D01*
X298976Y138637D01*
X298852Y138164D01*
X298716Y137693D01*
X298569Y137226D01*
X298411Y136763D01*
X298242Y136303D01*
X298061Y135848D01*
X297870Y135397D01*
X297668Y134952D01*
X297454Y134511D01*
X297231Y134075D01*
X296996Y133645D01*
X296752Y133221D01*
X296497Y132803D01*
X296232Y132391D01*
X295957Y131986D01*
X295673Y131587D01*
X295379Y131196D01*
X295075Y130812D01*
X294762Y130435D01*
X294440Y130066D01*
X294110Y129705D01*
X293770Y129352D01*
X293422Y129008D01*
X293066Y128672D01*
X292702Y128344D01*
X292330Y128026D01*
X291951Y127717D01*
X291564Y127417D01*
X291169Y127126D01*
X290768Y126845D01*
X290742Y126884D01*
X291142Y127164D01*
X291535Y127454D01*
X291921Y127753D01*
X292300Y128062D01*
X292671Y128380D01*
X293035Y128706D01*
X293390Y129041D01*
X293737Y129385D01*
X294075Y129737D01*
X294405Y130098D01*
X294726Y130466D01*
X295039Y130841D01*
X295341Y131225D01*
X295635Y131615D01*
X295919Y132013D01*
X296193Y132417D01*
X296457Y132828D01*
X296711Y133245D01*
X296955Y133668D01*
X297189Y134097D01*
X297412Y134532D01*
X297625Y134971D01*
X297827Y135416D01*
X298018Y135866D01*
X298198Y136320D01*
X298367Y136778D01*
X298525Y137241D01*
X298671Y137707D01*
X298806Y138176D01*
X298930Y138649D01*
X299042Y139124D01*
X299143Y139602D01*
X299232Y140082D01*
X299309Y140565D01*
X299375Y141049D01*
X299429Y141534D01*
X299471Y142021D01*
X299501Y142508D01*
X299519Y142997D01*
X299526Y143485D01*
D15*
X300990Y120650D02*
X290830Y120650D01*
D16*
X266700Y143510D02*
X266700Y212090D01*
X259080Y212090D02*
X259080Y143510D01*
X292100Y143510D02*
X292100Y212090D01*
D15*
X255270Y232410D02*
X255270Y123190D01*
X255272Y123090D01*
X255278Y122991D01*
X255288Y122891D01*
X255301Y122793D01*
X255319Y122694D01*
X255340Y122597D01*
X255365Y122501D01*
X255394Y122405D01*
X255427Y122311D01*
X255463Y122218D01*
X255503Y122127D01*
X255547Y122037D01*
X255594Y121949D01*
X255644Y121863D01*
X255698Y121779D01*
X255755Y121697D01*
X255815Y121618D01*
X255879Y121540D01*
X255945Y121466D01*
X256014Y121394D01*
X256086Y121325D01*
X256160Y121259D01*
X256238Y121195D01*
X256317Y121135D01*
X256399Y121078D01*
X256483Y121024D01*
X256569Y120974D01*
X256657Y120927D01*
X256747Y120883D01*
X256838Y120843D01*
X256931Y120807D01*
X257025Y120774D01*
X257121Y120745D01*
X257217Y120720D01*
X257314Y120699D01*
X257413Y120681D01*
X257511Y120668D01*
X257611Y120658D01*
X257710Y120652D01*
X257810Y120650D01*
X267970Y120650D01*
D14*
X266472Y143485D02*
X266929Y143485D01*
X266928Y143485D02*
X266932Y143191D01*
X266943Y142898D01*
X266961Y142605D01*
X266986Y142313D01*
X267017Y142021D01*
X267056Y141730D01*
X267101Y141441D01*
X267153Y141152D01*
X267212Y140864D01*
X267277Y140578D01*
X267350Y140294D01*
X267429Y140012D01*
X267514Y139731D01*
X267606Y139452D01*
X267705Y139176D01*
X267810Y138902D01*
X267922Y138631D01*
X268040Y138362D01*
X268164Y138097D01*
X267753Y137898D01*
X267753Y137897D01*
X267624Y138173D01*
X267502Y138452D01*
X267386Y138733D01*
X267277Y139017D01*
X267174Y139303D01*
X267079Y139592D01*
X266990Y139883D01*
X266908Y140176D01*
X266833Y140471D01*
X266765Y140768D01*
X266704Y141066D01*
X266650Y141365D01*
X266603Y141666D01*
X266563Y141967D01*
X266531Y142270D01*
X266505Y142573D01*
X266487Y142876D01*
X266475Y143180D01*
X266471Y143485D01*
X266518Y143485D01*
X266522Y143182D01*
X266533Y142879D01*
X266552Y142576D01*
X266577Y142274D01*
X266610Y141973D01*
X266650Y141672D01*
X266697Y141373D01*
X266750Y141074D01*
X266811Y140778D01*
X266879Y140482D01*
X266954Y140188D01*
X267035Y139896D01*
X267124Y139606D01*
X267219Y139319D01*
X267321Y139033D01*
X267430Y138750D01*
X267545Y138470D01*
X267667Y138192D01*
X267795Y137918D01*
X267837Y137938D01*
X267710Y138212D01*
X267588Y138488D01*
X267473Y138768D01*
X267365Y139050D01*
X267263Y139334D01*
X267168Y139621D01*
X267080Y139910D01*
X266999Y140200D01*
X266925Y140493D01*
X266857Y140787D01*
X266796Y141083D01*
X266743Y141381D01*
X266696Y141679D01*
X266657Y141978D01*
X266624Y142279D01*
X266599Y142579D01*
X266580Y142881D01*
X266569Y143183D01*
X266565Y143485D01*
X266612Y143485D01*
X266616Y143184D01*
X266627Y142883D01*
X266646Y142583D01*
X266671Y142283D01*
X266703Y141984D01*
X266743Y141686D01*
X266789Y141388D01*
X266843Y141092D01*
X266903Y140797D01*
X266970Y140504D01*
X267044Y140213D01*
X267125Y139923D01*
X267213Y139635D01*
X267308Y139349D01*
X267409Y139066D01*
X267517Y138785D01*
X267631Y138507D01*
X267752Y138231D01*
X267880Y137959D01*
X267922Y137979D01*
X267795Y138251D01*
X267675Y138525D01*
X267561Y138803D01*
X267453Y139082D01*
X267352Y139365D01*
X267258Y139649D01*
X267171Y139936D01*
X267090Y140225D01*
X267016Y140515D01*
X266949Y140807D01*
X266889Y141101D01*
X266836Y141396D01*
X266789Y141692D01*
X266750Y141989D01*
X266718Y142287D01*
X266693Y142586D01*
X266674Y142885D01*
X266663Y143185D01*
X266659Y143485D01*
X266706Y143485D01*
X266710Y143186D01*
X266721Y142888D01*
X266739Y142590D01*
X266765Y142292D01*
X266797Y141995D01*
X266836Y141699D01*
X266882Y141404D01*
X266935Y141110D01*
X266995Y140817D01*
X267062Y140526D01*
X267135Y140237D01*
X267216Y139949D01*
X267303Y139664D01*
X267397Y139380D01*
X267497Y139099D01*
X267604Y138820D01*
X267718Y138544D01*
X267838Y138270D01*
X267964Y138000D01*
X268007Y138020D01*
X267881Y138290D01*
X267761Y138562D01*
X267648Y138837D01*
X267541Y139115D01*
X267441Y139395D01*
X267348Y139678D01*
X267261Y139962D01*
X267181Y140249D01*
X267107Y140537D01*
X267041Y140827D01*
X266981Y141119D01*
X266928Y141412D01*
X266882Y141706D01*
X266843Y142001D01*
X266811Y142296D01*
X266786Y142593D01*
X266768Y142890D01*
X266757Y143187D01*
X266753Y143485D01*
X266800Y143485D01*
X266804Y143188D01*
X266815Y142892D01*
X266833Y142596D01*
X266858Y142301D01*
X266890Y142006D01*
X266929Y141712D01*
X266975Y141419D01*
X267027Y141128D01*
X267087Y140837D01*
X267153Y140548D01*
X267226Y140261D01*
X267306Y139976D01*
X267392Y139692D01*
X267485Y139411D01*
X267585Y139132D01*
X267691Y138855D01*
X267804Y138581D01*
X267923Y138309D01*
X268049Y138041D01*
X268091Y138061D01*
X267966Y138329D01*
X267847Y138599D01*
X267735Y138872D01*
X267629Y139148D01*
X267530Y139426D01*
X267437Y139706D01*
X267351Y139989D01*
X267271Y140273D01*
X267199Y140559D01*
X267133Y140847D01*
X267073Y141137D01*
X267021Y141427D01*
X266975Y141719D01*
X266937Y142012D01*
X266905Y142305D01*
X266880Y142600D01*
X266862Y142894D01*
X266851Y143189D01*
X266847Y143485D01*
X266894Y143485D01*
X266898Y143191D01*
X266909Y142897D01*
X266927Y142603D01*
X266952Y142310D01*
X266983Y142017D01*
X267022Y141726D01*
X267067Y141435D01*
X267120Y141145D01*
X267179Y140857D01*
X267244Y140570D01*
X267317Y140285D01*
X267396Y140002D01*
X267482Y139721D01*
X267574Y139441D01*
X267673Y139164D01*
X267779Y138890D01*
X267891Y138618D01*
X268009Y138348D01*
X268134Y138082D01*
X291047Y137898D02*
X290635Y138097D01*
X290636Y138097D02*
X290760Y138362D01*
X290878Y138631D01*
X290990Y138902D01*
X291095Y139176D01*
X291194Y139452D01*
X291286Y139731D01*
X291371Y140012D01*
X291450Y140294D01*
X291523Y140578D01*
X291588Y140864D01*
X291647Y141152D01*
X291699Y141441D01*
X291744Y141730D01*
X291783Y142021D01*
X291814Y142313D01*
X291839Y142605D01*
X291857Y142898D01*
X291868Y143191D01*
X291872Y143485D01*
X292328Y143485D01*
X292329Y143485D01*
X292325Y143180D01*
X292313Y142876D01*
X292295Y142573D01*
X292269Y142270D01*
X292237Y141967D01*
X292197Y141666D01*
X292150Y141365D01*
X292096Y141066D01*
X292035Y140768D01*
X291967Y140471D01*
X291892Y140176D01*
X291810Y139883D01*
X291721Y139592D01*
X291626Y139303D01*
X291523Y139017D01*
X291414Y138733D01*
X291298Y138452D01*
X291176Y138173D01*
X291047Y137897D01*
X291005Y137918D01*
X291133Y138192D01*
X291255Y138470D01*
X291370Y138750D01*
X291479Y139033D01*
X291581Y139319D01*
X291676Y139606D01*
X291765Y139896D01*
X291846Y140188D01*
X291921Y140482D01*
X291989Y140778D01*
X292050Y141074D01*
X292103Y141373D01*
X292150Y141672D01*
X292190Y141973D01*
X292223Y142274D01*
X292248Y142576D01*
X292267Y142879D01*
X292278Y143182D01*
X292282Y143485D01*
X292235Y143485D01*
X292231Y143183D01*
X292220Y142881D01*
X292201Y142579D01*
X292176Y142279D01*
X292143Y141978D01*
X292104Y141679D01*
X292057Y141381D01*
X292004Y141083D01*
X291943Y140787D01*
X291875Y140493D01*
X291801Y140200D01*
X291720Y139910D01*
X291632Y139621D01*
X291537Y139334D01*
X291435Y139050D01*
X291327Y138768D01*
X291212Y138488D01*
X291090Y138212D01*
X290963Y137938D01*
X290920Y137959D01*
X291048Y138231D01*
X291169Y138507D01*
X291283Y138785D01*
X291391Y139066D01*
X291492Y139349D01*
X291587Y139635D01*
X291675Y139923D01*
X291756Y140213D01*
X291830Y140504D01*
X291897Y140797D01*
X291957Y141092D01*
X292011Y141388D01*
X292057Y141686D01*
X292097Y141984D01*
X292129Y142283D01*
X292154Y142583D01*
X292173Y142883D01*
X292184Y143184D01*
X292188Y143485D01*
X292141Y143485D01*
X292137Y143185D01*
X292126Y142885D01*
X292107Y142586D01*
X292082Y142287D01*
X292050Y141989D01*
X292011Y141692D01*
X291964Y141396D01*
X291911Y141101D01*
X291851Y140807D01*
X291784Y140515D01*
X291710Y140225D01*
X291629Y139936D01*
X291542Y139649D01*
X291448Y139365D01*
X291347Y139082D01*
X291239Y138803D01*
X291125Y138525D01*
X291005Y138251D01*
X290878Y137979D01*
X290836Y138000D01*
X290962Y138270D01*
X291082Y138544D01*
X291196Y138820D01*
X291303Y139099D01*
X291403Y139380D01*
X291497Y139664D01*
X291584Y139949D01*
X291665Y140237D01*
X291738Y140526D01*
X291805Y140817D01*
X291865Y141110D01*
X291918Y141404D01*
X291964Y141699D01*
X292003Y141995D01*
X292035Y142292D01*
X292061Y142590D01*
X292079Y142888D01*
X292090Y143186D01*
X292094Y143485D01*
X292047Y143485D01*
X292043Y143187D01*
X292032Y142890D01*
X292014Y142593D01*
X291989Y142296D01*
X291957Y142001D01*
X291918Y141706D01*
X291872Y141412D01*
X291819Y141119D01*
X291759Y140827D01*
X291693Y140537D01*
X291619Y140249D01*
X291539Y139962D01*
X291452Y139678D01*
X291359Y139395D01*
X291259Y139115D01*
X291152Y138837D01*
X291039Y138562D01*
X290919Y138290D01*
X290793Y138020D01*
X290751Y138041D01*
X290877Y138309D01*
X290996Y138581D01*
X291109Y138855D01*
X291215Y139132D01*
X291315Y139411D01*
X291408Y139692D01*
X291494Y139976D01*
X291574Y140261D01*
X291647Y140548D01*
X291713Y140837D01*
X291773Y141128D01*
X291825Y141419D01*
X291871Y141712D01*
X291910Y142006D01*
X291942Y142301D01*
X291967Y142596D01*
X291985Y142892D01*
X291996Y143188D01*
X292000Y143485D01*
X291953Y143485D01*
X291949Y143189D01*
X291938Y142894D01*
X291920Y142600D01*
X291895Y142305D01*
X291863Y142012D01*
X291825Y141719D01*
X291779Y141427D01*
X291727Y141137D01*
X291667Y140847D01*
X291601Y140559D01*
X291529Y140273D01*
X291449Y139989D01*
X291363Y139706D01*
X291270Y139426D01*
X291171Y139148D01*
X291065Y138872D01*
X290953Y138599D01*
X290834Y138329D01*
X290709Y138061D01*
X290666Y138082D01*
X290791Y138348D01*
X290909Y138618D01*
X291021Y138890D01*
X291127Y139164D01*
X291226Y139441D01*
X291318Y139721D01*
X291404Y140002D01*
X291483Y140285D01*
X291556Y140570D01*
X291621Y140857D01*
X291680Y141145D01*
X291733Y141435D01*
X291778Y141726D01*
X291817Y142017D01*
X291848Y142310D01*
X291873Y142603D01*
X291891Y142897D01*
X291902Y143191D01*
X291906Y143485D01*
X258852Y143485D02*
X259309Y143485D01*
X259308Y143484D02*
X259315Y142997D01*
X259333Y142509D01*
X259363Y142023D01*
X259405Y141537D01*
X259459Y141052D01*
X259525Y140569D01*
X259602Y140087D01*
X259691Y139608D01*
X259791Y139131D01*
X259903Y138656D01*
X260027Y138185D01*
X260162Y137716D01*
X260308Y137251D01*
X260466Y136789D01*
X260634Y136332D01*
X260814Y135878D01*
X261005Y135430D01*
X261206Y134986D01*
X261419Y134547D01*
X261642Y134113D01*
X261875Y133685D01*
X262119Y133262D01*
X262372Y132846D01*
X262636Y132436D01*
X262910Y132032D01*
X263193Y131635D01*
X263486Y131245D01*
X263789Y130863D01*
X264100Y130488D01*
X264421Y130120D01*
X264750Y129761D01*
X265088Y129409D01*
X265435Y129066D01*
X265789Y128731D01*
X266152Y128405D01*
X266523Y128088D01*
X266901Y127780D01*
X267286Y127482D01*
X267679Y127192D01*
X268078Y126913D01*
X267822Y126535D01*
X267821Y126535D01*
X267413Y126821D01*
X267011Y127117D01*
X266617Y127422D01*
X266230Y127737D01*
X265851Y128061D01*
X265480Y128395D01*
X265117Y128737D01*
X264763Y129088D01*
X264417Y129448D01*
X264080Y129815D01*
X263752Y130191D01*
X263434Y130575D01*
X263125Y130966D01*
X262825Y131365D01*
X262535Y131771D01*
X262255Y132184D01*
X261985Y132603D01*
X261725Y133029D01*
X261476Y133461D01*
X261238Y133899D01*
X261010Y134343D01*
X260793Y134792D01*
X260586Y135246D01*
X260391Y135705D01*
X260208Y136169D01*
X260035Y136637D01*
X259874Y137109D01*
X259724Y137584D01*
X259586Y138064D01*
X259460Y138546D01*
X259345Y139032D01*
X259242Y139520D01*
X259151Y140010D01*
X259072Y140502D01*
X259005Y140997D01*
X258950Y141492D01*
X258907Y141989D01*
X258877Y142487D01*
X258858Y142986D01*
X258851Y143484D01*
X258898Y143484D01*
X258905Y142987D01*
X258923Y142489D01*
X258954Y141993D01*
X258997Y141497D01*
X259052Y141002D01*
X259119Y140509D01*
X259198Y140018D01*
X259288Y139529D01*
X259391Y139042D01*
X259505Y138557D01*
X259632Y138076D01*
X259769Y137598D01*
X259919Y137123D01*
X260079Y136652D01*
X260251Y136185D01*
X260435Y135723D01*
X260630Y135265D01*
X260835Y134812D01*
X261052Y134364D01*
X261279Y133921D01*
X261517Y133484D01*
X261766Y133053D01*
X262025Y132628D01*
X262294Y132210D01*
X262573Y131798D01*
X262863Y131393D01*
X263162Y130995D01*
X263470Y130605D01*
X263788Y130222D01*
X264115Y129847D01*
X264451Y129480D01*
X264796Y129121D01*
X265150Y128771D01*
X265512Y128429D01*
X265882Y128097D01*
X266260Y127773D01*
X266646Y127459D01*
X267039Y127154D01*
X267440Y126859D01*
X267848Y126574D01*
X267874Y126613D01*
X267467Y126897D01*
X267068Y127192D01*
X266675Y127496D01*
X266290Y127809D01*
X265913Y128132D01*
X265544Y128464D01*
X265183Y128805D01*
X264830Y129154D01*
X264486Y129512D01*
X264150Y129878D01*
X263824Y130252D01*
X263507Y130634D01*
X263199Y131024D01*
X262901Y131421D01*
X262612Y131825D01*
X262333Y132235D01*
X262065Y132653D01*
X261806Y133077D01*
X261558Y133507D01*
X261321Y133943D01*
X261094Y134385D01*
X260878Y134832D01*
X260673Y135284D01*
X260478Y135741D01*
X260295Y136202D01*
X260124Y136668D01*
X259963Y137138D01*
X259814Y137611D01*
X259677Y138088D01*
X259551Y138569D01*
X259437Y139052D01*
X259335Y139538D01*
X259244Y140026D01*
X259165Y140516D01*
X259099Y141008D01*
X259044Y141502D01*
X259001Y141996D01*
X258970Y142492D01*
X258952Y142988D01*
X258945Y143484D01*
X258992Y143484D01*
X258999Y142989D01*
X259017Y142494D01*
X259048Y142000D01*
X259091Y141506D01*
X259145Y141014D01*
X259212Y140523D01*
X259290Y140034D01*
X259381Y139547D01*
X259483Y139062D01*
X259597Y138580D01*
X259722Y138101D01*
X259859Y137625D01*
X260008Y137152D01*
X260168Y136684D01*
X260339Y136219D01*
X260522Y135758D01*
X260716Y135303D01*
X260920Y134851D01*
X261136Y134406D01*
X261362Y133965D01*
X261599Y133530D01*
X261847Y133101D01*
X262105Y132678D01*
X262373Y132261D01*
X262651Y131851D01*
X262939Y131448D01*
X263236Y131052D01*
X263543Y130664D01*
X263860Y130283D01*
X264185Y129909D01*
X264520Y129544D01*
X264863Y129187D01*
X265215Y128839D01*
X265576Y128499D01*
X265944Y128168D01*
X266320Y127846D01*
X266704Y127533D01*
X267096Y127229D01*
X267495Y126935D01*
X267900Y126651D01*
X267927Y126690D01*
X267522Y126974D01*
X267124Y127267D01*
X266734Y127570D01*
X266350Y127882D01*
X265975Y128203D01*
X265607Y128533D01*
X265248Y128872D01*
X264897Y129220D01*
X264554Y129576D01*
X264220Y129941D01*
X263896Y130313D01*
X263580Y130693D01*
X263273Y131081D01*
X262976Y131476D01*
X262689Y131878D01*
X262412Y132287D01*
X262144Y132703D01*
X261887Y133125D01*
X261640Y133553D01*
X261404Y133987D01*
X261178Y134427D01*
X260963Y134871D01*
X260759Y135321D01*
X260565Y135776D01*
X260383Y136236D01*
X260212Y136699D01*
X260053Y137167D01*
X259904Y137638D01*
X259767Y138113D01*
X259642Y138591D01*
X259529Y139072D01*
X259427Y139556D01*
X259337Y140042D01*
X259258Y140530D01*
X259192Y141020D01*
X259137Y141511D01*
X259095Y142003D01*
X259064Y142496D01*
X259046Y142990D01*
X259039Y143484D01*
X259086Y143484D01*
X259093Y142991D01*
X259111Y142499D01*
X259142Y142006D01*
X259184Y141515D01*
X259239Y141025D01*
X259305Y140537D01*
X259383Y140050D01*
X259473Y139565D01*
X259575Y139083D01*
X259688Y138603D01*
X259813Y138126D01*
X259949Y137652D01*
X260097Y137182D01*
X260256Y136715D01*
X260427Y136252D01*
X260609Y135794D01*
X260802Y135340D01*
X261005Y134891D01*
X261220Y134447D01*
X261445Y134009D01*
X261681Y133576D01*
X261928Y133149D01*
X262184Y132728D01*
X262451Y132313D01*
X262728Y131905D01*
X263014Y131504D01*
X263311Y131110D01*
X263616Y130723D01*
X263931Y130344D01*
X264255Y129972D01*
X264588Y129609D01*
X264930Y129253D01*
X265281Y128906D01*
X265639Y128568D01*
X266006Y128238D01*
X266380Y127918D01*
X266763Y127606D01*
X267152Y127304D01*
X267549Y127012D01*
X267953Y126729D01*
X267980Y126768D01*
X267577Y127050D01*
X267181Y127342D01*
X266792Y127643D01*
X266411Y127954D01*
X266037Y128274D01*
X265671Y128602D01*
X265313Y128940D01*
X264964Y129286D01*
X264623Y129641D01*
X264290Y130004D01*
X263967Y130374D01*
X263653Y130753D01*
X263348Y131139D01*
X263052Y131532D01*
X262766Y131932D01*
X262490Y132339D01*
X262224Y132753D01*
X261968Y133173D01*
X261722Y133599D01*
X261487Y134031D01*
X261262Y134468D01*
X261048Y134911D01*
X260845Y135359D01*
X260652Y135812D01*
X260471Y136269D01*
X260301Y136731D01*
X260142Y137196D01*
X259994Y137666D01*
X259858Y138138D01*
X259733Y138614D01*
X259620Y139093D01*
X259519Y139574D01*
X259429Y140058D01*
X259351Y140544D01*
X259285Y141031D01*
X259231Y141520D01*
X259189Y142010D01*
X259158Y142501D01*
X259140Y142992D01*
X259133Y143484D01*
X259180Y143484D01*
X259187Y142994D01*
X259205Y142503D01*
X259236Y142013D01*
X259278Y141524D01*
X259332Y141037D01*
X259398Y140550D01*
X259476Y140066D01*
X259565Y139583D01*
X259666Y139103D01*
X259779Y138625D01*
X259903Y138151D01*
X260039Y137679D01*
X260187Y137211D01*
X260345Y136746D01*
X260515Y136286D01*
X260696Y135830D01*
X260888Y135378D01*
X261091Y134931D01*
X261304Y134489D01*
X261528Y134053D01*
X261763Y133622D01*
X262008Y133197D01*
X262264Y132778D01*
X262529Y132365D01*
X262805Y131959D01*
X263090Y131560D01*
X263385Y131167D01*
X263689Y130782D01*
X264003Y130405D01*
X264325Y130035D01*
X264657Y129673D01*
X264997Y129319D01*
X265346Y128974D01*
X265703Y128637D01*
X266068Y128309D01*
X266441Y127990D01*
X266821Y127680D01*
X267209Y127379D01*
X267604Y127088D01*
X268006Y126807D01*
X268033Y126846D01*
X267632Y127126D01*
X267237Y127417D01*
X266850Y127717D01*
X266471Y128026D01*
X266099Y128344D01*
X265735Y128672D01*
X265378Y129008D01*
X265031Y129352D01*
X264691Y129705D01*
X264360Y130066D01*
X264039Y130435D01*
X263726Y130812D01*
X263422Y131196D01*
X263128Y131587D01*
X262843Y131986D01*
X262569Y132391D01*
X262304Y132803D01*
X262049Y133221D01*
X261804Y133645D01*
X261570Y134075D01*
X261346Y134510D01*
X261133Y134951D01*
X260931Y135397D01*
X260739Y135848D01*
X260559Y136303D01*
X260389Y136762D01*
X260231Y137226D01*
X260084Y137693D01*
X259949Y138163D01*
X259825Y138637D01*
X259712Y139113D01*
X259611Y139592D01*
X259522Y140074D01*
X259444Y140557D01*
X259379Y141042D01*
X259325Y141529D01*
X259282Y142017D01*
X259252Y142505D01*
X259234Y142995D01*
X259227Y143484D01*
X259274Y143484D01*
X259281Y142996D01*
X259299Y142508D01*
X259329Y142020D01*
X259371Y141534D01*
X259425Y141048D01*
X259491Y140564D01*
X259568Y140082D01*
X259657Y139601D01*
X259758Y139123D01*
X259870Y138648D01*
X259994Y138176D01*
X260129Y137706D01*
X260276Y137240D01*
X260434Y136778D01*
X260603Y136320D01*
X260783Y135865D01*
X260974Y135416D01*
X261176Y134971D01*
X261388Y134531D01*
X261612Y134097D01*
X261845Y133668D01*
X262089Y133245D01*
X262344Y132828D01*
X262608Y132417D01*
X262882Y132013D01*
X263166Y131615D01*
X263459Y131225D01*
X263762Y130841D01*
X264074Y130466D01*
X264395Y130098D01*
X264725Y129737D01*
X265064Y129385D01*
X265411Y129042D01*
X265766Y128706D01*
X266130Y128380D01*
X266501Y128062D01*
X266880Y127754D01*
X267266Y127454D01*
X267659Y127165D01*
X268059Y126885D01*
X267821Y229065D02*
X268078Y228687D01*
X268077Y228688D02*
X267678Y228408D01*
X267285Y228119D01*
X266900Y227820D01*
X266522Y227512D01*
X266151Y227195D01*
X265788Y226869D01*
X265434Y226534D01*
X265087Y226191D01*
X264749Y225839D01*
X264420Y225480D01*
X264099Y225112D01*
X263788Y224737D01*
X263486Y224354D01*
X263193Y223965D01*
X262909Y223568D01*
X262635Y223164D01*
X262372Y222754D01*
X262118Y222338D01*
X261874Y221915D01*
X261641Y221487D01*
X261418Y221053D01*
X261206Y220614D01*
X261004Y220170D01*
X260814Y219721D01*
X260634Y219268D01*
X260465Y218810D01*
X260308Y218349D01*
X260161Y217884D01*
X260026Y217415D01*
X259903Y216943D01*
X259791Y216469D01*
X259690Y215991D01*
X259602Y215512D01*
X259524Y215030D01*
X259459Y214547D01*
X259405Y214063D01*
X259363Y213577D01*
X259333Y213090D01*
X259315Y212603D01*
X259308Y212115D01*
X258852Y212115D01*
X258851Y212115D01*
X258858Y212614D01*
X258876Y213112D01*
X258907Y213610D01*
X258950Y214107D01*
X259005Y214603D01*
X259072Y215097D01*
X259151Y215589D01*
X259242Y216080D01*
X259345Y216568D01*
X259459Y217053D01*
X259586Y217536D01*
X259724Y218015D01*
X259873Y218491D01*
X260034Y218963D01*
X260207Y219431D01*
X260391Y219895D01*
X260586Y220354D01*
X260792Y220808D01*
X261009Y221257D01*
X261237Y221701D01*
X261476Y222139D01*
X261725Y222571D01*
X261984Y222997D01*
X262254Y223416D01*
X262534Y223829D01*
X262824Y224235D01*
X263124Y224634D01*
X263433Y225025D01*
X263752Y225409D01*
X264079Y225785D01*
X264416Y226152D01*
X264762Y226512D01*
X265116Y226863D01*
X265479Y227205D01*
X265850Y227539D01*
X266229Y227863D01*
X266616Y228178D01*
X267010Y228484D01*
X267412Y228779D01*
X267820Y229066D01*
X267847Y229027D01*
X267439Y228741D01*
X267038Y228446D01*
X266645Y228141D01*
X266259Y227827D01*
X265881Y227503D01*
X265511Y227171D01*
X265149Y226829D01*
X264795Y226479D01*
X264451Y226120D01*
X264114Y225753D01*
X263787Y225378D01*
X263469Y224995D01*
X263161Y224605D01*
X262862Y224207D01*
X262573Y223802D01*
X262293Y223390D01*
X262024Y222972D01*
X261765Y222547D01*
X261517Y222116D01*
X261279Y221679D01*
X261051Y221236D01*
X260835Y220788D01*
X260629Y220335D01*
X260434Y219877D01*
X260251Y219414D01*
X260079Y218947D01*
X259918Y218476D01*
X259769Y218002D01*
X259631Y217523D01*
X259505Y217042D01*
X259391Y216558D01*
X259288Y216071D01*
X259197Y215581D01*
X259119Y215090D01*
X259052Y214597D01*
X258997Y214102D01*
X258954Y213607D01*
X258923Y213110D01*
X258905Y212613D01*
X258898Y212115D01*
X258945Y212115D01*
X258952Y212611D01*
X258970Y213108D01*
X259001Y213603D01*
X259044Y214098D01*
X259099Y214591D01*
X259165Y215083D01*
X259244Y215573D01*
X259334Y216062D01*
X259437Y216548D01*
X259551Y217031D01*
X259676Y217511D01*
X259814Y217988D01*
X259963Y218462D01*
X260123Y218932D01*
X260295Y219397D01*
X260478Y219859D01*
X260672Y220316D01*
X260877Y220768D01*
X261093Y221215D01*
X261320Y221657D01*
X261558Y222093D01*
X261806Y222523D01*
X262064Y222947D01*
X262333Y223364D01*
X262611Y223775D01*
X262900Y224179D01*
X263198Y224576D01*
X263506Y224966D01*
X263823Y225348D01*
X264149Y225722D01*
X264485Y226088D01*
X264829Y226446D01*
X265182Y226795D01*
X265543Y227136D01*
X265912Y227468D01*
X266289Y227791D01*
X266674Y228104D01*
X267067Y228409D01*
X267466Y228703D01*
X267873Y228988D01*
X267899Y228949D01*
X267494Y228665D01*
X267095Y228371D01*
X266703Y228068D01*
X266319Y227755D01*
X265943Y227433D01*
X265575Y227101D01*
X265214Y226761D01*
X264862Y226413D01*
X264519Y226056D01*
X264184Y225691D01*
X263859Y225317D01*
X263542Y224936D01*
X263235Y224547D01*
X262938Y224151D01*
X262650Y223748D01*
X262372Y223338D01*
X262104Y222922D01*
X261846Y222499D01*
X261599Y222070D01*
X261362Y221635D01*
X261135Y221194D01*
X260920Y220748D01*
X260715Y220297D01*
X260521Y219841D01*
X260339Y219381D01*
X260167Y218916D01*
X260007Y218447D01*
X259859Y217975D01*
X259722Y217499D01*
X259596Y217019D01*
X259482Y216537D01*
X259380Y216053D01*
X259290Y215566D01*
X259212Y215076D01*
X259145Y214586D01*
X259091Y214093D01*
X259048Y213600D01*
X259017Y213105D01*
X258999Y212610D01*
X258992Y212115D01*
X259039Y212115D01*
X259046Y212609D01*
X259064Y213103D01*
X259095Y213596D01*
X259137Y214089D01*
X259192Y214580D01*
X259258Y215070D01*
X259336Y215558D01*
X259427Y216043D01*
X259528Y216527D01*
X259642Y217008D01*
X259767Y217486D01*
X259904Y217961D01*
X260052Y218433D01*
X260212Y218900D01*
X260383Y219364D01*
X260565Y219823D01*
X260758Y220278D01*
X260962Y220728D01*
X261177Y221173D01*
X261403Y221613D01*
X261640Y222047D01*
X261886Y222475D01*
X262144Y222897D01*
X262411Y223313D01*
X262688Y223722D01*
X262976Y224124D01*
X263273Y224519D01*
X263579Y224907D01*
X263895Y225287D01*
X264220Y225659D01*
X264553Y226024D01*
X264896Y226380D01*
X265247Y226728D01*
X265606Y227067D01*
X265974Y227397D01*
X266349Y227719D01*
X266733Y228031D01*
X267123Y228333D01*
X267521Y228627D01*
X267926Y228910D01*
X267952Y228871D01*
X267548Y228588D01*
X267151Y228296D01*
X266762Y227994D01*
X266379Y227682D01*
X266005Y227362D01*
X265638Y227032D01*
X265280Y226694D01*
X264929Y226347D01*
X264588Y225991D01*
X264255Y225628D01*
X263930Y225256D01*
X263615Y224877D01*
X263310Y224490D01*
X263014Y224096D01*
X262727Y223695D01*
X262450Y223287D01*
X262183Y222872D01*
X261927Y222451D01*
X261681Y222024D01*
X261445Y221591D01*
X261219Y221152D01*
X261005Y220708D01*
X260801Y220259D01*
X260608Y219805D01*
X260427Y219347D01*
X260256Y218885D01*
X260097Y218418D01*
X259949Y217948D01*
X259812Y217474D01*
X259688Y216997D01*
X259574Y216517D01*
X259473Y216034D01*
X259383Y215550D01*
X259305Y215063D01*
X259238Y214574D01*
X259184Y214084D01*
X259142Y213593D01*
X259111Y213101D01*
X259093Y212608D01*
X259086Y212115D01*
X259133Y212115D01*
X259140Y212607D01*
X259158Y213098D01*
X259189Y213589D01*
X259231Y214080D01*
X259285Y214568D01*
X259351Y215056D01*
X259429Y215542D01*
X259519Y216025D01*
X259620Y216507D01*
X259733Y216985D01*
X259858Y217461D01*
X259994Y217934D01*
X260141Y218403D01*
X260300Y218869D01*
X260470Y219330D01*
X260652Y219788D01*
X260844Y220240D01*
X261047Y220688D01*
X261261Y221131D01*
X261486Y221569D01*
X261722Y222001D01*
X261967Y222427D01*
X262223Y222847D01*
X262489Y223261D01*
X262766Y223668D01*
X263051Y224068D01*
X263347Y224461D01*
X263652Y224847D01*
X263966Y225226D01*
X264290Y225596D01*
X264622Y225959D01*
X264963Y226314D01*
X265312Y226660D01*
X265670Y226998D01*
X266036Y227326D01*
X266410Y227646D01*
X266791Y227957D01*
X267180Y228258D01*
X267576Y228550D01*
X267979Y228832D01*
X268005Y228793D01*
X267603Y228512D01*
X267208Y228221D01*
X266820Y227920D01*
X266440Y227610D01*
X266067Y227291D01*
X265702Y226963D01*
X265345Y226626D01*
X264996Y226281D01*
X264656Y225927D01*
X264325Y225565D01*
X264002Y225195D01*
X263688Y224818D01*
X263384Y224433D01*
X263089Y224040D01*
X262804Y223641D01*
X262529Y223235D01*
X262263Y222822D01*
X262008Y222403D01*
X261763Y221978D01*
X261528Y221547D01*
X261304Y221110D01*
X261090Y220668D01*
X260887Y220222D01*
X260695Y219770D01*
X260514Y219314D01*
X260345Y218853D01*
X260186Y218389D01*
X260039Y217920D01*
X259903Y217449D01*
X259779Y216974D01*
X259666Y216496D01*
X259565Y216016D01*
X259475Y215534D01*
X259398Y215049D01*
X259332Y214563D01*
X259278Y214075D01*
X259235Y213586D01*
X259205Y213096D01*
X259187Y212606D01*
X259180Y212115D01*
X259227Y212115D01*
X259234Y212605D01*
X259252Y213094D01*
X259282Y213583D01*
X259324Y214070D01*
X259378Y214557D01*
X259444Y215042D01*
X259522Y215526D01*
X259611Y216007D01*
X259712Y216486D01*
X259824Y216963D01*
X259948Y217436D01*
X260084Y217907D01*
X260231Y218374D01*
X260389Y218837D01*
X260558Y219297D01*
X260739Y219752D01*
X260930Y220203D01*
X261132Y220648D01*
X261346Y221089D01*
X261569Y221525D01*
X261804Y221955D01*
X262048Y222379D01*
X262303Y222797D01*
X262568Y223209D01*
X262843Y223614D01*
X263127Y224013D01*
X263421Y224404D01*
X263725Y224788D01*
X264038Y225165D01*
X264360Y225534D01*
X264690Y225895D01*
X265030Y226248D01*
X265378Y226592D01*
X265734Y226928D01*
X266098Y227256D01*
X266470Y227574D01*
X266849Y227883D01*
X267236Y228183D01*
X267631Y228474D01*
X268032Y228755D01*
X268058Y228716D01*
X267658Y228436D01*
X267265Y228146D01*
X266879Y227847D01*
X266500Y227538D01*
X266129Y227220D01*
X265765Y226894D01*
X265410Y226559D01*
X265063Y226215D01*
X264725Y225863D01*
X264395Y225502D01*
X264074Y225134D01*
X263761Y224759D01*
X263459Y224375D01*
X263165Y223985D01*
X262881Y223587D01*
X262607Y223183D01*
X262343Y222772D01*
X262089Y222355D01*
X261845Y221932D01*
X261611Y221503D01*
X261388Y221068D01*
X261175Y220629D01*
X260973Y220184D01*
X260782Y219734D01*
X260602Y219280D01*
X260433Y218822D01*
X260275Y218359D01*
X260129Y217893D01*
X259994Y217424D01*
X259870Y216951D01*
X259758Y216476D01*
X259657Y215998D01*
X259568Y215518D01*
X259491Y215035D01*
X259425Y214551D01*
X259371Y214066D01*
X259329Y213579D01*
X259299Y213092D01*
X259281Y212603D01*
X259274Y212115D01*
X267753Y217702D02*
X268165Y217503D01*
X268164Y217503D02*
X268040Y217238D01*
X267922Y216969D01*
X267810Y216698D01*
X267705Y216424D01*
X267606Y216148D01*
X267514Y215869D01*
X267429Y215588D01*
X267350Y215306D01*
X267277Y215022D01*
X267212Y214736D01*
X267153Y214448D01*
X267101Y214159D01*
X267056Y213870D01*
X267017Y213579D01*
X266986Y213287D01*
X266961Y212995D01*
X266943Y212702D01*
X266932Y212409D01*
X266928Y212115D01*
X266472Y212115D01*
X266471Y212115D01*
X266475Y212420D01*
X266487Y212724D01*
X266505Y213027D01*
X266531Y213330D01*
X266563Y213633D01*
X266603Y213934D01*
X266650Y214235D01*
X266704Y214534D01*
X266765Y214832D01*
X266833Y215129D01*
X266908Y215424D01*
X266990Y215717D01*
X267079Y216008D01*
X267174Y216297D01*
X267277Y216583D01*
X267386Y216867D01*
X267502Y217148D01*
X267624Y217427D01*
X267753Y217703D01*
X267795Y217682D01*
X267667Y217408D01*
X267545Y217130D01*
X267430Y216850D01*
X267321Y216567D01*
X267219Y216281D01*
X267124Y215994D01*
X267035Y215704D01*
X266954Y215412D01*
X266879Y215118D01*
X266811Y214822D01*
X266750Y214526D01*
X266697Y214227D01*
X266650Y213928D01*
X266610Y213627D01*
X266577Y213326D01*
X266552Y213024D01*
X266533Y212721D01*
X266522Y212418D01*
X266518Y212115D01*
X266565Y212115D01*
X266569Y212417D01*
X266580Y212719D01*
X266599Y213021D01*
X266624Y213321D01*
X266657Y213622D01*
X266696Y213921D01*
X266743Y214219D01*
X266796Y214517D01*
X266857Y214813D01*
X266925Y215107D01*
X266999Y215400D01*
X267080Y215690D01*
X267168Y215979D01*
X267263Y216266D01*
X267365Y216550D01*
X267473Y216832D01*
X267588Y217112D01*
X267710Y217388D01*
X267837Y217662D01*
X267880Y217641D01*
X267752Y217369D01*
X267631Y217093D01*
X267517Y216815D01*
X267409Y216534D01*
X267308Y216251D01*
X267213Y215965D01*
X267125Y215677D01*
X267044Y215387D01*
X266970Y215096D01*
X266903Y214803D01*
X266843Y214508D01*
X266789Y214212D01*
X266743Y213914D01*
X266703Y213616D01*
X266671Y213317D01*
X266646Y213017D01*
X266627Y212717D01*
X266616Y212416D01*
X266612Y212115D01*
X266659Y212115D01*
X266663Y212415D01*
X266674Y212715D01*
X266693Y213014D01*
X266718Y213313D01*
X266750Y213611D01*
X266789Y213908D01*
X266836Y214204D01*
X266889Y214499D01*
X266949Y214793D01*
X267016Y215085D01*
X267090Y215375D01*
X267171Y215664D01*
X267258Y215951D01*
X267352Y216235D01*
X267453Y216518D01*
X267561Y216797D01*
X267675Y217075D01*
X267795Y217349D01*
X267922Y217621D01*
X267964Y217600D01*
X267838Y217330D01*
X267718Y217056D01*
X267604Y216780D01*
X267497Y216501D01*
X267397Y216220D01*
X267303Y215936D01*
X267216Y215651D01*
X267135Y215363D01*
X267062Y215074D01*
X266995Y214783D01*
X266935Y214490D01*
X266882Y214196D01*
X266836Y213901D01*
X266797Y213605D01*
X266765Y213308D01*
X266739Y213010D01*
X266721Y212712D01*
X266710Y212414D01*
X266706Y212115D01*
X266753Y212115D01*
X266757Y212413D01*
X266768Y212710D01*
X266786Y213007D01*
X266811Y213304D01*
X266843Y213599D01*
X266882Y213894D01*
X266928Y214188D01*
X266981Y214481D01*
X267041Y214773D01*
X267107Y215063D01*
X267181Y215351D01*
X267261Y215638D01*
X267348Y215922D01*
X267441Y216205D01*
X267541Y216485D01*
X267648Y216763D01*
X267761Y217038D01*
X267881Y217310D01*
X268007Y217580D01*
X268049Y217559D01*
X267923Y217291D01*
X267804Y217019D01*
X267691Y216745D01*
X267585Y216468D01*
X267485Y216189D01*
X267392Y215908D01*
X267306Y215624D01*
X267226Y215339D01*
X267153Y215052D01*
X267087Y214763D01*
X267027Y214472D01*
X266975Y214181D01*
X266929Y213888D01*
X266890Y213594D01*
X266858Y213299D01*
X266833Y213004D01*
X266815Y212708D01*
X266804Y212412D01*
X266800Y212115D01*
X266847Y212115D01*
X266851Y212411D01*
X266862Y212706D01*
X266880Y213000D01*
X266905Y213295D01*
X266937Y213588D01*
X266975Y213881D01*
X267021Y214173D01*
X267073Y214463D01*
X267133Y214753D01*
X267199Y215041D01*
X267271Y215327D01*
X267351Y215611D01*
X267437Y215894D01*
X267530Y216174D01*
X267629Y216452D01*
X267735Y216728D01*
X267847Y217001D01*
X267966Y217271D01*
X268091Y217539D01*
X268134Y217518D01*
X268009Y217252D01*
X267891Y216982D01*
X267779Y216710D01*
X267673Y216436D01*
X267574Y216159D01*
X267482Y215879D01*
X267396Y215598D01*
X267317Y215315D01*
X267244Y215030D01*
X267179Y214743D01*
X267120Y214455D01*
X267067Y214165D01*
X267022Y213874D01*
X266983Y213583D01*
X266952Y213290D01*
X266927Y212997D01*
X266909Y212703D01*
X266898Y212409D01*
X266894Y212115D01*
X292328Y212115D02*
X291871Y212115D01*
X291872Y212115D02*
X291868Y212409D01*
X291857Y212702D01*
X291839Y212995D01*
X291814Y213287D01*
X291783Y213579D01*
X291744Y213870D01*
X291699Y214159D01*
X291647Y214448D01*
X291588Y214736D01*
X291523Y215022D01*
X291450Y215306D01*
X291371Y215588D01*
X291286Y215869D01*
X291194Y216148D01*
X291095Y216424D01*
X290990Y216698D01*
X290878Y216969D01*
X290760Y217238D01*
X290636Y217503D01*
X291047Y217702D01*
X291047Y217703D01*
X291176Y217427D01*
X291298Y217148D01*
X291414Y216867D01*
X291523Y216583D01*
X291626Y216297D01*
X291721Y216008D01*
X291810Y215717D01*
X291892Y215424D01*
X291967Y215129D01*
X292035Y214832D01*
X292096Y214534D01*
X292150Y214235D01*
X292197Y213934D01*
X292237Y213633D01*
X292269Y213330D01*
X292295Y213027D01*
X292313Y212724D01*
X292325Y212420D01*
X292329Y212115D01*
X292282Y212115D01*
X292278Y212418D01*
X292267Y212721D01*
X292248Y213024D01*
X292223Y213326D01*
X292190Y213627D01*
X292150Y213928D01*
X292103Y214227D01*
X292050Y214526D01*
X291989Y214822D01*
X291921Y215118D01*
X291846Y215412D01*
X291765Y215704D01*
X291676Y215994D01*
X291581Y216281D01*
X291479Y216567D01*
X291370Y216850D01*
X291255Y217130D01*
X291133Y217408D01*
X291005Y217682D01*
X290963Y217662D01*
X291090Y217388D01*
X291212Y217112D01*
X291327Y216832D01*
X291435Y216550D01*
X291537Y216266D01*
X291632Y215979D01*
X291720Y215690D01*
X291801Y215400D01*
X291875Y215107D01*
X291943Y214813D01*
X292004Y214517D01*
X292057Y214219D01*
X292104Y213921D01*
X292143Y213622D01*
X292176Y213321D01*
X292201Y213021D01*
X292220Y212719D01*
X292231Y212417D01*
X292235Y212115D01*
X292188Y212115D01*
X292184Y212416D01*
X292173Y212717D01*
X292154Y213017D01*
X292129Y213317D01*
X292097Y213616D01*
X292057Y213914D01*
X292011Y214212D01*
X291957Y214508D01*
X291897Y214803D01*
X291830Y215096D01*
X291756Y215387D01*
X291675Y215677D01*
X291587Y215965D01*
X291492Y216251D01*
X291391Y216534D01*
X291283Y216815D01*
X291169Y217093D01*
X291048Y217369D01*
X290920Y217641D01*
X290878Y217621D01*
X291005Y217349D01*
X291125Y217075D01*
X291239Y216797D01*
X291347Y216518D01*
X291448Y216235D01*
X291542Y215951D01*
X291629Y215664D01*
X291710Y215375D01*
X291784Y215085D01*
X291851Y214793D01*
X291911Y214499D01*
X291964Y214204D01*
X292011Y213908D01*
X292050Y213611D01*
X292082Y213313D01*
X292107Y213014D01*
X292126Y212715D01*
X292137Y212415D01*
X292141Y212115D01*
X292094Y212115D01*
X292090Y212414D01*
X292079Y212712D01*
X292061Y213010D01*
X292035Y213308D01*
X292003Y213605D01*
X291964Y213901D01*
X291918Y214196D01*
X291865Y214490D01*
X291805Y214783D01*
X291738Y215074D01*
X291665Y215363D01*
X291584Y215651D01*
X291497Y215936D01*
X291403Y216220D01*
X291303Y216501D01*
X291196Y216780D01*
X291082Y217056D01*
X290962Y217330D01*
X290836Y217600D01*
X290793Y217580D01*
X290919Y217310D01*
X291039Y217038D01*
X291152Y216763D01*
X291259Y216485D01*
X291359Y216205D01*
X291452Y215922D01*
X291539Y215638D01*
X291619Y215351D01*
X291693Y215063D01*
X291759Y214773D01*
X291819Y214481D01*
X291872Y214188D01*
X291918Y213894D01*
X291957Y213599D01*
X291989Y213304D01*
X292014Y213007D01*
X292032Y212710D01*
X292043Y212413D01*
X292047Y212115D01*
X292000Y212115D01*
X291996Y212412D01*
X291985Y212708D01*
X291967Y213004D01*
X291942Y213299D01*
X291910Y213594D01*
X291871Y213888D01*
X291825Y214181D01*
X291773Y214472D01*
X291713Y214763D01*
X291647Y215052D01*
X291574Y215339D01*
X291494Y215624D01*
X291408Y215908D01*
X291315Y216189D01*
X291215Y216468D01*
X291109Y216745D01*
X290996Y217019D01*
X290877Y217291D01*
X290751Y217559D01*
X290709Y217539D01*
X290834Y217271D01*
X290953Y217001D01*
X291065Y216728D01*
X291171Y216452D01*
X291270Y216174D01*
X291363Y215894D01*
X291449Y215611D01*
X291529Y215327D01*
X291601Y215041D01*
X291667Y214753D01*
X291727Y214463D01*
X291779Y214173D01*
X291825Y213881D01*
X291863Y213588D01*
X291895Y213295D01*
X291920Y213000D01*
X291938Y212706D01*
X291949Y212411D01*
X291953Y212115D01*
X291906Y212115D01*
X291902Y212409D01*
X291891Y212703D01*
X291873Y212997D01*
X291848Y213290D01*
X291817Y213583D01*
X291778Y213874D01*
X291733Y214165D01*
X291680Y214455D01*
X291621Y214743D01*
X291556Y215030D01*
X291483Y215315D01*
X291404Y215598D01*
X291318Y215879D01*
X291226Y216159D01*
X291127Y216436D01*
X291021Y216710D01*
X290909Y216982D01*
X290791Y217252D01*
X290666Y217518D01*
D15*
X267970Y234950D02*
X257810Y234950D01*
X257710Y234948D01*
X257611Y234942D01*
X257511Y234932D01*
X257413Y234919D01*
X257314Y234901D01*
X257217Y234880D01*
X257121Y234855D01*
X257025Y234826D01*
X256931Y234793D01*
X256838Y234757D01*
X256747Y234717D01*
X256657Y234673D01*
X256569Y234626D01*
X256483Y234576D01*
X256399Y234522D01*
X256317Y234465D01*
X256238Y234405D01*
X256160Y234341D01*
X256086Y234275D01*
X256014Y234206D01*
X255945Y234134D01*
X255879Y234060D01*
X255815Y233982D01*
X255755Y233903D01*
X255698Y233821D01*
X255644Y233737D01*
X255594Y233651D01*
X255547Y233563D01*
X255503Y233473D01*
X255463Y233382D01*
X255427Y233289D01*
X255394Y233195D01*
X255365Y233099D01*
X255340Y233003D01*
X255319Y232906D01*
X255301Y232807D01*
X255288Y232709D01*
X255278Y232609D01*
X255272Y232510D01*
X255270Y232410D01*
D16*
X299720Y212090D02*
X299720Y143510D01*
D15*
X303530Y123190D02*
X303530Y232410D01*
X303530Y123190D02*
X303528Y123090D01*
X303522Y122991D01*
X303512Y122891D01*
X303499Y122793D01*
X303481Y122694D01*
X303460Y122597D01*
X303435Y122501D01*
X303406Y122405D01*
X303373Y122311D01*
X303337Y122218D01*
X303297Y122127D01*
X303253Y122037D01*
X303206Y121949D01*
X303156Y121863D01*
X303102Y121779D01*
X303045Y121697D01*
X302985Y121618D01*
X302921Y121540D01*
X302855Y121466D01*
X302786Y121394D01*
X302714Y121325D01*
X302640Y121259D01*
X302562Y121195D01*
X302483Y121135D01*
X302401Y121078D01*
X302317Y121024D01*
X302231Y120974D01*
X302143Y120927D01*
X302053Y120883D01*
X301962Y120843D01*
X301869Y120807D01*
X301775Y120774D01*
X301679Y120745D01*
X301583Y120720D01*
X301486Y120699D01*
X301387Y120681D01*
X301289Y120668D01*
X301189Y120658D01*
X301090Y120652D01*
X300990Y120650D01*
X303530Y232410D02*
X303528Y232510D01*
X303522Y232609D01*
X303512Y232709D01*
X303499Y232807D01*
X303481Y232906D01*
X303460Y233003D01*
X303435Y233099D01*
X303406Y233195D01*
X303373Y233289D01*
X303337Y233382D01*
X303297Y233473D01*
X303253Y233563D01*
X303206Y233651D01*
X303156Y233737D01*
X303102Y233821D01*
X303045Y233903D01*
X302985Y233982D01*
X302921Y234060D01*
X302855Y234134D01*
X302786Y234206D01*
X302714Y234275D01*
X302640Y234341D01*
X302562Y234405D01*
X302483Y234465D01*
X302401Y234522D01*
X302317Y234576D01*
X302231Y234626D01*
X302143Y234673D01*
X302053Y234717D01*
X301962Y234757D01*
X301869Y234793D01*
X301775Y234826D01*
X301679Y234855D01*
X301583Y234880D01*
X301486Y234901D01*
X301387Y234919D01*
X301289Y234932D01*
X301189Y234942D01*
X301090Y234948D01*
X300990Y234950D01*
X285750Y180340D02*
X273050Y180340D01*
X273050Y175260D01*
X285750Y175260D01*
X285750Y180340D01*
X285750Y184150D02*
X279400Y184150D01*
X273050Y184150D01*
D16*
X279400Y184150D02*
X279400Y187960D01*
D15*
X279400Y171450D02*
X285750Y171450D01*
X279400Y171450D02*
X273050Y171450D01*
D16*
X279400Y171450D02*
X279400Y167640D01*
M02*
