G04 EAGLE Gerber RS-274X export*
G75*
%MOMM*%
%FSLAX34Y34*%
%LPD*%
%INSoldermask Bottom*%
%IPPOS*%
%AMOC8*
5,1,8,0,0,1.08239X$1,22.5*%
G01*
%ADD10C,2.082800*%
%ADD11C,1.053200*%
%ADD12C,0.959600*%


D10*
X622300Y381000D03*
X596900Y381000D03*
X571500Y381000D03*
X546100Y381000D03*
X63500Y76200D03*
X88900Y76200D03*
X114300Y76200D03*
X139700Y76200D03*
X165100Y76200D03*
X190500Y76200D03*
X215900Y76200D03*
X241300Y76200D03*
X101600Y279400D03*
X127000Y279400D03*
X152400Y279400D03*
X177800Y279400D03*
X203200Y279400D03*
X228600Y279400D03*
X101600Y254000D03*
X127000Y254000D03*
X152400Y254000D03*
X177800Y254000D03*
X203200Y254000D03*
X228600Y254000D03*
X673100Y266700D03*
X673100Y241300D03*
X673100Y215900D03*
X673100Y190500D03*
X673100Y165100D03*
X673100Y139700D03*
X673100Y114300D03*
X673100Y88900D03*
X419100Y88900D03*
X419100Y114300D03*
X419100Y139700D03*
X419100Y165100D03*
X419100Y190500D03*
X419100Y215900D03*
X419100Y241300D03*
X419100Y266700D03*
X698500Y190500D03*
X698500Y215900D03*
X698500Y241300D03*
X698500Y266700D03*
X520700Y381000D03*
X495300Y381000D03*
X469900Y381000D03*
X444500Y381000D03*
X63500Y520700D03*
X88900Y520700D03*
X127000Y495300D03*
X127000Y520700D03*
X152400Y495300D03*
X152400Y520700D03*
X177800Y495300D03*
X177800Y520700D03*
X203200Y495300D03*
X203200Y520700D03*
X673100Y457200D03*
X698500Y457200D03*
X673100Y431800D03*
X698500Y431800D03*
X673100Y406400D03*
X698500Y406400D03*
X698500Y482600D03*
X673100Y482600D03*
X698500Y508000D03*
X673100Y508000D03*
X698500Y533400D03*
X673100Y533400D03*
X368300Y457200D03*
X393700Y457200D03*
X368300Y431800D03*
X393700Y431800D03*
X368300Y406400D03*
X393700Y406400D03*
X63500Y177800D03*
X38100Y177800D03*
X63500Y203200D03*
X38100Y203200D03*
X63500Y228600D03*
X38100Y228600D03*
X114300Y50800D03*
X139700Y50800D03*
X165100Y50800D03*
X190500Y50800D03*
X215900Y50800D03*
X241300Y50800D03*
D11*
X103900Y419100D03*
X73900Y419100D03*
X745250Y76200D03*
X715250Y76200D03*
D12*
X628650Y506730D03*
X441960Y455930D03*
X406400Y533400D03*
X441960Y410210D03*
X621030Y417830D03*
X152400Y330200D03*
X173990Y386080D03*
X685800Y38100D03*
X266700Y76200D03*
X410210Y387350D03*
X402590Y495300D03*
X304800Y368300D03*
X659130Y317500D03*
X574040Y346710D03*
X736600Y317500D03*
X736600Y394970D03*
X780318Y448310D03*
X774700Y355600D03*
X774700Y381000D03*
X763270Y500380D03*
X419100Y541558D03*
X312420Y419100D03*
X419100Y508000D03*
X347980Y511810D03*
X731520Y495300D03*
X125730Y379730D03*
X166370Y422910D03*
X360680Y35560D03*
X652780Y35560D03*
X241300Y342900D03*
X228600Y381000D03*
X175260Y331470D03*
X43152Y383540D03*
X114300Y355600D03*
X139700Y419100D03*
X215900Y342900D03*
X215900Y393700D03*
X444500Y520860D03*
X443230Y438150D03*
X431800Y495300D03*
X429260Y425450D03*
X444500Y546100D03*
X63500Y304800D03*
X417830Y341630D03*
X458470Y400050D03*
X652780Y417830D03*
X393700Y370840D03*
X38100Y317500D03*
X152400Y355600D03*
X736600Y419100D03*
X631190Y464820D03*
X317500Y38100D03*
X22860Y254000D03*
X25400Y114300D03*
X288290Y25372D03*
X304800Y101600D03*
X292100Y292100D03*
X185420Y142240D03*
X88900Y101600D03*
X88900Y177800D03*
X101600Y215900D03*
X203200Y165100D03*
X80010Y266700D03*
X48768Y264668D03*
X252730Y13942D03*
X73660Y34290D03*
X38100Y88900D03*
X140970Y203200D03*
X127000Y215900D03*
X292100Y76200D03*
X190500Y25400D03*
X177800Y177800D03*
X215900Y139700D03*
X321310Y99060D03*
X330200Y298450D03*
X238760Y123190D03*
X245884Y145100D03*
X213360Y187960D03*
X194310Y189230D03*
X203200Y227330D03*
X177800Y228600D03*
X450850Y68580D03*
X730250Y104450D03*
X740410Y177800D03*
X723900Y165100D03*
M02*
