G04 EAGLE Gerber RS-274X export*
G75*
%MOMM*%
%FSLAX34Y34*%
%LPD*%
%INBottom Copper*%
%IPPOS*%
%AMOC8*
5,1,8,0,0,1.08239X$1,22.5*%
G01*
%ADD10C,1.879600*%
%ADD11C,0.756400*%
%ADD12C,0.254000*%


D10*
X622300Y381000D03*
X596900Y381000D03*
X571500Y381000D03*
X546100Y381000D03*
X63500Y76200D03*
X88900Y76200D03*
X114300Y76200D03*
X139700Y76200D03*
X165100Y76200D03*
X190500Y76200D03*
X215900Y76200D03*
X241300Y76200D03*
X101600Y279400D03*
X127000Y279400D03*
X152400Y279400D03*
X177800Y279400D03*
X203200Y279400D03*
X228600Y279400D03*
X101600Y254000D03*
X127000Y254000D03*
X152400Y254000D03*
X177800Y254000D03*
X203200Y254000D03*
X228600Y254000D03*
X673100Y266700D03*
X673100Y241300D03*
X673100Y215900D03*
X673100Y190500D03*
X673100Y165100D03*
X673100Y139700D03*
X673100Y114300D03*
X673100Y88900D03*
X419100Y88900D03*
X419100Y114300D03*
X419100Y139700D03*
X419100Y165100D03*
X419100Y190500D03*
X419100Y215900D03*
X419100Y241300D03*
X419100Y266700D03*
X698500Y190500D03*
X698500Y215900D03*
X698500Y241300D03*
X698500Y266700D03*
X520700Y381000D03*
X495300Y381000D03*
X469900Y381000D03*
X444500Y381000D03*
X63500Y520700D03*
X88900Y520700D03*
X127000Y495300D03*
X127000Y520700D03*
X152400Y495300D03*
X152400Y520700D03*
X177800Y495300D03*
X177800Y520700D03*
X203200Y495300D03*
X203200Y520700D03*
X673100Y457200D03*
X698500Y457200D03*
X673100Y431800D03*
X698500Y431800D03*
X673100Y406400D03*
X698500Y406400D03*
X698500Y482600D03*
X673100Y482600D03*
X698500Y508000D03*
X673100Y508000D03*
X698500Y533400D03*
X673100Y533400D03*
X368300Y457200D03*
X393700Y457200D03*
X368300Y431800D03*
X393700Y431800D03*
X368300Y406400D03*
X393700Y406400D03*
X63500Y177800D03*
X38100Y177800D03*
X63500Y203200D03*
X38100Y203200D03*
X63500Y228600D03*
X38100Y228600D03*
X114300Y50800D03*
X139700Y50800D03*
X165100Y50800D03*
X190500Y50800D03*
X215900Y50800D03*
X241300Y50800D03*
D11*
X628650Y506730D03*
D12*
X655320Y533400D01*
X673100Y533400D01*
D11*
X441960Y455930D03*
D12*
X441960Y501650D01*
X410210Y533400D01*
X406400Y533400D01*
D11*
X406400Y533400D03*
X441960Y410210D03*
D12*
X449580Y417830D02*
X621030Y417830D01*
X449580Y417830D02*
X441960Y410210D01*
D11*
X621030Y417830D03*
X152400Y330200D03*
D12*
X173990Y351790D02*
X173990Y386080D01*
X173990Y351790D02*
X152400Y330200D01*
D11*
X173990Y386080D03*
X685800Y38100D03*
X266700Y76200D03*
X410210Y387350D03*
D12*
X410210Y487680D02*
X402590Y495300D01*
X410210Y487680D02*
X410210Y387350D01*
D11*
X402590Y495300D03*
D12*
X279400Y107950D02*
X279400Y88900D01*
X266700Y76200D01*
X660400Y12700D02*
X685800Y38100D01*
X322580Y12700D02*
X304800Y30480D01*
X322580Y12700D02*
X660400Y12700D01*
X304800Y30480D02*
X304800Y82550D01*
X279400Y107950D01*
X279400Y342900D02*
X304800Y368300D01*
D11*
X304800Y368300D03*
D12*
X279400Y342900D02*
X279400Y107950D01*
X629920Y346710D02*
X659130Y317500D01*
D11*
X659130Y317500D03*
D12*
X629920Y346710D02*
X574040Y346710D01*
D11*
X574040Y346710D03*
X736600Y317500D03*
D12*
X736600Y394970D01*
D11*
X736600Y394970D03*
X780318Y448310D03*
D12*
X784128Y444500D01*
X784128Y365028D01*
X774700Y355600D01*
D11*
X774700Y355600D03*
X774700Y381000D03*
D12*
X763270Y411480D02*
X763270Y500380D01*
D11*
X763270Y500380D03*
D12*
X774700Y400050D02*
X774700Y381000D01*
X774700Y400050D02*
X763270Y411480D01*
D11*
X419100Y541558D03*
D12*
X416560Y541558D01*
X415290Y542828D01*
X352328Y542828D01*
X312420Y502920D02*
X312420Y419100D01*
D11*
X312420Y419100D03*
D12*
X312420Y502920D02*
X352328Y542828D01*
X419100Y541558D02*
X427258Y533400D01*
X454660Y533400D01*
X653447Y495300D02*
X685800Y495300D01*
X653447Y495300D02*
X643033Y484886D01*
X503174Y484886D02*
X454660Y533400D01*
X503174Y484886D02*
X643033Y484886D01*
X685800Y495300D02*
X698500Y508000D01*
X444500Y381000D02*
X419100Y406400D01*
X419100Y508000D01*
D11*
X419100Y508000D03*
X347980Y511810D03*
D12*
X347980Y396240D01*
X388620Y355600D01*
X708660Y355600D01*
D11*
X731520Y495300D03*
D12*
X725424Y489204D01*
X725424Y372364D01*
X708660Y355600D01*
D11*
X125730Y379730D03*
D12*
X125730Y382270D02*
X166370Y422910D01*
X125730Y382270D02*
X125730Y379730D01*
D11*
X166370Y422910D03*
X360680Y35560D03*
D12*
X652780Y35560D01*
D11*
X652780Y35560D03*
X241300Y342900D03*
D12*
X228600Y355600D01*
X228600Y381000D01*
D11*
X228600Y381000D03*
X175260Y331470D03*
D12*
X193040Y349250D02*
X193040Y480060D01*
X193040Y349250D02*
X175260Y331470D01*
X193040Y480060D02*
X177800Y495300D01*
D11*
X43152Y383540D03*
D12*
X43152Y436852D02*
X101600Y495300D01*
X127000Y495300D01*
X43152Y436852D02*
X43152Y383540D01*
D11*
X114300Y355600D03*
D12*
X114300Y336550D02*
X130810Y320040D01*
X114300Y336550D02*
X114300Y355600D01*
X130810Y320040D02*
X189230Y320040D01*
X203200Y334010D01*
X203200Y495300D01*
X152400Y495300D02*
X152400Y431800D01*
X139700Y419100D01*
D11*
X139700Y419100D03*
X215900Y342900D03*
D12*
X215900Y393700D01*
D11*
X215900Y393700D03*
D12*
X685800Y469900D02*
X698500Y482600D01*
X685800Y469900D02*
X646430Y469900D01*
X641350Y474980D01*
X498000Y474980D01*
D11*
X444500Y520860D03*
D12*
X452120Y520860D02*
X498000Y474980D01*
X452120Y520860D02*
X444500Y520860D01*
D11*
X443230Y438150D03*
D12*
X685800Y444500D02*
X698500Y457200D01*
X713740Y518160D02*
X698500Y533400D01*
X713740Y472440D02*
X698500Y457200D01*
X713740Y472440D02*
X713740Y518160D01*
X685800Y444500D02*
X449580Y444500D01*
X443230Y438150D01*
D11*
X431800Y495300D03*
X429260Y425450D03*
D12*
X429260Y492760D02*
X431800Y495300D01*
X429260Y492760D02*
X429260Y425450D01*
D11*
X444500Y546100D03*
D12*
X509270Y495300D02*
X635000Y495300D01*
X647700Y508000D02*
X673100Y508000D01*
X647700Y508000D02*
X635000Y495300D01*
X458470Y546100D02*
X444500Y546100D01*
X458470Y546100D02*
X509270Y495300D01*
D11*
X63500Y304800D03*
D12*
X70866Y312166D01*
X227178Y312166D01*
X296012Y381000D01*
X322580Y381000D02*
X361950Y341630D01*
X417830Y341630D01*
D11*
X417830Y341630D03*
X458470Y400050D03*
D12*
X619760Y400050D01*
X651510Y431800D01*
X673100Y431800D01*
X322580Y381000D02*
X296012Y381000D01*
D11*
X652780Y417830D03*
D12*
X652780Y396240D01*
X661670Y387350D01*
X704090Y431800D02*
X716790Y419100D01*
X704090Y431800D02*
X698500Y431800D01*
X706120Y387350D02*
X661670Y387350D01*
X706120Y387350D02*
X716790Y398020D01*
X716790Y419100D01*
X661670Y387350D02*
X638810Y364490D01*
X400050Y364490D01*
X393700Y370840D01*
D11*
X393700Y370840D03*
X38100Y317500D03*
D12*
X38100Y342900D01*
X63500Y368300D01*
X139700Y368300D02*
X152400Y355600D01*
D11*
X152400Y355600D03*
D12*
X139700Y368300D02*
X63500Y368300D01*
D11*
X736600Y419100D03*
D12*
X660400Y292100D02*
X647700Y279400D01*
X647700Y203200D01*
X497840Y53340D01*
X638810Y457200D02*
X673100Y457200D01*
X638810Y457200D02*
X631190Y464820D01*
D11*
X631190Y464820D03*
X317500Y38100D03*
D12*
X332740Y53340D01*
X497840Y53340D01*
X755650Y400050D02*
X736600Y419100D01*
X755650Y400050D02*
X755650Y308610D01*
X739140Y292100D01*
X660400Y292100D01*
D11*
X22860Y254000D03*
D12*
X101600Y254000D01*
D11*
X25400Y114300D03*
D12*
X38100Y127000D01*
X38100Y177800D01*
X190500Y50800D02*
X215900Y25400D01*
X288262Y25400D02*
X288290Y25372D01*
X288262Y25400D02*
X215900Y25400D01*
D11*
X288290Y25372D03*
X304800Y101600D03*
D12*
X304800Y279400D01*
X292100Y292100D01*
D11*
X292100Y292100D03*
X185420Y142240D03*
D12*
X129540Y142240D01*
X88900Y101600D01*
D11*
X88900Y101600D03*
D12*
X88900Y177800D01*
D11*
X88900Y177800D03*
D12*
X76200Y215900D02*
X63500Y228600D01*
X76200Y215900D02*
X101600Y215900D01*
D11*
X101600Y215900D03*
X203200Y165100D03*
D12*
X127000Y241300D02*
X127000Y254000D01*
X127000Y241300D02*
X203200Y165100D01*
D11*
X80010Y266700D03*
D12*
X50800Y266700D01*
X48768Y264668D01*
D11*
X48768Y264668D03*
X252730Y13942D03*
D12*
X94008Y13942D01*
X73660Y34290D01*
D11*
X73660Y34290D03*
X38100Y88900D03*
D12*
X63500Y114300D01*
X63500Y177800D01*
D11*
X140970Y203200D03*
D12*
X63500Y203200D01*
X25400Y241300D02*
X12700Y228600D01*
X25400Y241300D02*
X91440Y241300D01*
X116840Y215900D02*
X127000Y215900D01*
X116840Y215900D02*
X91440Y241300D01*
D11*
X127000Y215900D03*
D12*
X114300Y50800D02*
X50800Y50800D01*
X12700Y88900D01*
X12700Y228600D01*
D11*
X292100Y76200D03*
D12*
X266700Y38100D02*
X228600Y38100D01*
X215900Y50800D01*
X266700Y38100D02*
X292100Y63500D01*
X292100Y76200D01*
X190500Y25400D02*
X165100Y50800D01*
D11*
X190500Y25400D03*
X177800Y177800D03*
D12*
X203200Y127000D02*
X215900Y114300D01*
X215900Y76200D01*
X203200Y127000D02*
X203200Y152400D01*
X177800Y177800D01*
D11*
X215900Y139700D03*
D12*
X215900Y128270D02*
X241300Y102870D01*
X215900Y128270D02*
X215900Y139700D01*
X241300Y102870D02*
X241300Y76200D01*
D11*
X321310Y99060D03*
X330200Y298450D03*
D12*
X330200Y107950D01*
X321310Y99060D01*
D11*
X238760Y123190D03*
D12*
X266700Y151130D01*
X266700Y292100D01*
X254000Y304800D01*
X139700Y304800D01*
X127000Y292100D01*
X127000Y279400D01*
D11*
X245884Y145100D03*
D12*
X254000Y153216D01*
X254000Y279400D01*
X236220Y297180D01*
X170180Y297180D01*
X152400Y279400D01*
X228600Y279400D02*
X245110Y262890D01*
X245110Y219710D02*
X213360Y187960D01*
D11*
X213360Y187960D03*
D12*
X245110Y219710D02*
X245110Y262890D01*
D11*
X194310Y189230D03*
D12*
X203200Y198120D01*
D11*
X203200Y227330D03*
D12*
X203200Y198120D01*
D11*
X177800Y228600D03*
D12*
X186690Y237490D01*
X217170Y237490D01*
X228600Y248920D01*
X228600Y254000D01*
D11*
X450850Y68580D03*
D12*
X450850Y184150D01*
X419100Y215900D01*
X647700Y139700D02*
X673100Y165100D01*
X647700Y139700D02*
X647700Y76200D01*
D11*
X730250Y104450D03*
D12*
X717680Y91880D02*
X708755Y91880D01*
X717680Y91880D02*
X730250Y104450D01*
X708755Y91880D02*
X685800Y68925D01*
X654975Y68925D02*
X647700Y76200D01*
X654975Y68925D02*
X685800Y68925D01*
D11*
X740410Y177800D03*
D12*
X711200Y177800D01*
X673100Y139700D01*
X673100Y114300D02*
X685800Y114300D01*
X723900Y152400D02*
X723900Y165100D01*
D11*
X723900Y165100D03*
D12*
X723900Y152400D02*
X685800Y114300D01*
X685800Y88900D02*
X673100Y88900D01*
X758190Y161290D02*
X758190Y181610D01*
X749300Y190500D01*
X698500Y190500D01*
X758190Y161290D02*
X685800Y88900D01*
M02*
