G04 EAGLE Gerber RS-274X export*
G75*
%MOMM*%
%FSLAX34Y34*%
%LPD*%
%IN*%
%IPPOS*%
%AMOC8*
5,1,8,0,0,1.08239X$1,22.5*%
G01*
%ADD10C,0.254000*%


D10*
X0Y0D02*
X796800Y0D01*
X796800Y555500D01*
X0Y555500D01*
X0Y0D01*
X108150Y418821D02*
X108077Y418269D01*
X107933Y417731D01*
X107720Y417216D01*
X107441Y416734D01*
X107102Y416292D01*
X106708Y415898D01*
X106266Y415559D01*
X105784Y415280D01*
X105269Y415067D01*
X104731Y414923D01*
X104179Y414850D01*
X103621Y414850D01*
X103069Y414923D01*
X102531Y415067D01*
X102016Y415280D01*
X101534Y415559D01*
X101092Y415898D01*
X100698Y416292D01*
X100359Y416734D01*
X100080Y417216D01*
X99867Y417731D01*
X99723Y418269D01*
X99650Y418821D01*
X99650Y419379D01*
X99723Y419931D01*
X99867Y420469D01*
X100080Y420984D01*
X100359Y421466D01*
X100698Y421908D01*
X101092Y422302D01*
X101534Y422641D01*
X102016Y422920D01*
X102531Y423133D01*
X103069Y423277D01*
X103621Y423350D01*
X104179Y423350D01*
X104731Y423277D01*
X105269Y423133D01*
X105784Y422920D01*
X106266Y422641D01*
X106708Y422302D01*
X107102Y421908D01*
X107441Y421466D01*
X107720Y420984D01*
X107933Y420469D01*
X108077Y419931D01*
X108150Y419379D01*
X108150Y418821D01*
X78150Y418821D02*
X78077Y418269D01*
X77933Y417731D01*
X77720Y417216D01*
X77441Y416734D01*
X77102Y416292D01*
X76708Y415898D01*
X76266Y415559D01*
X75784Y415280D01*
X75269Y415067D01*
X74731Y414923D01*
X74179Y414850D01*
X73621Y414850D01*
X73069Y414923D01*
X72531Y415067D01*
X72016Y415280D01*
X71534Y415559D01*
X71092Y415898D01*
X70698Y416292D01*
X70359Y416734D01*
X70080Y417216D01*
X69867Y417731D01*
X69723Y418269D01*
X69650Y418821D01*
X69650Y419379D01*
X69723Y419931D01*
X69867Y420469D01*
X70080Y420984D01*
X70359Y421466D01*
X70698Y421908D01*
X71092Y422302D01*
X71534Y422641D01*
X72016Y422920D01*
X72531Y423133D01*
X73069Y423277D01*
X73621Y423350D01*
X74179Y423350D01*
X74731Y423277D01*
X75269Y423133D01*
X75784Y422920D01*
X76266Y422641D01*
X76708Y422302D01*
X77102Y421908D01*
X77441Y421466D01*
X77720Y420984D01*
X77933Y420469D01*
X78077Y419931D01*
X78150Y419379D01*
X78150Y418821D01*
X749500Y75921D02*
X749427Y75369D01*
X749283Y74831D01*
X749070Y74316D01*
X748791Y73834D01*
X748452Y73392D01*
X748058Y72998D01*
X747616Y72659D01*
X747134Y72380D01*
X746619Y72167D01*
X746081Y72023D01*
X745529Y71950D01*
X744971Y71950D01*
X744419Y72023D01*
X743881Y72167D01*
X743366Y72380D01*
X742884Y72659D01*
X742442Y72998D01*
X742048Y73392D01*
X741709Y73834D01*
X741430Y74316D01*
X741217Y74831D01*
X741073Y75369D01*
X741000Y75921D01*
X741000Y76479D01*
X741073Y77031D01*
X741217Y77569D01*
X741430Y78084D01*
X741709Y78566D01*
X742048Y79008D01*
X742442Y79402D01*
X742884Y79741D01*
X743366Y80020D01*
X743881Y80233D01*
X744419Y80377D01*
X744971Y80450D01*
X745529Y80450D01*
X746081Y80377D01*
X746619Y80233D01*
X747134Y80020D01*
X747616Y79741D01*
X748058Y79402D01*
X748452Y79008D01*
X748791Y78566D01*
X749070Y78084D01*
X749283Y77569D01*
X749427Y77031D01*
X749500Y76479D01*
X749500Y75921D01*
X719500Y75921D02*
X719427Y75369D01*
X719283Y74831D01*
X719070Y74316D01*
X718791Y73834D01*
X718452Y73392D01*
X718058Y72998D01*
X717616Y72659D01*
X717134Y72380D01*
X716619Y72167D01*
X716081Y72023D01*
X715529Y71950D01*
X714971Y71950D01*
X714419Y72023D01*
X713881Y72167D01*
X713366Y72380D01*
X712884Y72659D01*
X712442Y72998D01*
X712048Y73392D01*
X711709Y73834D01*
X711430Y74316D01*
X711217Y74831D01*
X711073Y75369D01*
X711000Y75921D01*
X711000Y76479D01*
X711073Y77031D01*
X711217Y77569D01*
X711430Y78084D01*
X711709Y78566D01*
X712048Y79008D01*
X712442Y79402D01*
X712884Y79741D01*
X713366Y80020D01*
X713881Y80233D01*
X714419Y80377D01*
X714971Y80450D01*
X715529Y80450D01*
X716081Y80377D01*
X716619Y80233D01*
X717134Y80020D01*
X717616Y79741D01*
X718058Y79402D01*
X718452Y79008D01*
X718791Y78566D01*
X719070Y78084D01*
X719283Y77569D01*
X719427Y77031D01*
X719500Y76479D01*
X719500Y75921D01*
M02*
