G04 EAGLE Gerber RS-274X export*
G75*
%MOMM*%
%FSLAX34Y34*%
%LPD*%
%INSilkscreen Bottom*%
%IPPOS*%
%AMOC8*
5,1,8,0,0,1.08239X$1,22.5*%
G01*
%ADD10C,0.177800*%
%ADD11C,0.203200*%


D10*
X306761Y467995D02*
X306761Y447929D01*
X304532Y447929D02*
X308991Y447929D01*
X308991Y467995D02*
X304532Y467995D01*
X297008Y461306D02*
X297008Y447929D01*
X297008Y461306D02*
X291434Y461306D01*
X291320Y461304D01*
X291206Y461298D01*
X291092Y461288D01*
X290979Y461275D01*
X290866Y461257D01*
X290754Y461236D01*
X290642Y461211D01*
X290532Y461182D01*
X290422Y461149D01*
X290314Y461113D01*
X290207Y461073D01*
X290102Y461029D01*
X289998Y460982D01*
X289896Y460931D01*
X289795Y460877D01*
X289697Y460819D01*
X289600Y460758D01*
X289506Y460694D01*
X289413Y460627D01*
X289324Y460556D01*
X289236Y460482D01*
X289152Y460406D01*
X289069Y460327D01*
X288990Y460244D01*
X288914Y460160D01*
X288840Y460072D01*
X288770Y459983D01*
X288702Y459890D01*
X288638Y459796D01*
X288577Y459700D01*
X288519Y459601D01*
X288465Y459500D01*
X288414Y459398D01*
X288367Y459294D01*
X288323Y459189D01*
X288283Y459082D01*
X288247Y458974D01*
X288214Y458864D01*
X288185Y458754D01*
X288160Y458642D01*
X288139Y458530D01*
X288121Y458417D01*
X288108Y458304D01*
X288098Y458190D01*
X288092Y458076D01*
X288090Y457962D01*
X288090Y447929D01*
X271470Y447929D02*
X271470Y467995D01*
X271470Y447929D02*
X277044Y447929D01*
X277158Y447931D01*
X277272Y447937D01*
X277386Y447947D01*
X277499Y447960D01*
X277612Y447978D01*
X277724Y447999D01*
X277836Y448024D01*
X277946Y448053D01*
X278056Y448086D01*
X278164Y448122D01*
X278271Y448162D01*
X278376Y448206D01*
X278480Y448253D01*
X278582Y448304D01*
X278683Y448358D01*
X278781Y448416D01*
X278878Y448477D01*
X278972Y448541D01*
X279065Y448608D01*
X279154Y448679D01*
X279242Y448753D01*
X279326Y448829D01*
X279409Y448908D01*
X279488Y448991D01*
X279564Y449075D01*
X279638Y449163D01*
X279709Y449252D01*
X279776Y449345D01*
X279840Y449439D01*
X279901Y449536D01*
X279959Y449634D01*
X280013Y449735D01*
X280064Y449837D01*
X280111Y449941D01*
X280155Y450046D01*
X280195Y450153D01*
X280231Y450261D01*
X280264Y450371D01*
X280293Y450481D01*
X280318Y450593D01*
X280339Y450705D01*
X280357Y450818D01*
X280370Y450931D01*
X280380Y451045D01*
X280386Y451159D01*
X280388Y451273D01*
X280388Y457962D01*
X280386Y458076D01*
X280380Y458190D01*
X280370Y458304D01*
X280357Y458417D01*
X280339Y458530D01*
X280318Y458642D01*
X280293Y458754D01*
X280264Y458864D01*
X280231Y458974D01*
X280195Y459082D01*
X280155Y459189D01*
X280111Y459294D01*
X280064Y459398D01*
X280013Y459500D01*
X279959Y459601D01*
X279901Y459699D01*
X279840Y459796D01*
X279776Y459890D01*
X279709Y459983D01*
X279638Y460072D01*
X279564Y460160D01*
X279488Y460244D01*
X279409Y460327D01*
X279326Y460406D01*
X279242Y460482D01*
X279154Y460556D01*
X279065Y460627D01*
X278972Y460694D01*
X278878Y460758D01*
X278781Y460819D01*
X278683Y460877D01*
X278582Y460931D01*
X278480Y460982D01*
X278376Y461029D01*
X278271Y461073D01*
X278164Y461113D01*
X278056Y461149D01*
X277946Y461182D01*
X277836Y461211D01*
X277724Y461236D01*
X277612Y461257D01*
X277499Y461275D01*
X277386Y461288D01*
X277272Y461298D01*
X277158Y461304D01*
X277044Y461306D01*
X271470Y461306D01*
X263639Y456847D02*
X263639Y452388D01*
X263639Y456847D02*
X263637Y456979D01*
X263631Y457111D01*
X263621Y457243D01*
X263608Y457374D01*
X263590Y457505D01*
X263569Y457636D01*
X263543Y457765D01*
X263514Y457894D01*
X263481Y458022D01*
X263445Y458149D01*
X263404Y458275D01*
X263360Y458400D01*
X263312Y458523D01*
X263261Y458645D01*
X263206Y458765D01*
X263147Y458883D01*
X263085Y459000D01*
X263019Y459115D01*
X262951Y459227D01*
X262878Y459338D01*
X262803Y459447D01*
X262724Y459553D01*
X262643Y459657D01*
X262558Y459758D01*
X262470Y459857D01*
X262379Y459953D01*
X262286Y460046D01*
X262190Y460137D01*
X262091Y460225D01*
X261990Y460310D01*
X261886Y460391D01*
X261780Y460470D01*
X261671Y460545D01*
X261560Y460618D01*
X261448Y460686D01*
X261333Y460752D01*
X261216Y460814D01*
X261098Y460873D01*
X260978Y460928D01*
X260856Y460979D01*
X260733Y461027D01*
X260608Y461071D01*
X260482Y461112D01*
X260355Y461148D01*
X260227Y461181D01*
X260098Y461210D01*
X259969Y461236D01*
X259838Y461257D01*
X259707Y461275D01*
X259576Y461288D01*
X259444Y461298D01*
X259312Y461304D01*
X259180Y461306D01*
X259048Y461304D01*
X258916Y461298D01*
X258784Y461288D01*
X258653Y461275D01*
X258522Y461257D01*
X258391Y461236D01*
X258262Y461210D01*
X258133Y461181D01*
X258005Y461148D01*
X257878Y461112D01*
X257752Y461071D01*
X257627Y461027D01*
X257504Y460979D01*
X257382Y460928D01*
X257262Y460873D01*
X257144Y460814D01*
X257027Y460752D01*
X256912Y460686D01*
X256800Y460618D01*
X256689Y460545D01*
X256580Y460470D01*
X256474Y460391D01*
X256370Y460310D01*
X256269Y460225D01*
X256170Y460137D01*
X256074Y460046D01*
X255981Y459953D01*
X255890Y459857D01*
X255802Y459758D01*
X255717Y459657D01*
X255636Y459553D01*
X255557Y459447D01*
X255482Y459338D01*
X255409Y459227D01*
X255341Y459115D01*
X255275Y459000D01*
X255213Y458883D01*
X255154Y458765D01*
X255099Y458645D01*
X255048Y458523D01*
X255000Y458400D01*
X254956Y458275D01*
X254915Y458149D01*
X254879Y458022D01*
X254846Y457894D01*
X254817Y457765D01*
X254791Y457636D01*
X254770Y457505D01*
X254752Y457374D01*
X254739Y457243D01*
X254729Y457111D01*
X254723Y456979D01*
X254721Y456847D01*
X254721Y452388D01*
X254723Y452256D01*
X254729Y452124D01*
X254739Y451992D01*
X254752Y451861D01*
X254770Y451730D01*
X254791Y451599D01*
X254817Y451470D01*
X254846Y451341D01*
X254879Y451213D01*
X254915Y451086D01*
X254956Y450960D01*
X255000Y450835D01*
X255048Y450712D01*
X255099Y450590D01*
X255154Y450470D01*
X255213Y450352D01*
X255275Y450235D01*
X255341Y450120D01*
X255409Y450008D01*
X255482Y449897D01*
X255557Y449788D01*
X255636Y449682D01*
X255717Y449578D01*
X255802Y449477D01*
X255890Y449378D01*
X255981Y449282D01*
X256074Y449189D01*
X256170Y449098D01*
X256269Y449010D01*
X256370Y448925D01*
X256474Y448844D01*
X256580Y448765D01*
X256689Y448690D01*
X256800Y448617D01*
X256912Y448549D01*
X257027Y448483D01*
X257144Y448421D01*
X257262Y448362D01*
X257382Y448307D01*
X257504Y448256D01*
X257627Y448208D01*
X257752Y448164D01*
X257878Y448123D01*
X258005Y448087D01*
X258133Y448054D01*
X258262Y448025D01*
X258391Y447999D01*
X258522Y447978D01*
X258653Y447960D01*
X258784Y447947D01*
X258916Y447937D01*
X259048Y447931D01*
X259180Y447929D01*
X259312Y447931D01*
X259444Y447937D01*
X259576Y447947D01*
X259707Y447960D01*
X259838Y447978D01*
X259969Y447999D01*
X260098Y448025D01*
X260227Y448054D01*
X260355Y448087D01*
X260482Y448123D01*
X260608Y448164D01*
X260733Y448208D01*
X260856Y448256D01*
X260978Y448307D01*
X261098Y448362D01*
X261216Y448421D01*
X261333Y448483D01*
X261448Y448549D01*
X261560Y448617D01*
X261671Y448690D01*
X261780Y448765D01*
X261886Y448844D01*
X261990Y448925D01*
X262091Y449010D01*
X262190Y449098D01*
X262286Y449189D01*
X262379Y449282D01*
X262470Y449378D01*
X262558Y449477D01*
X262643Y449578D01*
X262724Y449682D01*
X262803Y449788D01*
X262878Y449897D01*
X262951Y450008D01*
X263019Y450120D01*
X263085Y450235D01*
X263147Y450352D01*
X263206Y450470D01*
X263261Y450590D01*
X263312Y450712D01*
X263360Y450835D01*
X263404Y450960D01*
X263445Y451086D01*
X263481Y451213D01*
X263514Y451341D01*
X263543Y451470D01*
X263569Y451599D01*
X263590Y451730D01*
X263608Y451861D01*
X263621Y451992D01*
X263631Y452124D01*
X263637Y452256D01*
X263639Y452388D01*
X247572Y452388D02*
X247572Y456847D01*
X247570Y456979D01*
X247564Y457111D01*
X247554Y457243D01*
X247541Y457374D01*
X247523Y457505D01*
X247502Y457636D01*
X247476Y457765D01*
X247447Y457894D01*
X247414Y458022D01*
X247378Y458149D01*
X247337Y458275D01*
X247293Y458400D01*
X247245Y458523D01*
X247194Y458645D01*
X247139Y458765D01*
X247080Y458883D01*
X247018Y459000D01*
X246952Y459115D01*
X246884Y459227D01*
X246811Y459338D01*
X246736Y459447D01*
X246657Y459553D01*
X246576Y459657D01*
X246491Y459758D01*
X246403Y459857D01*
X246312Y459953D01*
X246219Y460046D01*
X246123Y460137D01*
X246024Y460225D01*
X245923Y460310D01*
X245819Y460391D01*
X245713Y460470D01*
X245604Y460545D01*
X245493Y460618D01*
X245381Y460686D01*
X245266Y460752D01*
X245149Y460814D01*
X245031Y460873D01*
X244911Y460928D01*
X244789Y460979D01*
X244666Y461027D01*
X244541Y461071D01*
X244415Y461112D01*
X244288Y461148D01*
X244160Y461181D01*
X244031Y461210D01*
X243902Y461236D01*
X243771Y461257D01*
X243640Y461275D01*
X243509Y461288D01*
X243377Y461298D01*
X243245Y461304D01*
X243113Y461306D01*
X242981Y461304D01*
X242849Y461298D01*
X242717Y461288D01*
X242586Y461275D01*
X242455Y461257D01*
X242324Y461236D01*
X242195Y461210D01*
X242066Y461181D01*
X241938Y461148D01*
X241811Y461112D01*
X241685Y461071D01*
X241560Y461027D01*
X241437Y460979D01*
X241315Y460928D01*
X241195Y460873D01*
X241077Y460814D01*
X240960Y460752D01*
X240845Y460686D01*
X240733Y460618D01*
X240622Y460545D01*
X240513Y460470D01*
X240407Y460391D01*
X240303Y460310D01*
X240202Y460225D01*
X240103Y460137D01*
X240007Y460046D01*
X239914Y459953D01*
X239823Y459857D01*
X239735Y459758D01*
X239650Y459657D01*
X239569Y459553D01*
X239490Y459447D01*
X239415Y459338D01*
X239342Y459227D01*
X239274Y459115D01*
X239208Y459000D01*
X239146Y458883D01*
X239087Y458765D01*
X239032Y458645D01*
X238981Y458523D01*
X238933Y458400D01*
X238889Y458275D01*
X238848Y458149D01*
X238812Y458022D01*
X238779Y457894D01*
X238750Y457765D01*
X238724Y457636D01*
X238703Y457505D01*
X238685Y457374D01*
X238672Y457243D01*
X238662Y457111D01*
X238656Y456979D01*
X238654Y456847D01*
X238654Y452388D01*
X238656Y452256D01*
X238662Y452124D01*
X238672Y451992D01*
X238685Y451861D01*
X238703Y451730D01*
X238724Y451599D01*
X238750Y451470D01*
X238779Y451341D01*
X238812Y451213D01*
X238848Y451086D01*
X238889Y450960D01*
X238933Y450835D01*
X238981Y450712D01*
X239032Y450590D01*
X239087Y450470D01*
X239146Y450352D01*
X239208Y450235D01*
X239274Y450120D01*
X239342Y450008D01*
X239415Y449897D01*
X239490Y449788D01*
X239569Y449682D01*
X239650Y449578D01*
X239735Y449477D01*
X239823Y449378D01*
X239914Y449282D01*
X240007Y449189D01*
X240103Y449098D01*
X240202Y449010D01*
X240303Y448925D01*
X240407Y448844D01*
X240513Y448765D01*
X240622Y448690D01*
X240733Y448617D01*
X240845Y448549D01*
X240960Y448483D01*
X241077Y448421D01*
X241195Y448362D01*
X241315Y448307D01*
X241437Y448256D01*
X241560Y448208D01*
X241685Y448164D01*
X241811Y448123D01*
X241938Y448087D01*
X242066Y448054D01*
X242195Y448025D01*
X242324Y447999D01*
X242455Y447978D01*
X242586Y447960D01*
X242717Y447947D01*
X242849Y447937D01*
X242981Y447931D01*
X243113Y447929D01*
X243245Y447931D01*
X243377Y447937D01*
X243509Y447947D01*
X243640Y447960D01*
X243771Y447978D01*
X243902Y447999D01*
X244031Y448025D01*
X244160Y448054D01*
X244288Y448087D01*
X244415Y448123D01*
X244541Y448164D01*
X244666Y448208D01*
X244789Y448256D01*
X244911Y448307D01*
X245031Y448362D01*
X245149Y448421D01*
X245266Y448483D01*
X245381Y448549D01*
X245493Y448617D01*
X245604Y448690D01*
X245713Y448765D01*
X245819Y448844D01*
X245923Y448925D01*
X246024Y449010D01*
X246123Y449098D01*
X246219Y449189D01*
X246312Y449282D01*
X246403Y449378D01*
X246491Y449477D01*
X246576Y449578D01*
X246657Y449682D01*
X246736Y449788D01*
X246811Y449897D01*
X246884Y450008D01*
X246952Y450120D01*
X247018Y450235D01*
X247080Y450352D01*
X247139Y450470D01*
X247194Y450590D01*
X247245Y450712D01*
X247293Y450835D01*
X247337Y450960D01*
X247378Y451086D01*
X247414Y451213D01*
X247447Y451341D01*
X247476Y451470D01*
X247502Y451599D01*
X247523Y451730D01*
X247541Y451861D01*
X247554Y451992D01*
X247564Y452124D01*
X247570Y452256D01*
X247572Y452388D01*
X230809Y447929D02*
X230809Y461306D01*
X224121Y461306D01*
X224121Y459077D01*
X208521Y462421D02*
X208521Y453503D01*
X208521Y462421D02*
X208519Y462569D01*
X208513Y462718D01*
X208503Y462866D01*
X208489Y463013D01*
X208472Y463161D01*
X208450Y463308D01*
X208424Y463454D01*
X208395Y463599D01*
X208362Y463744D01*
X208325Y463888D01*
X208284Y464030D01*
X208239Y464172D01*
X208190Y464312D01*
X208138Y464451D01*
X208082Y464588D01*
X208023Y464724D01*
X207960Y464859D01*
X207893Y464991D01*
X207823Y465122D01*
X207749Y465251D01*
X207672Y465378D01*
X207592Y465502D01*
X207508Y465625D01*
X207421Y465745D01*
X207331Y465863D01*
X207238Y465979D01*
X207142Y466092D01*
X207043Y466202D01*
X206941Y466310D01*
X206836Y466415D01*
X206728Y466517D01*
X206618Y466616D01*
X206505Y466712D01*
X206389Y466805D01*
X206271Y466895D01*
X206151Y466982D01*
X206028Y467066D01*
X205904Y467146D01*
X205777Y467223D01*
X205648Y467297D01*
X205517Y467367D01*
X205385Y467434D01*
X205250Y467497D01*
X205114Y467556D01*
X204977Y467612D01*
X204838Y467664D01*
X204698Y467713D01*
X204556Y467758D01*
X204414Y467799D01*
X204270Y467836D01*
X204125Y467869D01*
X203980Y467898D01*
X203834Y467924D01*
X203687Y467946D01*
X203539Y467963D01*
X203392Y467977D01*
X203244Y467987D01*
X203095Y467993D01*
X202947Y467995D01*
X202799Y467993D01*
X202650Y467987D01*
X202502Y467977D01*
X202355Y467963D01*
X202207Y467946D01*
X202060Y467924D01*
X201914Y467898D01*
X201769Y467869D01*
X201624Y467836D01*
X201480Y467799D01*
X201338Y467758D01*
X201196Y467713D01*
X201056Y467664D01*
X200917Y467612D01*
X200780Y467556D01*
X200644Y467497D01*
X200509Y467434D01*
X200377Y467367D01*
X200246Y467297D01*
X200117Y467223D01*
X199990Y467146D01*
X199866Y467066D01*
X199743Y466982D01*
X199623Y466895D01*
X199505Y466805D01*
X199389Y466712D01*
X199276Y466616D01*
X199166Y466517D01*
X199058Y466415D01*
X198953Y466310D01*
X198851Y466202D01*
X198752Y466092D01*
X198656Y465979D01*
X198563Y465863D01*
X198473Y465745D01*
X198386Y465625D01*
X198302Y465502D01*
X198222Y465378D01*
X198145Y465251D01*
X198071Y465122D01*
X198001Y464991D01*
X197934Y464859D01*
X197871Y464724D01*
X197812Y464588D01*
X197756Y464451D01*
X197704Y464312D01*
X197655Y464172D01*
X197610Y464030D01*
X197569Y463888D01*
X197532Y463744D01*
X197499Y463599D01*
X197470Y463454D01*
X197444Y463308D01*
X197422Y463161D01*
X197405Y463013D01*
X197391Y462866D01*
X197381Y462718D01*
X197375Y462569D01*
X197373Y462421D01*
X197373Y453503D01*
X197375Y453355D01*
X197381Y453206D01*
X197391Y453058D01*
X197405Y452911D01*
X197422Y452763D01*
X197444Y452616D01*
X197470Y452470D01*
X197499Y452325D01*
X197532Y452180D01*
X197569Y452036D01*
X197610Y451894D01*
X197655Y451752D01*
X197704Y451612D01*
X197756Y451473D01*
X197812Y451336D01*
X197871Y451200D01*
X197934Y451065D01*
X198001Y450933D01*
X198071Y450802D01*
X198145Y450673D01*
X198222Y450546D01*
X198302Y450422D01*
X198386Y450299D01*
X198473Y450179D01*
X198563Y450061D01*
X198656Y449945D01*
X198752Y449832D01*
X198851Y449722D01*
X198953Y449614D01*
X199058Y449509D01*
X199166Y449407D01*
X199276Y449308D01*
X199389Y449212D01*
X199505Y449119D01*
X199623Y449029D01*
X199743Y448942D01*
X199866Y448858D01*
X199990Y448778D01*
X200117Y448701D01*
X200246Y448627D01*
X200377Y448557D01*
X200509Y448490D01*
X200644Y448427D01*
X200780Y448368D01*
X200917Y448312D01*
X201056Y448260D01*
X201196Y448211D01*
X201338Y448166D01*
X201480Y448125D01*
X201624Y448088D01*
X201769Y448055D01*
X201914Y448026D01*
X202060Y448000D01*
X202207Y447978D01*
X202355Y447961D01*
X202502Y447947D01*
X202650Y447937D01*
X202799Y447931D01*
X202947Y447929D01*
X203095Y447931D01*
X203244Y447937D01*
X203392Y447947D01*
X203539Y447961D01*
X203687Y447978D01*
X203834Y448000D01*
X203980Y448026D01*
X204125Y448055D01*
X204270Y448088D01*
X204414Y448125D01*
X204556Y448166D01*
X204698Y448211D01*
X204838Y448260D01*
X204977Y448312D01*
X205114Y448368D01*
X205250Y448427D01*
X205385Y448490D01*
X205517Y448557D01*
X205648Y448627D01*
X205777Y448701D01*
X205904Y448778D01*
X206028Y448858D01*
X206151Y448942D01*
X206271Y449029D01*
X206389Y449119D01*
X206505Y449212D01*
X206618Y449308D01*
X206728Y449407D01*
X206836Y449509D01*
X206941Y449614D01*
X207043Y449722D01*
X207142Y449832D01*
X207238Y449945D01*
X207331Y450061D01*
X207421Y450179D01*
X207508Y450299D01*
X207592Y450422D01*
X207672Y450546D01*
X207749Y450673D01*
X207823Y450802D01*
X207893Y450933D01*
X207960Y451065D01*
X208023Y451200D01*
X208082Y451336D01*
X208138Y451473D01*
X208190Y451612D01*
X208239Y451752D01*
X208284Y451894D01*
X208325Y452036D01*
X208362Y452180D01*
X208395Y452325D01*
X208424Y452470D01*
X208450Y452616D01*
X208472Y452763D01*
X208489Y452911D01*
X208503Y453058D01*
X208513Y453206D01*
X208519Y453355D01*
X208521Y453503D01*
X189421Y447929D02*
X189421Y467995D01*
X189421Y447929D02*
X183847Y447929D01*
X183733Y447931D01*
X183619Y447937D01*
X183505Y447947D01*
X183392Y447960D01*
X183279Y447978D01*
X183167Y447999D01*
X183055Y448024D01*
X182945Y448053D01*
X182835Y448086D01*
X182727Y448122D01*
X182620Y448162D01*
X182515Y448206D01*
X182411Y448253D01*
X182309Y448304D01*
X182208Y448358D01*
X182110Y448416D01*
X182013Y448477D01*
X181919Y448541D01*
X181826Y448608D01*
X181737Y448679D01*
X181649Y448753D01*
X181565Y448829D01*
X181482Y448908D01*
X181403Y448991D01*
X181327Y449075D01*
X181253Y449163D01*
X181183Y449252D01*
X181115Y449345D01*
X181051Y449439D01*
X180990Y449535D01*
X180932Y449634D01*
X180878Y449735D01*
X180827Y449837D01*
X180780Y449941D01*
X180736Y450046D01*
X180696Y450153D01*
X180660Y450261D01*
X180627Y450371D01*
X180598Y450481D01*
X180573Y450593D01*
X180552Y450705D01*
X180534Y450818D01*
X180521Y450931D01*
X180511Y451045D01*
X180505Y451159D01*
X180503Y451273D01*
X180502Y451273D02*
X180502Y457962D01*
X180503Y457962D02*
X180505Y458076D01*
X180511Y458190D01*
X180521Y458304D01*
X180534Y458417D01*
X180552Y458530D01*
X180573Y458642D01*
X180598Y458754D01*
X180627Y458864D01*
X180660Y458974D01*
X180696Y459082D01*
X180736Y459189D01*
X180780Y459294D01*
X180827Y459398D01*
X180878Y459500D01*
X180932Y459601D01*
X180990Y459699D01*
X181051Y459796D01*
X181115Y459890D01*
X181182Y459983D01*
X181253Y460072D01*
X181327Y460160D01*
X181403Y460244D01*
X181482Y460327D01*
X181565Y460406D01*
X181649Y460482D01*
X181737Y460556D01*
X181826Y460627D01*
X181919Y460694D01*
X182013Y460758D01*
X182110Y460819D01*
X182208Y460877D01*
X182309Y460931D01*
X182411Y460982D01*
X182515Y461029D01*
X182620Y461073D01*
X182727Y461113D01*
X182835Y461149D01*
X182945Y461182D01*
X183055Y461211D01*
X183167Y461236D01*
X183279Y461257D01*
X183392Y461275D01*
X183505Y461288D01*
X183619Y461298D01*
X183733Y461304D01*
X183847Y461306D01*
X189421Y461306D01*
X173497Y461306D02*
X173497Y444585D01*
X173498Y444585D02*
X173500Y444471D01*
X173506Y444357D01*
X173516Y444243D01*
X173529Y444130D01*
X173547Y444017D01*
X173568Y443905D01*
X173593Y443793D01*
X173622Y443683D01*
X173655Y443573D01*
X173691Y443465D01*
X173731Y443358D01*
X173775Y443253D01*
X173822Y443149D01*
X173873Y443047D01*
X173927Y442946D01*
X173985Y442848D01*
X174046Y442751D01*
X174110Y442657D01*
X174177Y442564D01*
X174248Y442475D01*
X174322Y442387D01*
X174398Y442303D01*
X174477Y442220D01*
X174560Y442141D01*
X174644Y442065D01*
X174732Y441991D01*
X174821Y441920D01*
X174914Y441853D01*
X175008Y441789D01*
X175105Y441728D01*
X175203Y441670D01*
X175304Y441616D01*
X175406Y441565D01*
X175510Y441518D01*
X175615Y441474D01*
X175722Y441434D01*
X175830Y441398D01*
X175940Y441365D01*
X176050Y441336D01*
X176162Y441311D01*
X176274Y441290D01*
X176387Y441272D01*
X176500Y441259D01*
X176614Y441249D01*
X176728Y441243D01*
X176842Y441241D01*
X176842Y441240D02*
X177957Y441240D01*
X174055Y466880D02*
X174055Y467995D01*
X172940Y467995D01*
X172940Y466880D01*
X174055Y466880D01*
X162659Y447929D02*
X157085Y447929D01*
X162659Y447929D02*
X162773Y447931D01*
X162887Y447937D01*
X163001Y447947D01*
X163114Y447960D01*
X163227Y447978D01*
X163339Y447999D01*
X163451Y448024D01*
X163561Y448053D01*
X163671Y448086D01*
X163779Y448122D01*
X163886Y448162D01*
X163991Y448206D01*
X164095Y448253D01*
X164197Y448304D01*
X164298Y448358D01*
X164396Y448416D01*
X164493Y448477D01*
X164587Y448541D01*
X164680Y448608D01*
X164769Y448679D01*
X164857Y448753D01*
X164941Y448829D01*
X165024Y448908D01*
X165103Y448991D01*
X165179Y449075D01*
X165253Y449163D01*
X165324Y449252D01*
X165391Y449345D01*
X165455Y449439D01*
X165516Y449536D01*
X165574Y449634D01*
X165628Y449735D01*
X165679Y449837D01*
X165726Y449941D01*
X165770Y450046D01*
X165810Y450153D01*
X165846Y450261D01*
X165879Y450371D01*
X165908Y450481D01*
X165933Y450593D01*
X165954Y450705D01*
X165972Y450818D01*
X165985Y450931D01*
X165995Y451045D01*
X166001Y451159D01*
X166003Y451273D01*
X166004Y451273D02*
X166004Y456847D01*
X166002Y456979D01*
X165996Y457111D01*
X165986Y457243D01*
X165973Y457374D01*
X165955Y457505D01*
X165934Y457636D01*
X165908Y457765D01*
X165879Y457894D01*
X165846Y458022D01*
X165810Y458149D01*
X165769Y458275D01*
X165725Y458400D01*
X165677Y458523D01*
X165626Y458645D01*
X165571Y458765D01*
X165512Y458883D01*
X165450Y459000D01*
X165384Y459115D01*
X165316Y459227D01*
X165243Y459338D01*
X165168Y459447D01*
X165089Y459553D01*
X165008Y459657D01*
X164923Y459758D01*
X164835Y459857D01*
X164744Y459953D01*
X164651Y460046D01*
X164555Y460137D01*
X164456Y460225D01*
X164355Y460310D01*
X164251Y460391D01*
X164145Y460470D01*
X164036Y460545D01*
X163925Y460618D01*
X163813Y460686D01*
X163698Y460752D01*
X163581Y460814D01*
X163463Y460873D01*
X163343Y460928D01*
X163221Y460979D01*
X163098Y461027D01*
X162973Y461071D01*
X162847Y461112D01*
X162720Y461148D01*
X162592Y461181D01*
X162463Y461210D01*
X162334Y461236D01*
X162203Y461257D01*
X162072Y461275D01*
X161941Y461288D01*
X161809Y461298D01*
X161677Y461304D01*
X161545Y461306D01*
X161413Y461304D01*
X161281Y461298D01*
X161149Y461288D01*
X161018Y461275D01*
X160887Y461257D01*
X160756Y461236D01*
X160627Y461210D01*
X160498Y461181D01*
X160370Y461148D01*
X160243Y461112D01*
X160117Y461071D01*
X159992Y461027D01*
X159869Y460979D01*
X159747Y460928D01*
X159627Y460873D01*
X159509Y460814D01*
X159392Y460752D01*
X159277Y460686D01*
X159165Y460618D01*
X159054Y460545D01*
X158945Y460470D01*
X158839Y460391D01*
X158735Y460310D01*
X158634Y460225D01*
X158535Y460137D01*
X158439Y460046D01*
X158346Y459953D01*
X158255Y459857D01*
X158167Y459758D01*
X158082Y459657D01*
X158001Y459553D01*
X157922Y459447D01*
X157847Y459338D01*
X157774Y459227D01*
X157706Y459115D01*
X157640Y459000D01*
X157578Y458883D01*
X157519Y458765D01*
X157464Y458645D01*
X157413Y458523D01*
X157365Y458400D01*
X157321Y458275D01*
X157280Y458149D01*
X157244Y458022D01*
X157211Y457894D01*
X157182Y457765D01*
X157156Y457636D01*
X157135Y457505D01*
X157117Y457374D01*
X157104Y457243D01*
X157094Y457111D01*
X157088Y456979D01*
X157086Y456847D01*
X157085Y456847D02*
X157085Y454618D01*
X166004Y454618D01*
X146576Y447929D02*
X142117Y447929D01*
X146576Y447929D02*
X146690Y447931D01*
X146804Y447937D01*
X146918Y447947D01*
X147031Y447960D01*
X147144Y447978D01*
X147256Y447999D01*
X147368Y448024D01*
X147478Y448053D01*
X147588Y448086D01*
X147696Y448122D01*
X147803Y448162D01*
X147908Y448206D01*
X148012Y448253D01*
X148114Y448304D01*
X148215Y448358D01*
X148313Y448416D01*
X148410Y448477D01*
X148504Y448541D01*
X148597Y448608D01*
X148686Y448679D01*
X148774Y448753D01*
X148858Y448829D01*
X148941Y448908D01*
X149020Y448991D01*
X149096Y449075D01*
X149170Y449163D01*
X149241Y449252D01*
X149308Y449345D01*
X149372Y449439D01*
X149433Y449536D01*
X149491Y449634D01*
X149545Y449735D01*
X149596Y449837D01*
X149643Y449941D01*
X149687Y450046D01*
X149727Y450153D01*
X149763Y450261D01*
X149796Y450371D01*
X149825Y450481D01*
X149850Y450593D01*
X149871Y450705D01*
X149889Y450818D01*
X149902Y450931D01*
X149912Y451045D01*
X149918Y451159D01*
X149920Y451273D01*
X149920Y457962D01*
X149918Y458076D01*
X149912Y458190D01*
X149902Y458304D01*
X149889Y458417D01*
X149871Y458530D01*
X149850Y458642D01*
X149825Y458754D01*
X149796Y458864D01*
X149763Y458974D01*
X149727Y459082D01*
X149687Y459189D01*
X149643Y459294D01*
X149596Y459398D01*
X149545Y459500D01*
X149491Y459601D01*
X149433Y459699D01*
X149372Y459796D01*
X149308Y459890D01*
X149241Y459983D01*
X149170Y460072D01*
X149096Y460160D01*
X149020Y460244D01*
X148941Y460327D01*
X148858Y460406D01*
X148774Y460482D01*
X148686Y460556D01*
X148597Y460627D01*
X148504Y460694D01*
X148410Y460758D01*
X148313Y460819D01*
X148215Y460877D01*
X148114Y460931D01*
X148012Y460982D01*
X147908Y461029D01*
X147803Y461073D01*
X147696Y461113D01*
X147588Y461149D01*
X147478Y461182D01*
X147368Y461211D01*
X147256Y461236D01*
X147144Y461257D01*
X147031Y461275D01*
X146918Y461288D01*
X146804Y461298D01*
X146690Y461304D01*
X146576Y461306D01*
X142117Y461306D01*
X137186Y461306D02*
X130498Y461306D01*
X134957Y467995D02*
X134957Y451273D01*
X134956Y451273D02*
X134954Y451159D01*
X134948Y451045D01*
X134938Y450931D01*
X134925Y450818D01*
X134907Y450705D01*
X134886Y450593D01*
X134861Y450481D01*
X134832Y450371D01*
X134799Y450261D01*
X134763Y450153D01*
X134723Y450046D01*
X134679Y449941D01*
X134632Y449837D01*
X134581Y449735D01*
X134527Y449634D01*
X134469Y449536D01*
X134408Y449439D01*
X134344Y449345D01*
X134277Y449252D01*
X134206Y449163D01*
X134132Y449075D01*
X134056Y448991D01*
X133977Y448908D01*
X133894Y448829D01*
X133810Y448753D01*
X133722Y448679D01*
X133633Y448608D01*
X133540Y448541D01*
X133446Y448477D01*
X133349Y448416D01*
X133251Y448358D01*
X133150Y448304D01*
X133048Y448253D01*
X132944Y448206D01*
X132839Y448162D01*
X132732Y448122D01*
X132624Y448086D01*
X132514Y448053D01*
X132404Y448024D01*
X132292Y447999D01*
X132180Y447978D01*
X132067Y447960D01*
X131954Y447947D01*
X131840Y447937D01*
X131726Y447931D01*
X131612Y447929D01*
X130498Y447929D01*
X109637Y447929D02*
X109637Y467995D01*
X115211Y467995D02*
X104063Y467995D01*
X97334Y461306D02*
X97334Y447929D01*
X97334Y461306D02*
X90645Y461306D01*
X90645Y459077D01*
X81216Y455732D02*
X76200Y455732D01*
X81216Y455733D02*
X81340Y455731D01*
X81463Y455725D01*
X81587Y455715D01*
X81710Y455702D01*
X81833Y455684D01*
X81954Y455662D01*
X82076Y455637D01*
X82196Y455608D01*
X82315Y455575D01*
X82434Y455538D01*
X82551Y455498D01*
X82666Y455453D01*
X82780Y455406D01*
X82893Y455354D01*
X83004Y455299D01*
X83113Y455241D01*
X83220Y455179D01*
X83326Y455114D01*
X83429Y455045D01*
X83530Y454973D01*
X83628Y454898D01*
X83724Y454820D01*
X83818Y454739D01*
X83909Y454655D01*
X83997Y454568D01*
X84082Y454479D01*
X84165Y454386D01*
X84245Y454291D01*
X84321Y454194D01*
X84394Y454094D01*
X84465Y453992D01*
X84532Y453888D01*
X84595Y453782D01*
X84655Y453674D01*
X84712Y453564D01*
X84765Y453452D01*
X84815Y453339D01*
X84861Y453224D01*
X84903Y453107D01*
X84942Y452990D01*
X84977Y452871D01*
X85008Y452751D01*
X85035Y452630D01*
X85059Y452509D01*
X85078Y452386D01*
X85094Y452263D01*
X85106Y452140D01*
X85114Y452017D01*
X85118Y451893D01*
X85118Y451769D01*
X85114Y451645D01*
X85106Y451522D01*
X85094Y451399D01*
X85078Y451276D01*
X85059Y451153D01*
X85035Y451032D01*
X85008Y450911D01*
X84977Y450791D01*
X84942Y450672D01*
X84903Y450555D01*
X84861Y450438D01*
X84815Y450323D01*
X84765Y450210D01*
X84712Y450098D01*
X84655Y449988D01*
X84595Y449880D01*
X84532Y449774D01*
X84465Y449670D01*
X84394Y449568D01*
X84321Y449468D01*
X84245Y449371D01*
X84165Y449276D01*
X84082Y449183D01*
X83997Y449094D01*
X83909Y449007D01*
X83818Y448923D01*
X83724Y448842D01*
X83628Y448764D01*
X83530Y448689D01*
X83429Y448617D01*
X83326Y448548D01*
X83220Y448483D01*
X83113Y448421D01*
X83004Y448363D01*
X82893Y448308D01*
X82780Y448256D01*
X82666Y448209D01*
X82551Y448164D01*
X82434Y448124D01*
X82315Y448087D01*
X82196Y448054D01*
X82076Y448025D01*
X81954Y448000D01*
X81833Y447978D01*
X81710Y447960D01*
X81587Y447947D01*
X81463Y447937D01*
X81340Y447931D01*
X81216Y447929D01*
X76200Y447929D01*
X76200Y457962D01*
X76202Y458076D01*
X76208Y458190D01*
X76218Y458304D01*
X76231Y458417D01*
X76249Y458530D01*
X76270Y458642D01*
X76295Y458754D01*
X76324Y458864D01*
X76357Y458974D01*
X76393Y459082D01*
X76433Y459189D01*
X76477Y459294D01*
X76524Y459398D01*
X76575Y459500D01*
X76629Y459601D01*
X76687Y459699D01*
X76748Y459796D01*
X76812Y459890D01*
X76879Y459983D01*
X76950Y460072D01*
X77024Y460160D01*
X77100Y460244D01*
X77179Y460327D01*
X77262Y460406D01*
X77346Y460482D01*
X77434Y460556D01*
X77523Y460627D01*
X77616Y460694D01*
X77710Y460758D01*
X77807Y460819D01*
X77905Y460877D01*
X78006Y460931D01*
X78108Y460982D01*
X78212Y461029D01*
X78317Y461073D01*
X78424Y461113D01*
X78532Y461149D01*
X78642Y461182D01*
X78752Y461211D01*
X78864Y461236D01*
X78976Y461257D01*
X79089Y461275D01*
X79202Y461288D01*
X79316Y461298D01*
X79430Y461304D01*
X79544Y461306D01*
X84003Y461306D01*
X65007Y447929D02*
X60548Y447929D01*
X65007Y447929D02*
X65121Y447931D01*
X65235Y447937D01*
X65349Y447947D01*
X65462Y447960D01*
X65575Y447978D01*
X65687Y447999D01*
X65799Y448024D01*
X65909Y448053D01*
X66019Y448086D01*
X66127Y448122D01*
X66234Y448162D01*
X66339Y448206D01*
X66443Y448253D01*
X66545Y448304D01*
X66646Y448358D01*
X66744Y448416D01*
X66841Y448477D01*
X66935Y448541D01*
X67028Y448608D01*
X67117Y448679D01*
X67205Y448753D01*
X67289Y448829D01*
X67372Y448908D01*
X67451Y448991D01*
X67527Y449075D01*
X67601Y449163D01*
X67672Y449252D01*
X67739Y449345D01*
X67803Y449439D01*
X67864Y449536D01*
X67922Y449634D01*
X67976Y449735D01*
X68027Y449837D01*
X68074Y449941D01*
X68118Y450046D01*
X68158Y450153D01*
X68194Y450261D01*
X68227Y450371D01*
X68256Y450481D01*
X68281Y450593D01*
X68302Y450705D01*
X68320Y450818D01*
X68333Y450931D01*
X68343Y451045D01*
X68349Y451159D01*
X68351Y451273D01*
X68352Y451273D02*
X68352Y457962D01*
X68351Y457962D02*
X68349Y458076D01*
X68343Y458190D01*
X68333Y458304D01*
X68320Y458417D01*
X68302Y458530D01*
X68281Y458642D01*
X68256Y458754D01*
X68227Y458864D01*
X68194Y458974D01*
X68158Y459082D01*
X68118Y459189D01*
X68074Y459294D01*
X68027Y459398D01*
X67976Y459500D01*
X67922Y459601D01*
X67864Y459699D01*
X67803Y459796D01*
X67739Y459890D01*
X67672Y459983D01*
X67601Y460072D01*
X67527Y460160D01*
X67451Y460244D01*
X67372Y460327D01*
X67289Y460406D01*
X67205Y460482D01*
X67117Y460556D01*
X67028Y460627D01*
X66935Y460694D01*
X66841Y460758D01*
X66744Y460819D01*
X66646Y460877D01*
X66545Y460931D01*
X66443Y460982D01*
X66339Y461029D01*
X66234Y461073D01*
X66127Y461113D01*
X66019Y461149D01*
X65909Y461182D01*
X65799Y461211D01*
X65687Y461236D01*
X65575Y461257D01*
X65462Y461275D01*
X65349Y461288D01*
X65235Y461298D01*
X65121Y461304D01*
X65007Y461306D01*
X60548Y461306D01*
X53388Y467995D02*
X53388Y447929D01*
X53388Y454618D02*
X44470Y461306D01*
X49486Y457405D02*
X44470Y447929D01*
X37956Y447929D02*
X37956Y461306D01*
X38513Y466880D02*
X38513Y467995D01*
X37398Y467995D01*
X37398Y466880D01*
X38513Y466880D01*
X30056Y461306D02*
X30056Y447929D01*
X30056Y461306D02*
X24482Y461306D01*
X24368Y461304D01*
X24254Y461298D01*
X24140Y461288D01*
X24027Y461275D01*
X23914Y461257D01*
X23802Y461236D01*
X23690Y461211D01*
X23580Y461182D01*
X23470Y461149D01*
X23362Y461113D01*
X23255Y461073D01*
X23150Y461029D01*
X23046Y460982D01*
X22944Y460931D01*
X22843Y460877D01*
X22745Y460819D01*
X22648Y460758D01*
X22554Y460694D01*
X22461Y460627D01*
X22372Y460556D01*
X22284Y460482D01*
X22200Y460406D01*
X22117Y460327D01*
X22038Y460244D01*
X21962Y460160D01*
X21888Y460072D01*
X21818Y459983D01*
X21750Y459890D01*
X21686Y459796D01*
X21625Y459700D01*
X21567Y459601D01*
X21513Y459500D01*
X21462Y459398D01*
X21415Y459294D01*
X21371Y459189D01*
X21331Y459082D01*
X21295Y458974D01*
X21262Y458864D01*
X21233Y458754D01*
X21208Y458642D01*
X21187Y458530D01*
X21169Y458417D01*
X21156Y458304D01*
X21146Y458190D01*
X21140Y458076D01*
X21138Y457962D01*
X21138Y447929D01*
X10092Y447929D02*
X4518Y447929D01*
X10092Y447929D02*
X10206Y447931D01*
X10320Y447937D01*
X10434Y447947D01*
X10547Y447960D01*
X10660Y447978D01*
X10772Y447999D01*
X10884Y448024D01*
X10994Y448053D01*
X11104Y448086D01*
X11212Y448122D01*
X11319Y448162D01*
X11424Y448206D01*
X11528Y448253D01*
X11630Y448304D01*
X11731Y448358D01*
X11829Y448416D01*
X11926Y448477D01*
X12020Y448541D01*
X12113Y448608D01*
X12202Y448679D01*
X12290Y448753D01*
X12374Y448829D01*
X12457Y448908D01*
X12536Y448991D01*
X12612Y449075D01*
X12686Y449163D01*
X12757Y449252D01*
X12824Y449345D01*
X12888Y449439D01*
X12949Y449536D01*
X13007Y449634D01*
X13061Y449735D01*
X13112Y449837D01*
X13159Y449941D01*
X13203Y450046D01*
X13243Y450153D01*
X13279Y450261D01*
X13312Y450371D01*
X13341Y450481D01*
X13366Y450593D01*
X13387Y450705D01*
X13405Y450818D01*
X13418Y450931D01*
X13428Y451045D01*
X13434Y451159D01*
X13436Y451273D01*
X13436Y457962D01*
X13434Y458076D01*
X13428Y458190D01*
X13418Y458304D01*
X13405Y458417D01*
X13387Y458530D01*
X13366Y458642D01*
X13341Y458754D01*
X13312Y458864D01*
X13279Y458974D01*
X13243Y459082D01*
X13203Y459189D01*
X13159Y459294D01*
X13112Y459398D01*
X13061Y459500D01*
X13007Y459601D01*
X12949Y459699D01*
X12888Y459796D01*
X12824Y459890D01*
X12757Y459983D01*
X12686Y460072D01*
X12612Y460160D01*
X12536Y460244D01*
X12457Y460327D01*
X12374Y460406D01*
X12290Y460482D01*
X12202Y460556D01*
X12113Y460627D01*
X12020Y460694D01*
X11926Y460758D01*
X11829Y460819D01*
X11731Y460877D01*
X11630Y460931D01*
X11528Y460982D01*
X11424Y461029D01*
X11319Y461073D01*
X11212Y461113D01*
X11104Y461149D01*
X10994Y461182D01*
X10884Y461211D01*
X10772Y461236D01*
X10660Y461257D01*
X10547Y461275D01*
X10434Y461288D01*
X10320Y461298D01*
X10206Y461304D01*
X10092Y461306D01*
X4518Y461306D01*
X4518Y444585D01*
X4519Y444585D02*
X4521Y444471D01*
X4527Y444357D01*
X4537Y444243D01*
X4550Y444130D01*
X4568Y444017D01*
X4589Y443905D01*
X4614Y443793D01*
X4643Y443683D01*
X4676Y443573D01*
X4712Y443465D01*
X4752Y443358D01*
X4796Y443253D01*
X4843Y443149D01*
X4894Y443047D01*
X4948Y442946D01*
X5006Y442848D01*
X5067Y442751D01*
X5131Y442657D01*
X5198Y442564D01*
X5269Y442475D01*
X5343Y442387D01*
X5419Y442303D01*
X5498Y442220D01*
X5581Y442141D01*
X5665Y442065D01*
X5753Y441991D01*
X5842Y441920D01*
X5935Y441853D01*
X6029Y441789D01*
X6126Y441728D01*
X6224Y441670D01*
X6325Y441616D01*
X6427Y441565D01*
X6531Y441518D01*
X6636Y441474D01*
X6743Y441434D01*
X6851Y441398D01*
X6961Y441365D01*
X7071Y441336D01*
X7183Y441311D01*
X7295Y441290D01*
X7408Y441272D01*
X7521Y441259D01*
X7635Y441249D01*
X7749Y441243D01*
X7863Y441241D01*
X7863Y441240D02*
X12322Y441240D01*
X198501Y433366D02*
X198501Y423333D01*
X198499Y423219D01*
X198493Y423105D01*
X198483Y422991D01*
X198470Y422878D01*
X198452Y422765D01*
X198431Y422653D01*
X198406Y422541D01*
X198377Y422431D01*
X198344Y422321D01*
X198308Y422213D01*
X198268Y422106D01*
X198224Y422001D01*
X198177Y421897D01*
X198126Y421795D01*
X198072Y421694D01*
X198014Y421596D01*
X197953Y421499D01*
X197889Y421405D01*
X197822Y421312D01*
X197751Y421223D01*
X197677Y421135D01*
X197601Y421051D01*
X197522Y420968D01*
X197439Y420889D01*
X197355Y420813D01*
X197267Y420739D01*
X197178Y420668D01*
X197085Y420601D01*
X196991Y420537D01*
X196894Y420476D01*
X196796Y420418D01*
X196695Y420364D01*
X196593Y420313D01*
X196489Y420266D01*
X196384Y420222D01*
X196277Y420182D01*
X196169Y420146D01*
X196059Y420113D01*
X195949Y420084D01*
X195837Y420059D01*
X195725Y420038D01*
X195612Y420020D01*
X195499Y420007D01*
X195385Y419997D01*
X195271Y419991D01*
X195157Y419989D01*
X189583Y419989D01*
X189583Y433366D01*
X180144Y427792D02*
X174570Y425563D01*
X180144Y427793D02*
X180243Y427834D01*
X180340Y427879D01*
X180435Y427928D01*
X180528Y427980D01*
X180620Y428036D01*
X180709Y428095D01*
X180796Y428157D01*
X180880Y428223D01*
X180963Y428291D01*
X181042Y428363D01*
X181119Y428437D01*
X181193Y428514D01*
X181264Y428594D01*
X181332Y428676D01*
X181397Y428761D01*
X181459Y428848D01*
X181518Y428938D01*
X181573Y429029D01*
X181625Y429123D01*
X181673Y429218D01*
X181718Y429316D01*
X181759Y429414D01*
X181796Y429514D01*
X181830Y429616D01*
X181860Y429719D01*
X181886Y429822D01*
X181908Y429927D01*
X181927Y430032D01*
X181941Y430138D01*
X181952Y430245D01*
X181958Y430351D01*
X181961Y430458D01*
X181960Y430565D01*
X181954Y430672D01*
X181945Y430779D01*
X181932Y430885D01*
X181915Y430990D01*
X181894Y431095D01*
X181869Y431199D01*
X181840Y431302D01*
X181808Y431404D01*
X181772Y431505D01*
X181732Y431604D01*
X181688Y431702D01*
X181641Y431798D01*
X181590Y431892D01*
X181536Y431984D01*
X181479Y432074D01*
X181418Y432162D01*
X181354Y432248D01*
X181287Y432331D01*
X181217Y432412D01*
X181144Y432490D01*
X181068Y432565D01*
X180989Y432638D01*
X180908Y432707D01*
X180824Y432774D01*
X180738Y432837D01*
X180649Y432897D01*
X180559Y432954D01*
X180466Y433007D01*
X180372Y433057D01*
X180275Y433103D01*
X180177Y433146D01*
X180078Y433185D01*
X179977Y433220D01*
X179875Y433252D01*
X179771Y433280D01*
X179667Y433304D01*
X179562Y433324D01*
X179456Y433340D01*
X179350Y433352D01*
X179244Y433361D01*
X179137Y433365D01*
X179030Y433366D01*
X179029Y433366D02*
X178725Y433358D01*
X178421Y433342D01*
X178117Y433320D01*
X177814Y433290D01*
X177512Y433253D01*
X177211Y433208D01*
X176911Y433157D01*
X176613Y433098D01*
X176315Y433032D01*
X176020Y432958D01*
X175726Y432878D01*
X175435Y432791D01*
X175145Y432697D01*
X174858Y432596D01*
X174574Y432487D01*
X174292Y432373D01*
X174013Y432251D01*
X174571Y425562D02*
X174472Y425521D01*
X174375Y425476D01*
X174280Y425427D01*
X174187Y425375D01*
X174095Y425319D01*
X174006Y425260D01*
X173919Y425198D01*
X173835Y425132D01*
X173752Y425064D01*
X173673Y424992D01*
X173596Y424918D01*
X173522Y424841D01*
X173451Y424761D01*
X173383Y424679D01*
X173318Y424594D01*
X173256Y424507D01*
X173197Y424417D01*
X173142Y424326D01*
X173090Y424232D01*
X173042Y424137D01*
X172997Y424039D01*
X172956Y423941D01*
X172919Y423841D01*
X172885Y423739D01*
X172855Y423636D01*
X172829Y423533D01*
X172807Y423428D01*
X172788Y423323D01*
X172774Y423217D01*
X172763Y423110D01*
X172757Y423004D01*
X172754Y422897D01*
X172755Y422790D01*
X172761Y422683D01*
X172770Y422576D01*
X172783Y422470D01*
X172800Y422365D01*
X172821Y422260D01*
X172846Y422156D01*
X172875Y422053D01*
X172907Y421951D01*
X172943Y421850D01*
X172983Y421751D01*
X173027Y421653D01*
X173074Y421557D01*
X173125Y421463D01*
X173179Y421371D01*
X173236Y421281D01*
X173297Y421193D01*
X173361Y421107D01*
X173428Y421024D01*
X173498Y420943D01*
X173571Y420865D01*
X173647Y420790D01*
X173726Y420717D01*
X173807Y420648D01*
X173891Y420581D01*
X173977Y420518D01*
X174066Y420458D01*
X174156Y420401D01*
X174249Y420348D01*
X174343Y420298D01*
X174440Y420252D01*
X174538Y420209D01*
X174637Y420170D01*
X174738Y420135D01*
X174840Y420103D01*
X174944Y420075D01*
X175048Y420051D01*
X175153Y420031D01*
X175259Y420015D01*
X175365Y420003D01*
X175471Y419994D01*
X175578Y419990D01*
X175685Y419989D01*
X176132Y420001D01*
X176579Y420023D01*
X177025Y420056D01*
X177470Y420099D01*
X177914Y420153D01*
X178356Y420217D01*
X178797Y420292D01*
X179236Y420377D01*
X179673Y420473D01*
X180107Y420579D01*
X180539Y420695D01*
X180968Y420821D01*
X181394Y420957D01*
X181816Y421104D01*
X165616Y419989D02*
X165616Y433366D01*
X166174Y438940D02*
X166174Y440055D01*
X165059Y440055D01*
X165059Y438940D01*
X166174Y438940D01*
X157717Y433366D02*
X157717Y419989D01*
X157717Y433366D02*
X152143Y433366D01*
X152029Y433364D01*
X151915Y433358D01*
X151801Y433348D01*
X151688Y433335D01*
X151575Y433317D01*
X151463Y433296D01*
X151351Y433271D01*
X151241Y433242D01*
X151131Y433209D01*
X151023Y433173D01*
X150916Y433133D01*
X150811Y433089D01*
X150707Y433042D01*
X150605Y432991D01*
X150504Y432937D01*
X150406Y432879D01*
X150309Y432818D01*
X150215Y432754D01*
X150122Y432687D01*
X150033Y432616D01*
X149945Y432542D01*
X149861Y432466D01*
X149778Y432387D01*
X149699Y432304D01*
X149623Y432220D01*
X149549Y432132D01*
X149479Y432043D01*
X149411Y431950D01*
X149347Y431856D01*
X149286Y431760D01*
X149228Y431661D01*
X149174Y431560D01*
X149123Y431458D01*
X149076Y431354D01*
X149032Y431249D01*
X148992Y431142D01*
X148956Y431034D01*
X148923Y430924D01*
X148894Y430814D01*
X148869Y430702D01*
X148848Y430590D01*
X148830Y430477D01*
X148817Y430364D01*
X148807Y430250D01*
X148801Y430136D01*
X148799Y430022D01*
X148798Y430022D02*
X148798Y419989D01*
X137753Y419989D02*
X132179Y419989D01*
X137753Y419989D02*
X137867Y419991D01*
X137981Y419997D01*
X138095Y420007D01*
X138208Y420020D01*
X138321Y420038D01*
X138433Y420059D01*
X138545Y420084D01*
X138655Y420113D01*
X138765Y420146D01*
X138873Y420182D01*
X138980Y420222D01*
X139085Y420266D01*
X139189Y420313D01*
X139291Y420364D01*
X139392Y420418D01*
X139490Y420476D01*
X139587Y420537D01*
X139681Y420601D01*
X139774Y420668D01*
X139863Y420739D01*
X139951Y420813D01*
X140035Y420889D01*
X140118Y420968D01*
X140197Y421051D01*
X140273Y421135D01*
X140347Y421223D01*
X140418Y421312D01*
X140485Y421405D01*
X140549Y421499D01*
X140610Y421596D01*
X140668Y421694D01*
X140722Y421795D01*
X140773Y421897D01*
X140820Y422001D01*
X140864Y422106D01*
X140904Y422213D01*
X140940Y422321D01*
X140973Y422431D01*
X141002Y422541D01*
X141027Y422653D01*
X141048Y422765D01*
X141066Y422878D01*
X141079Y422991D01*
X141089Y423105D01*
X141095Y423219D01*
X141097Y423333D01*
X141097Y430022D01*
X141095Y430136D01*
X141089Y430250D01*
X141079Y430364D01*
X141066Y430477D01*
X141048Y430590D01*
X141027Y430702D01*
X141002Y430814D01*
X140973Y430924D01*
X140940Y431034D01*
X140904Y431142D01*
X140864Y431249D01*
X140820Y431354D01*
X140773Y431458D01*
X140722Y431560D01*
X140668Y431661D01*
X140610Y431759D01*
X140549Y431856D01*
X140485Y431950D01*
X140418Y432043D01*
X140347Y432132D01*
X140273Y432220D01*
X140197Y432304D01*
X140118Y432387D01*
X140035Y432466D01*
X139951Y432542D01*
X139863Y432616D01*
X139774Y432687D01*
X139681Y432754D01*
X139587Y432818D01*
X139490Y432879D01*
X139392Y432937D01*
X139291Y432991D01*
X139189Y433042D01*
X139085Y433089D01*
X138980Y433133D01*
X138873Y433173D01*
X138765Y433209D01*
X138655Y433242D01*
X138545Y433271D01*
X138433Y433296D01*
X138321Y433317D01*
X138208Y433335D01*
X138095Y433348D01*
X137981Y433358D01*
X137867Y433364D01*
X137753Y433366D01*
X132179Y433366D01*
X132179Y416645D01*
X132181Y416531D01*
X132187Y416417D01*
X132197Y416303D01*
X132210Y416190D01*
X132228Y416077D01*
X132249Y415965D01*
X132274Y415853D01*
X132303Y415743D01*
X132336Y415633D01*
X132372Y415525D01*
X132412Y415418D01*
X132456Y415313D01*
X132503Y415209D01*
X132554Y415107D01*
X132608Y415006D01*
X132666Y414908D01*
X132727Y414811D01*
X132791Y414717D01*
X132858Y414624D01*
X132929Y414535D01*
X133003Y414447D01*
X133079Y414363D01*
X133158Y414280D01*
X133241Y414201D01*
X133325Y414125D01*
X133413Y414051D01*
X133502Y413980D01*
X133595Y413913D01*
X133689Y413849D01*
X133786Y413788D01*
X133884Y413730D01*
X133985Y413676D01*
X134087Y413625D01*
X134191Y413578D01*
X134296Y413534D01*
X134403Y413494D01*
X134511Y413458D01*
X134621Y413425D01*
X134731Y413396D01*
X134843Y413371D01*
X134955Y413350D01*
X135068Y413332D01*
X135181Y413319D01*
X135295Y413309D01*
X135409Y413303D01*
X135523Y413301D01*
X135523Y413300D02*
X139982Y413300D01*
X284861Y410845D02*
X284861Y396353D01*
X284859Y396205D01*
X284853Y396056D01*
X284843Y395908D01*
X284829Y395761D01*
X284812Y395613D01*
X284790Y395466D01*
X284764Y395320D01*
X284735Y395175D01*
X284702Y395030D01*
X284665Y394886D01*
X284624Y394744D01*
X284579Y394602D01*
X284530Y394462D01*
X284478Y394323D01*
X284422Y394186D01*
X284363Y394050D01*
X284300Y393915D01*
X284233Y393783D01*
X284163Y393652D01*
X284089Y393523D01*
X284012Y393396D01*
X283932Y393272D01*
X283848Y393149D01*
X283761Y393029D01*
X283671Y392911D01*
X283578Y392795D01*
X283482Y392682D01*
X283383Y392572D01*
X283281Y392464D01*
X283176Y392359D01*
X283068Y392257D01*
X282958Y392158D01*
X282845Y392062D01*
X282729Y391969D01*
X282611Y391879D01*
X282491Y391792D01*
X282368Y391708D01*
X282244Y391628D01*
X282117Y391551D01*
X281988Y391477D01*
X281857Y391407D01*
X281725Y391340D01*
X281590Y391277D01*
X281454Y391218D01*
X281317Y391162D01*
X281178Y391110D01*
X281038Y391061D01*
X280896Y391016D01*
X280754Y390975D01*
X280610Y390938D01*
X280465Y390905D01*
X280320Y390876D01*
X280174Y390850D01*
X280027Y390828D01*
X279879Y390811D01*
X279732Y390797D01*
X279584Y390787D01*
X279435Y390781D01*
X279287Y390779D01*
X279139Y390781D01*
X278990Y390787D01*
X278842Y390797D01*
X278695Y390811D01*
X278547Y390828D01*
X278400Y390850D01*
X278254Y390876D01*
X278109Y390905D01*
X277964Y390938D01*
X277820Y390975D01*
X277678Y391016D01*
X277536Y391061D01*
X277396Y391110D01*
X277257Y391162D01*
X277120Y391218D01*
X276984Y391277D01*
X276849Y391340D01*
X276717Y391407D01*
X276586Y391477D01*
X276457Y391551D01*
X276330Y391628D01*
X276206Y391708D01*
X276083Y391792D01*
X275963Y391879D01*
X275845Y391969D01*
X275729Y392062D01*
X275616Y392158D01*
X275506Y392257D01*
X275398Y392359D01*
X275293Y392464D01*
X275191Y392572D01*
X275092Y392682D01*
X274996Y392795D01*
X274903Y392911D01*
X274813Y393029D01*
X274726Y393149D01*
X274642Y393272D01*
X274562Y393396D01*
X274485Y393523D01*
X274411Y393652D01*
X274341Y393783D01*
X274274Y393915D01*
X274211Y394050D01*
X274152Y394186D01*
X274096Y394323D01*
X274044Y394462D01*
X273995Y394602D01*
X273950Y394744D01*
X273909Y394886D01*
X273872Y395030D01*
X273839Y395175D01*
X273810Y395320D01*
X273784Y395466D01*
X273762Y395613D01*
X273745Y395761D01*
X273731Y395908D01*
X273721Y396056D01*
X273715Y396205D01*
X273713Y396353D01*
X273713Y410845D01*
X266577Y410845D02*
X262118Y390779D01*
X257659Y404156D01*
X253200Y390779D01*
X248741Y410845D01*
X241418Y401927D02*
X235844Y401927D01*
X235696Y401925D01*
X235547Y401919D01*
X235399Y401909D01*
X235252Y401895D01*
X235104Y401878D01*
X234957Y401856D01*
X234811Y401830D01*
X234666Y401801D01*
X234521Y401768D01*
X234377Y401731D01*
X234235Y401690D01*
X234093Y401645D01*
X233953Y401596D01*
X233814Y401544D01*
X233677Y401488D01*
X233541Y401429D01*
X233406Y401366D01*
X233274Y401299D01*
X233143Y401229D01*
X233014Y401155D01*
X232887Y401078D01*
X232763Y400998D01*
X232640Y400914D01*
X232520Y400827D01*
X232402Y400737D01*
X232286Y400644D01*
X232173Y400548D01*
X232063Y400449D01*
X231955Y400347D01*
X231850Y400242D01*
X231748Y400134D01*
X231649Y400024D01*
X231553Y399911D01*
X231460Y399795D01*
X231370Y399677D01*
X231283Y399557D01*
X231199Y399434D01*
X231119Y399310D01*
X231042Y399183D01*
X230968Y399054D01*
X230898Y398923D01*
X230831Y398791D01*
X230768Y398656D01*
X230709Y398520D01*
X230653Y398383D01*
X230601Y398244D01*
X230552Y398104D01*
X230507Y397962D01*
X230466Y397820D01*
X230429Y397676D01*
X230396Y397531D01*
X230367Y397386D01*
X230341Y397240D01*
X230319Y397093D01*
X230302Y396945D01*
X230288Y396798D01*
X230278Y396650D01*
X230272Y396501D01*
X230270Y396353D01*
X230272Y396205D01*
X230278Y396056D01*
X230288Y395908D01*
X230302Y395761D01*
X230319Y395613D01*
X230341Y395466D01*
X230367Y395320D01*
X230396Y395175D01*
X230429Y395030D01*
X230466Y394886D01*
X230507Y394744D01*
X230552Y394602D01*
X230601Y394462D01*
X230653Y394323D01*
X230709Y394186D01*
X230768Y394050D01*
X230831Y393915D01*
X230898Y393783D01*
X230968Y393652D01*
X231042Y393523D01*
X231119Y393396D01*
X231199Y393272D01*
X231283Y393149D01*
X231370Y393029D01*
X231460Y392911D01*
X231553Y392795D01*
X231649Y392682D01*
X231748Y392572D01*
X231850Y392464D01*
X231955Y392359D01*
X232063Y392257D01*
X232173Y392158D01*
X232286Y392062D01*
X232402Y391969D01*
X232520Y391879D01*
X232640Y391792D01*
X232763Y391708D01*
X232887Y391628D01*
X233014Y391551D01*
X233143Y391477D01*
X233274Y391407D01*
X233406Y391340D01*
X233541Y391277D01*
X233677Y391218D01*
X233814Y391162D01*
X233953Y391110D01*
X234093Y391061D01*
X234235Y391016D01*
X234377Y390975D01*
X234521Y390938D01*
X234666Y390905D01*
X234811Y390876D01*
X234957Y390850D01*
X235104Y390828D01*
X235252Y390811D01*
X235399Y390797D01*
X235547Y390787D01*
X235696Y390781D01*
X235844Y390779D01*
X241418Y390779D01*
X241418Y410845D01*
X235844Y410845D01*
X235712Y410843D01*
X235580Y410837D01*
X235448Y410827D01*
X235317Y410814D01*
X235186Y410796D01*
X235055Y410775D01*
X234926Y410749D01*
X234797Y410720D01*
X234669Y410687D01*
X234542Y410651D01*
X234416Y410610D01*
X234291Y410566D01*
X234168Y410518D01*
X234046Y410467D01*
X233926Y410412D01*
X233808Y410353D01*
X233691Y410291D01*
X233576Y410225D01*
X233464Y410157D01*
X233353Y410084D01*
X233244Y410009D01*
X233138Y409930D01*
X233034Y409849D01*
X232933Y409764D01*
X232834Y409676D01*
X232738Y409585D01*
X232645Y409492D01*
X232554Y409396D01*
X232466Y409297D01*
X232381Y409196D01*
X232300Y409092D01*
X232221Y408986D01*
X232146Y408877D01*
X232073Y408766D01*
X232005Y408654D01*
X231939Y408539D01*
X231877Y408422D01*
X231818Y408304D01*
X231763Y408184D01*
X231712Y408062D01*
X231664Y407939D01*
X231620Y407814D01*
X231579Y407688D01*
X231543Y407561D01*
X231510Y407433D01*
X231481Y407304D01*
X231455Y407175D01*
X231434Y407044D01*
X231416Y406913D01*
X231403Y406782D01*
X231393Y406650D01*
X231387Y406518D01*
X231385Y406386D01*
X231387Y406254D01*
X231393Y406122D01*
X231403Y405990D01*
X231416Y405859D01*
X231434Y405728D01*
X231455Y405597D01*
X231481Y405468D01*
X231510Y405339D01*
X231543Y405211D01*
X231579Y405084D01*
X231620Y404958D01*
X231664Y404833D01*
X231712Y404710D01*
X231763Y404588D01*
X231818Y404468D01*
X231877Y404350D01*
X231939Y404233D01*
X232005Y404118D01*
X232073Y404006D01*
X232146Y403895D01*
X232221Y403786D01*
X232300Y403680D01*
X232381Y403576D01*
X232466Y403475D01*
X232554Y403376D01*
X232645Y403280D01*
X232738Y403187D01*
X232834Y403096D01*
X232933Y403008D01*
X233034Y402923D01*
X233138Y402842D01*
X233244Y402763D01*
X233353Y402688D01*
X233464Y402615D01*
X233576Y402547D01*
X233691Y402481D01*
X233808Y402419D01*
X233926Y402360D01*
X234046Y402305D01*
X234168Y402254D01*
X234291Y402206D01*
X234416Y402162D01*
X234542Y402121D01*
X234669Y402085D01*
X234797Y402052D01*
X234926Y402023D01*
X235055Y401997D01*
X235186Y401976D01*
X235317Y401958D01*
X235448Y401945D01*
X235580Y401935D01*
X235712Y401929D01*
X235844Y401927D01*
X213151Y410845D02*
X213151Y390779D01*
X204233Y390779D01*
X197852Y395238D02*
X197852Y399697D01*
X197850Y399829D01*
X197844Y399961D01*
X197834Y400093D01*
X197821Y400224D01*
X197803Y400355D01*
X197782Y400486D01*
X197756Y400615D01*
X197727Y400744D01*
X197694Y400872D01*
X197658Y400999D01*
X197617Y401125D01*
X197573Y401250D01*
X197525Y401373D01*
X197474Y401495D01*
X197419Y401615D01*
X197360Y401733D01*
X197298Y401850D01*
X197232Y401965D01*
X197164Y402077D01*
X197091Y402188D01*
X197016Y402297D01*
X196937Y402403D01*
X196856Y402507D01*
X196771Y402608D01*
X196683Y402707D01*
X196592Y402803D01*
X196499Y402896D01*
X196403Y402987D01*
X196304Y403075D01*
X196203Y403160D01*
X196099Y403241D01*
X195993Y403320D01*
X195884Y403395D01*
X195773Y403468D01*
X195661Y403536D01*
X195546Y403602D01*
X195429Y403664D01*
X195311Y403723D01*
X195191Y403778D01*
X195069Y403829D01*
X194946Y403877D01*
X194821Y403921D01*
X194695Y403962D01*
X194568Y403998D01*
X194440Y404031D01*
X194311Y404060D01*
X194182Y404086D01*
X194051Y404107D01*
X193920Y404125D01*
X193789Y404138D01*
X193657Y404148D01*
X193525Y404154D01*
X193393Y404156D01*
X193261Y404154D01*
X193129Y404148D01*
X192997Y404138D01*
X192866Y404125D01*
X192735Y404107D01*
X192604Y404086D01*
X192475Y404060D01*
X192346Y404031D01*
X192218Y403998D01*
X192091Y403962D01*
X191965Y403921D01*
X191840Y403877D01*
X191717Y403829D01*
X191595Y403778D01*
X191475Y403723D01*
X191357Y403664D01*
X191240Y403602D01*
X191125Y403536D01*
X191013Y403468D01*
X190902Y403395D01*
X190793Y403320D01*
X190687Y403241D01*
X190583Y403160D01*
X190482Y403075D01*
X190383Y402987D01*
X190287Y402896D01*
X190194Y402803D01*
X190103Y402707D01*
X190015Y402608D01*
X189930Y402507D01*
X189849Y402403D01*
X189770Y402297D01*
X189695Y402188D01*
X189622Y402077D01*
X189554Y401965D01*
X189488Y401850D01*
X189426Y401733D01*
X189367Y401615D01*
X189312Y401495D01*
X189261Y401373D01*
X189213Y401250D01*
X189169Y401125D01*
X189128Y400999D01*
X189092Y400872D01*
X189059Y400744D01*
X189030Y400615D01*
X189004Y400486D01*
X188983Y400355D01*
X188965Y400224D01*
X188952Y400093D01*
X188942Y399961D01*
X188936Y399829D01*
X188934Y399697D01*
X188934Y395238D01*
X188936Y395106D01*
X188942Y394974D01*
X188952Y394842D01*
X188965Y394711D01*
X188983Y394580D01*
X189004Y394449D01*
X189030Y394320D01*
X189059Y394191D01*
X189092Y394063D01*
X189128Y393936D01*
X189169Y393810D01*
X189213Y393685D01*
X189261Y393562D01*
X189312Y393440D01*
X189367Y393320D01*
X189426Y393202D01*
X189488Y393085D01*
X189554Y392970D01*
X189622Y392858D01*
X189695Y392747D01*
X189770Y392638D01*
X189849Y392532D01*
X189930Y392428D01*
X190015Y392327D01*
X190103Y392228D01*
X190194Y392132D01*
X190287Y392039D01*
X190383Y391948D01*
X190482Y391860D01*
X190583Y391775D01*
X190687Y391694D01*
X190793Y391615D01*
X190902Y391540D01*
X191013Y391467D01*
X191125Y391399D01*
X191240Y391333D01*
X191357Y391271D01*
X191475Y391212D01*
X191595Y391157D01*
X191717Y391106D01*
X191840Y391058D01*
X191965Y391014D01*
X192091Y390973D01*
X192218Y390937D01*
X192346Y390904D01*
X192475Y390875D01*
X192604Y390849D01*
X192735Y390828D01*
X192866Y390810D01*
X192997Y390797D01*
X193129Y390787D01*
X193261Y390781D01*
X193393Y390779D01*
X193525Y390781D01*
X193657Y390787D01*
X193789Y390797D01*
X193920Y390810D01*
X194051Y390828D01*
X194182Y390849D01*
X194311Y390875D01*
X194440Y390904D01*
X194568Y390937D01*
X194695Y390973D01*
X194821Y391014D01*
X194946Y391058D01*
X195069Y391106D01*
X195191Y391157D01*
X195311Y391212D01*
X195429Y391271D01*
X195546Y391333D01*
X195661Y391399D01*
X195773Y391467D01*
X195884Y391540D01*
X195993Y391615D01*
X196099Y391694D01*
X196203Y391775D01*
X196304Y391860D01*
X196403Y391948D01*
X196499Y392039D01*
X196592Y392132D01*
X196683Y392228D01*
X196771Y392327D01*
X196856Y392428D01*
X196937Y392532D01*
X197016Y392638D01*
X197091Y392747D01*
X197164Y392858D01*
X197232Y392970D01*
X197298Y393085D01*
X197360Y393202D01*
X197419Y393320D01*
X197474Y393440D01*
X197525Y393562D01*
X197573Y393685D01*
X197617Y393810D01*
X197658Y393936D01*
X197694Y394063D01*
X197727Y394191D01*
X197756Y394320D01*
X197782Y394449D01*
X197803Y394580D01*
X197821Y394711D01*
X197834Y394842D01*
X197844Y394974D01*
X197850Y395106D01*
X197852Y395238D01*
X178424Y390779D02*
X173965Y390779D01*
X178424Y390779D02*
X178538Y390781D01*
X178652Y390787D01*
X178766Y390797D01*
X178879Y390810D01*
X178992Y390828D01*
X179104Y390849D01*
X179216Y390874D01*
X179326Y390903D01*
X179436Y390936D01*
X179544Y390972D01*
X179651Y391012D01*
X179756Y391056D01*
X179860Y391103D01*
X179962Y391154D01*
X180063Y391208D01*
X180161Y391266D01*
X180258Y391327D01*
X180352Y391391D01*
X180445Y391458D01*
X180534Y391529D01*
X180622Y391603D01*
X180706Y391679D01*
X180789Y391758D01*
X180868Y391841D01*
X180944Y391925D01*
X181018Y392013D01*
X181089Y392102D01*
X181156Y392195D01*
X181220Y392289D01*
X181281Y392386D01*
X181339Y392484D01*
X181393Y392585D01*
X181444Y392687D01*
X181491Y392791D01*
X181535Y392896D01*
X181575Y393003D01*
X181611Y393111D01*
X181644Y393221D01*
X181673Y393331D01*
X181698Y393443D01*
X181719Y393555D01*
X181737Y393668D01*
X181750Y393781D01*
X181760Y393895D01*
X181766Y394009D01*
X181768Y394123D01*
X181769Y394123D02*
X181769Y400812D01*
X181768Y400812D02*
X181766Y400926D01*
X181760Y401040D01*
X181750Y401154D01*
X181737Y401267D01*
X181719Y401380D01*
X181698Y401492D01*
X181673Y401604D01*
X181644Y401714D01*
X181611Y401824D01*
X181575Y401932D01*
X181535Y402039D01*
X181491Y402144D01*
X181444Y402248D01*
X181393Y402350D01*
X181339Y402451D01*
X181281Y402549D01*
X181220Y402646D01*
X181156Y402740D01*
X181089Y402833D01*
X181018Y402922D01*
X180944Y403010D01*
X180868Y403094D01*
X180789Y403177D01*
X180706Y403256D01*
X180622Y403332D01*
X180534Y403406D01*
X180445Y403477D01*
X180352Y403544D01*
X180258Y403608D01*
X180161Y403669D01*
X180063Y403727D01*
X179962Y403781D01*
X179860Y403832D01*
X179756Y403879D01*
X179651Y403923D01*
X179544Y403963D01*
X179436Y403999D01*
X179326Y404032D01*
X179216Y404061D01*
X179104Y404086D01*
X178992Y404107D01*
X178879Y404125D01*
X178766Y404138D01*
X178652Y404148D01*
X178538Y404154D01*
X178424Y404156D01*
X173965Y404156D01*
X163736Y398582D02*
X158719Y398582D01*
X163736Y398583D02*
X163860Y398581D01*
X163983Y398575D01*
X164107Y398565D01*
X164230Y398552D01*
X164353Y398534D01*
X164474Y398512D01*
X164596Y398487D01*
X164716Y398458D01*
X164835Y398425D01*
X164954Y398388D01*
X165071Y398348D01*
X165186Y398303D01*
X165300Y398256D01*
X165413Y398204D01*
X165524Y398149D01*
X165633Y398091D01*
X165740Y398029D01*
X165846Y397964D01*
X165949Y397895D01*
X166050Y397823D01*
X166148Y397748D01*
X166244Y397670D01*
X166338Y397589D01*
X166429Y397505D01*
X166517Y397418D01*
X166602Y397329D01*
X166685Y397236D01*
X166765Y397141D01*
X166841Y397044D01*
X166914Y396944D01*
X166985Y396842D01*
X167052Y396738D01*
X167115Y396632D01*
X167175Y396524D01*
X167232Y396414D01*
X167285Y396302D01*
X167335Y396189D01*
X167381Y396074D01*
X167423Y395957D01*
X167462Y395840D01*
X167497Y395721D01*
X167528Y395601D01*
X167555Y395480D01*
X167579Y395359D01*
X167598Y395236D01*
X167614Y395113D01*
X167626Y394990D01*
X167634Y394867D01*
X167638Y394743D01*
X167638Y394619D01*
X167634Y394495D01*
X167626Y394372D01*
X167614Y394249D01*
X167598Y394126D01*
X167579Y394003D01*
X167555Y393882D01*
X167528Y393761D01*
X167497Y393641D01*
X167462Y393522D01*
X167423Y393405D01*
X167381Y393288D01*
X167335Y393173D01*
X167285Y393060D01*
X167232Y392948D01*
X167175Y392838D01*
X167115Y392730D01*
X167052Y392624D01*
X166985Y392520D01*
X166914Y392418D01*
X166841Y392318D01*
X166765Y392221D01*
X166685Y392126D01*
X166602Y392033D01*
X166517Y391944D01*
X166429Y391857D01*
X166338Y391773D01*
X166244Y391692D01*
X166148Y391614D01*
X166050Y391539D01*
X165949Y391467D01*
X165846Y391398D01*
X165740Y391333D01*
X165633Y391271D01*
X165524Y391213D01*
X165413Y391158D01*
X165300Y391106D01*
X165186Y391059D01*
X165071Y391014D01*
X164954Y390974D01*
X164835Y390937D01*
X164716Y390904D01*
X164596Y390875D01*
X164474Y390850D01*
X164353Y390828D01*
X164230Y390810D01*
X164107Y390797D01*
X163983Y390787D01*
X163860Y390781D01*
X163736Y390779D01*
X158719Y390779D01*
X158719Y400812D01*
X158720Y400812D02*
X158722Y400926D01*
X158728Y401040D01*
X158738Y401154D01*
X158751Y401267D01*
X158769Y401380D01*
X158790Y401492D01*
X158815Y401604D01*
X158844Y401714D01*
X158877Y401824D01*
X158913Y401932D01*
X158953Y402039D01*
X158997Y402144D01*
X159044Y402248D01*
X159095Y402350D01*
X159149Y402451D01*
X159207Y402549D01*
X159268Y402646D01*
X159332Y402740D01*
X159399Y402833D01*
X159470Y402922D01*
X159544Y403010D01*
X159620Y403094D01*
X159699Y403177D01*
X159782Y403256D01*
X159866Y403332D01*
X159954Y403406D01*
X160043Y403477D01*
X160136Y403544D01*
X160230Y403608D01*
X160327Y403669D01*
X160425Y403727D01*
X160526Y403781D01*
X160628Y403832D01*
X160732Y403879D01*
X160837Y403923D01*
X160944Y403963D01*
X161052Y403999D01*
X161162Y404032D01*
X161272Y404061D01*
X161384Y404086D01*
X161496Y404107D01*
X161609Y404125D01*
X161722Y404138D01*
X161836Y404148D01*
X161950Y404154D01*
X162064Y404156D01*
X166523Y404156D01*
X150517Y410845D02*
X150517Y394123D01*
X150515Y394009D01*
X150509Y393895D01*
X150499Y393781D01*
X150486Y393668D01*
X150468Y393555D01*
X150447Y393443D01*
X150422Y393331D01*
X150393Y393221D01*
X150360Y393111D01*
X150324Y393003D01*
X150284Y392896D01*
X150240Y392791D01*
X150193Y392687D01*
X150142Y392585D01*
X150088Y392484D01*
X150030Y392386D01*
X149969Y392289D01*
X149905Y392195D01*
X149838Y392102D01*
X149767Y392013D01*
X149693Y391925D01*
X149617Y391841D01*
X149538Y391758D01*
X149455Y391679D01*
X149371Y391603D01*
X149283Y391529D01*
X149194Y391458D01*
X149101Y391391D01*
X149007Y391327D01*
X148910Y391266D01*
X148812Y391208D01*
X148711Y391154D01*
X148609Y391103D01*
X148505Y391056D01*
X148400Y391012D01*
X148293Y390972D01*
X148185Y390936D01*
X148075Y390903D01*
X147965Y390874D01*
X147853Y390849D01*
X147741Y390828D01*
X147628Y390810D01*
X147515Y390797D01*
X147401Y390787D01*
X147287Y390781D01*
X147173Y390779D01*
X140868Y390779D02*
X140868Y404156D01*
X141425Y409730D02*
X141425Y410845D01*
X140310Y410845D01*
X140310Y409730D01*
X141425Y409730D01*
X134204Y404156D02*
X125286Y404156D01*
X134204Y390779D01*
X125286Y390779D01*
X114918Y398582D02*
X109902Y398582D01*
X114918Y398583D02*
X115042Y398581D01*
X115165Y398575D01*
X115289Y398565D01*
X115412Y398552D01*
X115535Y398534D01*
X115656Y398512D01*
X115778Y398487D01*
X115898Y398458D01*
X116017Y398425D01*
X116136Y398388D01*
X116253Y398348D01*
X116368Y398303D01*
X116482Y398256D01*
X116595Y398204D01*
X116706Y398149D01*
X116815Y398091D01*
X116922Y398029D01*
X117028Y397964D01*
X117131Y397895D01*
X117232Y397823D01*
X117330Y397748D01*
X117426Y397670D01*
X117520Y397589D01*
X117611Y397505D01*
X117699Y397418D01*
X117784Y397329D01*
X117867Y397236D01*
X117947Y397141D01*
X118023Y397044D01*
X118096Y396944D01*
X118167Y396842D01*
X118234Y396738D01*
X118297Y396632D01*
X118357Y396524D01*
X118414Y396414D01*
X118467Y396302D01*
X118517Y396189D01*
X118563Y396074D01*
X118605Y395957D01*
X118644Y395840D01*
X118679Y395721D01*
X118710Y395601D01*
X118737Y395480D01*
X118761Y395359D01*
X118780Y395236D01*
X118796Y395113D01*
X118808Y394990D01*
X118816Y394867D01*
X118820Y394743D01*
X118820Y394619D01*
X118816Y394495D01*
X118808Y394372D01*
X118796Y394249D01*
X118780Y394126D01*
X118761Y394003D01*
X118737Y393882D01*
X118710Y393761D01*
X118679Y393641D01*
X118644Y393522D01*
X118605Y393405D01*
X118563Y393288D01*
X118517Y393173D01*
X118467Y393060D01*
X118414Y392948D01*
X118357Y392838D01*
X118297Y392730D01*
X118234Y392624D01*
X118167Y392520D01*
X118096Y392418D01*
X118023Y392318D01*
X117947Y392221D01*
X117867Y392126D01*
X117784Y392033D01*
X117699Y391944D01*
X117611Y391857D01*
X117520Y391773D01*
X117426Y391692D01*
X117330Y391614D01*
X117232Y391539D01*
X117131Y391467D01*
X117028Y391398D01*
X116922Y391333D01*
X116815Y391271D01*
X116706Y391213D01*
X116595Y391158D01*
X116482Y391106D01*
X116368Y391059D01*
X116253Y391014D01*
X116136Y390974D01*
X116017Y390937D01*
X115898Y390904D01*
X115778Y390875D01*
X115656Y390850D01*
X115535Y390828D01*
X115412Y390810D01*
X115289Y390797D01*
X115165Y390787D01*
X115042Y390781D01*
X114918Y390779D01*
X109902Y390779D01*
X109902Y400812D01*
X109904Y400926D01*
X109910Y401040D01*
X109920Y401154D01*
X109933Y401267D01*
X109951Y401380D01*
X109972Y401492D01*
X109997Y401604D01*
X110026Y401714D01*
X110059Y401824D01*
X110095Y401932D01*
X110135Y402039D01*
X110179Y402144D01*
X110226Y402248D01*
X110277Y402350D01*
X110331Y402451D01*
X110389Y402549D01*
X110450Y402646D01*
X110514Y402740D01*
X110581Y402833D01*
X110652Y402922D01*
X110726Y403010D01*
X110802Y403094D01*
X110881Y403177D01*
X110964Y403256D01*
X111048Y403332D01*
X111136Y403406D01*
X111225Y403477D01*
X111318Y403544D01*
X111412Y403608D01*
X111509Y403669D01*
X111607Y403727D01*
X111708Y403781D01*
X111810Y403832D01*
X111914Y403879D01*
X112019Y403923D01*
X112126Y403963D01*
X112234Y403999D01*
X112344Y404032D01*
X112454Y404061D01*
X112566Y404086D01*
X112678Y404107D01*
X112791Y404125D01*
X112904Y404138D01*
X113018Y404148D01*
X113132Y404154D01*
X113246Y404156D01*
X117705Y404156D01*
X103533Y404156D02*
X96844Y404156D01*
X101303Y410845D02*
X101303Y394123D01*
X101301Y394009D01*
X101295Y393895D01*
X101285Y393781D01*
X101272Y393668D01*
X101254Y393555D01*
X101233Y393443D01*
X101208Y393331D01*
X101179Y393221D01*
X101146Y393111D01*
X101110Y393003D01*
X101070Y392896D01*
X101026Y392791D01*
X100979Y392687D01*
X100928Y392585D01*
X100874Y392484D01*
X100816Y392386D01*
X100755Y392289D01*
X100691Y392195D01*
X100624Y392102D01*
X100553Y392013D01*
X100479Y391925D01*
X100403Y391841D01*
X100324Y391758D01*
X100241Y391679D01*
X100157Y391603D01*
X100069Y391529D01*
X99980Y391458D01*
X99887Y391391D01*
X99793Y391327D01*
X99696Y391266D01*
X99598Y391208D01*
X99497Y391154D01*
X99395Y391103D01*
X99291Y391056D01*
X99186Y391012D01*
X99079Y390972D01*
X98971Y390936D01*
X98861Y390903D01*
X98751Y390874D01*
X98639Y390849D01*
X98527Y390828D01*
X98414Y390810D01*
X98301Y390797D01*
X98187Y390787D01*
X98073Y390781D01*
X97959Y390779D01*
X96844Y390779D01*
X90196Y390779D02*
X90196Y404156D01*
X90754Y409730D02*
X90754Y410845D01*
X89639Y410845D01*
X89639Y409730D01*
X90754Y409730D01*
X82915Y399697D02*
X82915Y395238D01*
X82914Y399697D02*
X82912Y399829D01*
X82906Y399961D01*
X82896Y400093D01*
X82883Y400224D01*
X82865Y400355D01*
X82844Y400486D01*
X82818Y400615D01*
X82789Y400744D01*
X82756Y400872D01*
X82720Y400999D01*
X82679Y401125D01*
X82635Y401250D01*
X82587Y401373D01*
X82536Y401495D01*
X82481Y401615D01*
X82422Y401733D01*
X82360Y401850D01*
X82294Y401965D01*
X82226Y402077D01*
X82153Y402188D01*
X82078Y402297D01*
X81999Y402403D01*
X81918Y402507D01*
X81833Y402608D01*
X81745Y402707D01*
X81654Y402803D01*
X81561Y402896D01*
X81465Y402987D01*
X81366Y403075D01*
X81265Y403160D01*
X81161Y403241D01*
X81055Y403320D01*
X80946Y403395D01*
X80835Y403468D01*
X80723Y403536D01*
X80608Y403602D01*
X80491Y403664D01*
X80373Y403723D01*
X80253Y403778D01*
X80131Y403829D01*
X80008Y403877D01*
X79883Y403921D01*
X79757Y403962D01*
X79630Y403998D01*
X79502Y404031D01*
X79373Y404060D01*
X79244Y404086D01*
X79113Y404107D01*
X78982Y404125D01*
X78851Y404138D01*
X78719Y404148D01*
X78587Y404154D01*
X78455Y404156D01*
X78323Y404154D01*
X78191Y404148D01*
X78059Y404138D01*
X77928Y404125D01*
X77797Y404107D01*
X77666Y404086D01*
X77537Y404060D01*
X77408Y404031D01*
X77280Y403998D01*
X77153Y403962D01*
X77027Y403921D01*
X76902Y403877D01*
X76779Y403829D01*
X76657Y403778D01*
X76537Y403723D01*
X76419Y403664D01*
X76302Y403602D01*
X76187Y403536D01*
X76075Y403468D01*
X75964Y403395D01*
X75855Y403320D01*
X75749Y403241D01*
X75645Y403160D01*
X75544Y403075D01*
X75445Y402987D01*
X75349Y402896D01*
X75256Y402803D01*
X75165Y402707D01*
X75077Y402608D01*
X74992Y402507D01*
X74911Y402403D01*
X74832Y402297D01*
X74757Y402188D01*
X74684Y402077D01*
X74616Y401965D01*
X74550Y401850D01*
X74488Y401733D01*
X74429Y401615D01*
X74374Y401495D01*
X74323Y401373D01*
X74275Y401250D01*
X74231Y401125D01*
X74190Y400999D01*
X74154Y400872D01*
X74121Y400744D01*
X74092Y400615D01*
X74066Y400486D01*
X74045Y400355D01*
X74027Y400224D01*
X74014Y400093D01*
X74004Y399961D01*
X73998Y399829D01*
X73996Y399697D01*
X73996Y395238D01*
X73998Y395106D01*
X74004Y394974D01*
X74014Y394842D01*
X74027Y394711D01*
X74045Y394580D01*
X74066Y394449D01*
X74092Y394320D01*
X74121Y394191D01*
X74154Y394063D01*
X74190Y393936D01*
X74231Y393810D01*
X74275Y393685D01*
X74323Y393562D01*
X74374Y393440D01*
X74429Y393320D01*
X74488Y393202D01*
X74550Y393085D01*
X74616Y392970D01*
X74684Y392858D01*
X74757Y392747D01*
X74832Y392638D01*
X74911Y392532D01*
X74992Y392428D01*
X75077Y392327D01*
X75165Y392228D01*
X75256Y392132D01*
X75349Y392039D01*
X75445Y391948D01*
X75544Y391860D01*
X75645Y391775D01*
X75749Y391694D01*
X75855Y391615D01*
X75964Y391540D01*
X76075Y391467D01*
X76187Y391399D01*
X76302Y391333D01*
X76419Y391271D01*
X76537Y391212D01*
X76657Y391157D01*
X76779Y391106D01*
X76902Y391058D01*
X77027Y391014D01*
X77153Y390973D01*
X77280Y390937D01*
X77408Y390904D01*
X77537Y390875D01*
X77666Y390849D01*
X77797Y390828D01*
X77928Y390810D01*
X78059Y390797D01*
X78191Y390787D01*
X78323Y390781D01*
X78455Y390779D01*
X78587Y390781D01*
X78719Y390787D01*
X78851Y390797D01*
X78982Y390810D01*
X79113Y390828D01*
X79244Y390849D01*
X79373Y390875D01*
X79502Y390904D01*
X79630Y390937D01*
X79757Y390973D01*
X79883Y391014D01*
X80008Y391058D01*
X80131Y391106D01*
X80253Y391157D01*
X80373Y391212D01*
X80491Y391271D01*
X80608Y391333D01*
X80723Y391399D01*
X80835Y391467D01*
X80946Y391540D01*
X81055Y391615D01*
X81161Y391694D01*
X81265Y391775D01*
X81366Y391860D01*
X81465Y391948D01*
X81561Y392039D01*
X81654Y392132D01*
X81745Y392228D01*
X81833Y392327D01*
X81918Y392428D01*
X81999Y392532D01*
X82078Y392638D01*
X82153Y392747D01*
X82226Y392858D01*
X82294Y392970D01*
X82360Y393085D01*
X82422Y393202D01*
X82481Y393320D01*
X82536Y393440D01*
X82587Y393562D01*
X82635Y393685D01*
X82679Y393810D01*
X82720Y393936D01*
X82756Y394063D01*
X82789Y394191D01*
X82818Y394320D01*
X82844Y394449D01*
X82865Y394580D01*
X82883Y394711D01*
X82896Y394842D01*
X82906Y394974D01*
X82912Y395106D01*
X82914Y395238D01*
X66230Y390779D02*
X66230Y404156D01*
X60656Y404156D01*
X60542Y404154D01*
X60428Y404148D01*
X60314Y404138D01*
X60201Y404125D01*
X60088Y404107D01*
X59976Y404086D01*
X59864Y404061D01*
X59754Y404032D01*
X59644Y403999D01*
X59536Y403963D01*
X59429Y403923D01*
X59324Y403879D01*
X59220Y403832D01*
X59118Y403781D01*
X59017Y403727D01*
X58919Y403669D01*
X58822Y403608D01*
X58728Y403544D01*
X58635Y403477D01*
X58546Y403406D01*
X58458Y403332D01*
X58374Y403256D01*
X58291Y403177D01*
X58212Y403094D01*
X58136Y403010D01*
X58062Y402922D01*
X57992Y402833D01*
X57924Y402740D01*
X57860Y402646D01*
X57799Y402550D01*
X57741Y402451D01*
X57687Y402350D01*
X57636Y402248D01*
X57589Y402144D01*
X57545Y402039D01*
X57505Y401932D01*
X57469Y401824D01*
X57436Y401714D01*
X57407Y401604D01*
X57382Y401492D01*
X57361Y401380D01*
X57343Y401267D01*
X57330Y401154D01*
X57320Y401040D01*
X57314Y400926D01*
X57312Y400812D01*
X57312Y390779D01*
X347091Y244475D02*
X347091Y224409D01*
X347091Y244475D02*
X341517Y244475D01*
X341369Y244473D01*
X341220Y244467D01*
X341072Y244457D01*
X340925Y244443D01*
X340777Y244426D01*
X340630Y244404D01*
X340484Y244378D01*
X340339Y244349D01*
X340194Y244316D01*
X340050Y244279D01*
X339908Y244238D01*
X339766Y244193D01*
X339626Y244144D01*
X339487Y244092D01*
X339350Y244036D01*
X339214Y243977D01*
X339079Y243914D01*
X338947Y243847D01*
X338816Y243777D01*
X338687Y243703D01*
X338560Y243626D01*
X338436Y243546D01*
X338313Y243462D01*
X338193Y243375D01*
X338075Y243285D01*
X337959Y243192D01*
X337846Y243096D01*
X337736Y242997D01*
X337628Y242895D01*
X337523Y242790D01*
X337421Y242682D01*
X337322Y242572D01*
X337226Y242459D01*
X337133Y242343D01*
X337043Y242225D01*
X336956Y242105D01*
X336872Y241982D01*
X336792Y241858D01*
X336715Y241731D01*
X336641Y241602D01*
X336571Y241471D01*
X336504Y241339D01*
X336441Y241204D01*
X336382Y241068D01*
X336326Y240931D01*
X336274Y240792D01*
X336225Y240652D01*
X336180Y240510D01*
X336139Y240368D01*
X336102Y240224D01*
X336069Y240079D01*
X336040Y239934D01*
X336014Y239788D01*
X335992Y239641D01*
X335975Y239493D01*
X335961Y239346D01*
X335951Y239198D01*
X335945Y239049D01*
X335943Y238901D01*
X335945Y238753D01*
X335951Y238604D01*
X335961Y238456D01*
X335975Y238309D01*
X335992Y238161D01*
X336014Y238014D01*
X336040Y237868D01*
X336069Y237723D01*
X336102Y237578D01*
X336139Y237434D01*
X336180Y237292D01*
X336225Y237150D01*
X336274Y237010D01*
X336326Y236871D01*
X336382Y236734D01*
X336441Y236598D01*
X336504Y236463D01*
X336571Y236331D01*
X336641Y236200D01*
X336715Y236071D01*
X336792Y235944D01*
X336872Y235820D01*
X336956Y235697D01*
X337043Y235577D01*
X337133Y235459D01*
X337226Y235343D01*
X337322Y235230D01*
X337421Y235120D01*
X337523Y235012D01*
X337628Y234907D01*
X337736Y234805D01*
X337846Y234706D01*
X337959Y234610D01*
X338075Y234517D01*
X338193Y234427D01*
X338313Y234340D01*
X338436Y234256D01*
X338560Y234176D01*
X338687Y234099D01*
X338816Y234025D01*
X338947Y233955D01*
X339079Y233888D01*
X339214Y233825D01*
X339350Y233766D01*
X339487Y233710D01*
X339626Y233658D01*
X339766Y233609D01*
X339908Y233564D01*
X340050Y233523D01*
X340194Y233486D01*
X340339Y233453D01*
X340484Y233424D01*
X340630Y233398D01*
X340777Y233376D01*
X340925Y233359D01*
X341072Y233345D01*
X341220Y233335D01*
X341369Y233329D01*
X341517Y233327D01*
X347091Y233327D01*
X328783Y237786D02*
X328783Y224409D01*
X328783Y237786D02*
X322094Y237786D01*
X322094Y235557D01*
X312665Y232212D02*
X307649Y232212D01*
X312665Y232213D02*
X312789Y232211D01*
X312912Y232205D01*
X313036Y232195D01*
X313159Y232182D01*
X313282Y232164D01*
X313403Y232142D01*
X313525Y232117D01*
X313645Y232088D01*
X313764Y232055D01*
X313883Y232018D01*
X314000Y231978D01*
X314115Y231933D01*
X314229Y231886D01*
X314342Y231834D01*
X314453Y231779D01*
X314562Y231721D01*
X314669Y231659D01*
X314775Y231594D01*
X314878Y231525D01*
X314979Y231453D01*
X315077Y231378D01*
X315173Y231300D01*
X315267Y231219D01*
X315358Y231135D01*
X315446Y231048D01*
X315531Y230959D01*
X315614Y230866D01*
X315694Y230771D01*
X315770Y230674D01*
X315843Y230574D01*
X315914Y230472D01*
X315981Y230368D01*
X316044Y230262D01*
X316104Y230154D01*
X316161Y230044D01*
X316214Y229932D01*
X316264Y229819D01*
X316310Y229704D01*
X316352Y229587D01*
X316391Y229470D01*
X316426Y229351D01*
X316457Y229231D01*
X316484Y229110D01*
X316508Y228989D01*
X316527Y228866D01*
X316543Y228743D01*
X316555Y228620D01*
X316563Y228497D01*
X316567Y228373D01*
X316567Y228249D01*
X316563Y228125D01*
X316555Y228002D01*
X316543Y227879D01*
X316527Y227756D01*
X316508Y227633D01*
X316484Y227512D01*
X316457Y227391D01*
X316426Y227271D01*
X316391Y227152D01*
X316352Y227035D01*
X316310Y226918D01*
X316264Y226803D01*
X316214Y226690D01*
X316161Y226578D01*
X316104Y226468D01*
X316044Y226360D01*
X315981Y226254D01*
X315914Y226150D01*
X315843Y226048D01*
X315770Y225948D01*
X315694Y225851D01*
X315614Y225756D01*
X315531Y225663D01*
X315446Y225574D01*
X315358Y225487D01*
X315267Y225403D01*
X315173Y225322D01*
X315077Y225244D01*
X314979Y225169D01*
X314878Y225097D01*
X314775Y225028D01*
X314669Y224963D01*
X314562Y224901D01*
X314453Y224843D01*
X314342Y224788D01*
X314229Y224736D01*
X314115Y224689D01*
X314000Y224644D01*
X313883Y224604D01*
X313764Y224567D01*
X313645Y224534D01*
X313525Y224505D01*
X313403Y224480D01*
X313282Y224458D01*
X313159Y224440D01*
X313036Y224427D01*
X312912Y224417D01*
X312789Y224411D01*
X312665Y224409D01*
X307649Y224409D01*
X307649Y234442D01*
X307651Y234556D01*
X307657Y234670D01*
X307667Y234784D01*
X307680Y234897D01*
X307698Y235010D01*
X307719Y235122D01*
X307744Y235234D01*
X307773Y235344D01*
X307806Y235454D01*
X307842Y235562D01*
X307882Y235669D01*
X307926Y235774D01*
X307973Y235878D01*
X308024Y235980D01*
X308078Y236081D01*
X308136Y236179D01*
X308197Y236276D01*
X308261Y236370D01*
X308328Y236463D01*
X308399Y236552D01*
X308473Y236640D01*
X308549Y236724D01*
X308628Y236807D01*
X308711Y236886D01*
X308795Y236962D01*
X308883Y237036D01*
X308972Y237107D01*
X309065Y237174D01*
X309159Y237238D01*
X309256Y237299D01*
X309354Y237357D01*
X309455Y237411D01*
X309557Y237462D01*
X309661Y237509D01*
X309766Y237553D01*
X309873Y237593D01*
X309981Y237629D01*
X310091Y237662D01*
X310201Y237691D01*
X310313Y237716D01*
X310425Y237737D01*
X310538Y237755D01*
X310651Y237768D01*
X310765Y237778D01*
X310879Y237784D01*
X310993Y237786D01*
X315452Y237786D01*
X299200Y237786D02*
X299200Y224409D01*
X299200Y237786D02*
X293626Y237786D01*
X293512Y237784D01*
X293398Y237778D01*
X293284Y237768D01*
X293171Y237755D01*
X293058Y237737D01*
X292946Y237716D01*
X292834Y237691D01*
X292724Y237662D01*
X292614Y237629D01*
X292506Y237593D01*
X292399Y237553D01*
X292294Y237509D01*
X292190Y237462D01*
X292088Y237411D01*
X291987Y237357D01*
X291889Y237299D01*
X291792Y237238D01*
X291698Y237174D01*
X291605Y237107D01*
X291516Y237036D01*
X291428Y236962D01*
X291344Y236886D01*
X291261Y236807D01*
X291182Y236724D01*
X291106Y236640D01*
X291032Y236552D01*
X290962Y236463D01*
X290894Y236370D01*
X290830Y236276D01*
X290769Y236180D01*
X290711Y236081D01*
X290657Y235980D01*
X290606Y235878D01*
X290559Y235774D01*
X290515Y235669D01*
X290475Y235562D01*
X290439Y235454D01*
X290406Y235344D01*
X290377Y235234D01*
X290352Y235122D01*
X290331Y235010D01*
X290313Y234897D01*
X290300Y234784D01*
X290290Y234670D01*
X290284Y234556D01*
X290282Y234442D01*
X290282Y224409D01*
X278678Y232212D02*
X273662Y232212D01*
X278678Y232213D02*
X278802Y232211D01*
X278925Y232205D01*
X279049Y232195D01*
X279172Y232182D01*
X279295Y232164D01*
X279416Y232142D01*
X279538Y232117D01*
X279658Y232088D01*
X279777Y232055D01*
X279896Y232018D01*
X280013Y231978D01*
X280128Y231933D01*
X280242Y231886D01*
X280355Y231834D01*
X280466Y231779D01*
X280575Y231721D01*
X280682Y231659D01*
X280788Y231594D01*
X280891Y231525D01*
X280992Y231453D01*
X281090Y231378D01*
X281186Y231300D01*
X281280Y231219D01*
X281371Y231135D01*
X281459Y231048D01*
X281544Y230959D01*
X281627Y230866D01*
X281707Y230771D01*
X281783Y230674D01*
X281856Y230574D01*
X281927Y230472D01*
X281994Y230368D01*
X282057Y230262D01*
X282117Y230154D01*
X282174Y230044D01*
X282227Y229932D01*
X282277Y229819D01*
X282323Y229704D01*
X282365Y229587D01*
X282404Y229470D01*
X282439Y229351D01*
X282470Y229231D01*
X282497Y229110D01*
X282521Y228989D01*
X282540Y228866D01*
X282556Y228743D01*
X282568Y228620D01*
X282576Y228497D01*
X282580Y228373D01*
X282580Y228249D01*
X282576Y228125D01*
X282568Y228002D01*
X282556Y227879D01*
X282540Y227756D01*
X282521Y227633D01*
X282497Y227512D01*
X282470Y227391D01*
X282439Y227271D01*
X282404Y227152D01*
X282365Y227035D01*
X282323Y226918D01*
X282277Y226803D01*
X282227Y226690D01*
X282174Y226578D01*
X282117Y226468D01*
X282057Y226360D01*
X281994Y226254D01*
X281927Y226150D01*
X281856Y226048D01*
X281783Y225948D01*
X281707Y225851D01*
X281627Y225756D01*
X281544Y225663D01*
X281459Y225574D01*
X281371Y225487D01*
X281280Y225403D01*
X281186Y225322D01*
X281090Y225244D01*
X280992Y225169D01*
X280891Y225097D01*
X280788Y225028D01*
X280682Y224963D01*
X280575Y224901D01*
X280466Y224843D01*
X280355Y224788D01*
X280242Y224736D01*
X280128Y224689D01*
X280013Y224644D01*
X279896Y224604D01*
X279777Y224567D01*
X279658Y224534D01*
X279538Y224505D01*
X279416Y224480D01*
X279295Y224458D01*
X279172Y224440D01*
X279049Y224427D01*
X278925Y224417D01*
X278802Y224411D01*
X278678Y224409D01*
X273662Y224409D01*
X273662Y234442D01*
X273664Y234556D01*
X273670Y234670D01*
X273680Y234784D01*
X273693Y234897D01*
X273711Y235010D01*
X273732Y235122D01*
X273757Y235234D01*
X273786Y235344D01*
X273819Y235454D01*
X273855Y235562D01*
X273895Y235669D01*
X273939Y235774D01*
X273986Y235878D01*
X274037Y235980D01*
X274091Y236081D01*
X274149Y236179D01*
X274210Y236276D01*
X274274Y236370D01*
X274341Y236463D01*
X274412Y236552D01*
X274486Y236640D01*
X274562Y236724D01*
X274641Y236807D01*
X274724Y236886D01*
X274808Y236962D01*
X274896Y237036D01*
X274985Y237107D01*
X275078Y237174D01*
X275172Y237238D01*
X275269Y237299D01*
X275367Y237357D01*
X275468Y237411D01*
X275570Y237462D01*
X275674Y237509D01*
X275779Y237553D01*
X275886Y237593D01*
X275994Y237629D01*
X276104Y237662D01*
X276214Y237691D01*
X276326Y237716D01*
X276438Y237737D01*
X276551Y237755D01*
X276664Y237768D01*
X276778Y237778D01*
X276892Y237784D01*
X277006Y237786D01*
X281465Y237786D01*
X266449Y237786D02*
X261990Y224409D01*
X257531Y237786D01*
X347091Y215265D02*
X347091Y195199D01*
X340402Y204117D02*
X347091Y215265D01*
X340402Y204117D02*
X333714Y215265D01*
X333714Y195199D01*
X325572Y195199D02*
X325572Y208576D01*
X326129Y214150D02*
X326129Y215265D01*
X325014Y215265D01*
X325014Y214150D01*
X326129Y214150D01*
X317672Y215265D02*
X317672Y195199D01*
X317672Y208576D02*
X312098Y208576D01*
X311984Y208574D01*
X311870Y208568D01*
X311756Y208558D01*
X311643Y208545D01*
X311530Y208527D01*
X311418Y208506D01*
X311306Y208481D01*
X311196Y208452D01*
X311086Y208419D01*
X310978Y208383D01*
X310871Y208343D01*
X310766Y208299D01*
X310662Y208252D01*
X310560Y208201D01*
X310459Y208147D01*
X310361Y208089D01*
X310264Y208028D01*
X310170Y207964D01*
X310077Y207897D01*
X309988Y207826D01*
X309900Y207752D01*
X309816Y207676D01*
X309733Y207597D01*
X309654Y207514D01*
X309578Y207430D01*
X309504Y207342D01*
X309434Y207253D01*
X309366Y207160D01*
X309302Y207066D01*
X309241Y206970D01*
X309183Y206871D01*
X309129Y206770D01*
X309078Y206668D01*
X309031Y206564D01*
X308987Y206459D01*
X308947Y206352D01*
X308911Y206244D01*
X308878Y206134D01*
X308849Y206024D01*
X308824Y205912D01*
X308803Y205800D01*
X308785Y205687D01*
X308772Y205574D01*
X308762Y205460D01*
X308756Y205346D01*
X308754Y205232D01*
X308754Y195199D01*
X300854Y195199D02*
X300854Y208576D01*
X301411Y214150D02*
X301411Y215265D01*
X300297Y215265D01*
X300297Y214150D01*
X301411Y214150D01*
X292876Y208576D02*
X292876Y195199D01*
X292876Y208576D02*
X286187Y208576D01*
X286187Y206347D01*
X341517Y179677D02*
X347091Y179677D01*
X341517Y179677D02*
X341369Y179675D01*
X341220Y179669D01*
X341072Y179659D01*
X340925Y179645D01*
X340777Y179628D01*
X340630Y179606D01*
X340484Y179580D01*
X340339Y179551D01*
X340194Y179518D01*
X340050Y179481D01*
X339908Y179440D01*
X339766Y179395D01*
X339626Y179346D01*
X339487Y179294D01*
X339350Y179238D01*
X339214Y179179D01*
X339079Y179116D01*
X338947Y179049D01*
X338816Y178979D01*
X338687Y178905D01*
X338560Y178828D01*
X338436Y178748D01*
X338313Y178664D01*
X338193Y178577D01*
X338075Y178487D01*
X337959Y178394D01*
X337846Y178298D01*
X337736Y178199D01*
X337628Y178097D01*
X337523Y177992D01*
X337421Y177884D01*
X337322Y177774D01*
X337226Y177661D01*
X337133Y177545D01*
X337043Y177427D01*
X336956Y177307D01*
X336872Y177184D01*
X336792Y177060D01*
X336715Y176933D01*
X336641Y176804D01*
X336571Y176673D01*
X336504Y176541D01*
X336441Y176406D01*
X336382Y176270D01*
X336326Y176133D01*
X336274Y175994D01*
X336225Y175854D01*
X336180Y175712D01*
X336139Y175570D01*
X336102Y175426D01*
X336069Y175281D01*
X336040Y175136D01*
X336014Y174990D01*
X335992Y174843D01*
X335975Y174695D01*
X335961Y174548D01*
X335951Y174400D01*
X335945Y174251D01*
X335943Y174103D01*
X335945Y173955D01*
X335951Y173806D01*
X335961Y173658D01*
X335975Y173511D01*
X335992Y173363D01*
X336014Y173216D01*
X336040Y173070D01*
X336069Y172925D01*
X336102Y172780D01*
X336139Y172636D01*
X336180Y172494D01*
X336225Y172352D01*
X336274Y172212D01*
X336326Y172073D01*
X336382Y171936D01*
X336441Y171800D01*
X336504Y171665D01*
X336571Y171533D01*
X336641Y171402D01*
X336715Y171273D01*
X336792Y171146D01*
X336872Y171022D01*
X336956Y170899D01*
X337043Y170779D01*
X337133Y170661D01*
X337226Y170545D01*
X337322Y170432D01*
X337421Y170322D01*
X337523Y170214D01*
X337628Y170109D01*
X337736Y170007D01*
X337846Y169908D01*
X337959Y169812D01*
X338075Y169719D01*
X338193Y169629D01*
X338313Y169542D01*
X338436Y169458D01*
X338560Y169378D01*
X338687Y169301D01*
X338816Y169227D01*
X338947Y169157D01*
X339079Y169090D01*
X339214Y169027D01*
X339350Y168968D01*
X339487Y168912D01*
X339626Y168860D01*
X339766Y168811D01*
X339908Y168766D01*
X340050Y168725D01*
X340194Y168688D01*
X340339Y168655D01*
X340484Y168626D01*
X340630Y168600D01*
X340777Y168578D01*
X340925Y168561D01*
X341072Y168547D01*
X341220Y168537D01*
X341369Y168531D01*
X341517Y168529D01*
X347091Y168529D01*
X347091Y188595D01*
X341517Y188595D01*
X341385Y188593D01*
X341253Y188587D01*
X341121Y188577D01*
X340990Y188564D01*
X340859Y188546D01*
X340728Y188525D01*
X340599Y188499D01*
X340470Y188470D01*
X340342Y188437D01*
X340215Y188401D01*
X340089Y188360D01*
X339964Y188316D01*
X339841Y188268D01*
X339719Y188217D01*
X339599Y188162D01*
X339481Y188103D01*
X339364Y188041D01*
X339249Y187975D01*
X339137Y187907D01*
X339026Y187834D01*
X338917Y187759D01*
X338811Y187680D01*
X338707Y187599D01*
X338606Y187514D01*
X338507Y187426D01*
X338411Y187335D01*
X338318Y187242D01*
X338227Y187146D01*
X338139Y187047D01*
X338054Y186946D01*
X337973Y186842D01*
X337894Y186736D01*
X337819Y186627D01*
X337746Y186516D01*
X337678Y186404D01*
X337612Y186289D01*
X337550Y186172D01*
X337491Y186054D01*
X337436Y185934D01*
X337385Y185812D01*
X337337Y185689D01*
X337293Y185564D01*
X337252Y185438D01*
X337216Y185311D01*
X337183Y185183D01*
X337154Y185054D01*
X337128Y184925D01*
X337107Y184794D01*
X337089Y184663D01*
X337076Y184532D01*
X337066Y184400D01*
X337060Y184268D01*
X337058Y184136D01*
X337060Y184004D01*
X337066Y183872D01*
X337076Y183740D01*
X337089Y183609D01*
X337107Y183478D01*
X337128Y183347D01*
X337154Y183218D01*
X337183Y183089D01*
X337216Y182961D01*
X337252Y182834D01*
X337293Y182708D01*
X337337Y182583D01*
X337385Y182460D01*
X337436Y182338D01*
X337491Y182218D01*
X337550Y182100D01*
X337612Y181983D01*
X337678Y181868D01*
X337746Y181756D01*
X337819Y181645D01*
X337894Y181536D01*
X337973Y181430D01*
X338054Y181326D01*
X338139Y181225D01*
X338227Y181126D01*
X338318Y181030D01*
X338411Y180937D01*
X338507Y180846D01*
X338606Y180758D01*
X338707Y180673D01*
X338811Y180592D01*
X338917Y180513D01*
X339026Y180438D01*
X339137Y180365D01*
X339249Y180297D01*
X339364Y180231D01*
X339481Y180169D01*
X339599Y180110D01*
X339719Y180055D01*
X339841Y180004D01*
X339964Y179956D01*
X340089Y179912D01*
X340215Y179871D01*
X340342Y179835D01*
X340470Y179802D01*
X340599Y179773D01*
X340728Y179747D01*
X340859Y179726D01*
X340990Y179708D01*
X341121Y179695D01*
X341253Y179685D01*
X341385Y179679D01*
X341517Y179677D01*
X325642Y176332D02*
X320626Y176332D01*
X325642Y176333D02*
X325766Y176331D01*
X325889Y176325D01*
X326013Y176315D01*
X326136Y176302D01*
X326259Y176284D01*
X326380Y176262D01*
X326502Y176237D01*
X326622Y176208D01*
X326741Y176175D01*
X326860Y176138D01*
X326977Y176098D01*
X327092Y176053D01*
X327206Y176006D01*
X327319Y175954D01*
X327430Y175899D01*
X327539Y175841D01*
X327646Y175779D01*
X327752Y175714D01*
X327855Y175645D01*
X327956Y175573D01*
X328054Y175498D01*
X328150Y175420D01*
X328244Y175339D01*
X328335Y175255D01*
X328423Y175168D01*
X328508Y175079D01*
X328591Y174986D01*
X328671Y174891D01*
X328747Y174794D01*
X328820Y174694D01*
X328891Y174592D01*
X328958Y174488D01*
X329021Y174382D01*
X329081Y174274D01*
X329138Y174164D01*
X329191Y174052D01*
X329241Y173939D01*
X329287Y173824D01*
X329329Y173707D01*
X329368Y173590D01*
X329403Y173471D01*
X329434Y173351D01*
X329461Y173230D01*
X329485Y173109D01*
X329504Y172986D01*
X329520Y172863D01*
X329532Y172740D01*
X329540Y172617D01*
X329544Y172493D01*
X329544Y172369D01*
X329540Y172245D01*
X329532Y172122D01*
X329520Y171999D01*
X329504Y171876D01*
X329485Y171753D01*
X329461Y171632D01*
X329434Y171511D01*
X329403Y171391D01*
X329368Y171272D01*
X329329Y171155D01*
X329287Y171038D01*
X329241Y170923D01*
X329191Y170810D01*
X329138Y170698D01*
X329081Y170588D01*
X329021Y170480D01*
X328958Y170374D01*
X328891Y170270D01*
X328820Y170168D01*
X328747Y170068D01*
X328671Y169971D01*
X328591Y169876D01*
X328508Y169783D01*
X328423Y169694D01*
X328335Y169607D01*
X328244Y169523D01*
X328150Y169442D01*
X328054Y169364D01*
X327956Y169289D01*
X327855Y169217D01*
X327752Y169148D01*
X327646Y169083D01*
X327539Y169021D01*
X327430Y168963D01*
X327319Y168908D01*
X327206Y168856D01*
X327092Y168809D01*
X326977Y168764D01*
X326860Y168724D01*
X326741Y168687D01*
X326622Y168654D01*
X326502Y168625D01*
X326380Y168600D01*
X326259Y168578D01*
X326136Y168560D01*
X326013Y168547D01*
X325889Y168537D01*
X325766Y168531D01*
X325642Y168529D01*
X320626Y168529D01*
X320626Y178562D01*
X320628Y178676D01*
X320634Y178790D01*
X320644Y178904D01*
X320657Y179017D01*
X320675Y179130D01*
X320696Y179242D01*
X320721Y179354D01*
X320750Y179464D01*
X320783Y179574D01*
X320819Y179682D01*
X320859Y179789D01*
X320903Y179894D01*
X320950Y179998D01*
X321001Y180100D01*
X321055Y180201D01*
X321113Y180299D01*
X321174Y180396D01*
X321238Y180490D01*
X321305Y180583D01*
X321376Y180672D01*
X321450Y180760D01*
X321526Y180844D01*
X321605Y180927D01*
X321688Y181006D01*
X321772Y181082D01*
X321860Y181156D01*
X321949Y181227D01*
X322042Y181294D01*
X322136Y181358D01*
X322233Y181419D01*
X322331Y181477D01*
X322432Y181531D01*
X322534Y181582D01*
X322638Y181629D01*
X322743Y181673D01*
X322850Y181713D01*
X322958Y181749D01*
X323068Y181782D01*
X323178Y181811D01*
X323290Y181836D01*
X323402Y181857D01*
X323515Y181875D01*
X323628Y181888D01*
X323742Y181898D01*
X323856Y181904D01*
X323970Y181906D01*
X328429Y181906D01*
X312423Y188595D02*
X312423Y171873D01*
X312421Y171759D01*
X312415Y171645D01*
X312405Y171531D01*
X312392Y171418D01*
X312374Y171305D01*
X312353Y171193D01*
X312328Y171081D01*
X312299Y170971D01*
X312266Y170861D01*
X312230Y170753D01*
X312190Y170646D01*
X312146Y170541D01*
X312099Y170437D01*
X312048Y170335D01*
X311994Y170234D01*
X311936Y170136D01*
X311875Y170039D01*
X311811Y169945D01*
X311744Y169852D01*
X311673Y169763D01*
X311599Y169675D01*
X311523Y169591D01*
X311444Y169508D01*
X311361Y169429D01*
X311277Y169353D01*
X311189Y169279D01*
X311100Y169208D01*
X311007Y169141D01*
X310913Y169077D01*
X310816Y169016D01*
X310718Y168958D01*
X310617Y168904D01*
X310515Y168853D01*
X310411Y168806D01*
X310306Y168762D01*
X310199Y168722D01*
X310091Y168686D01*
X309981Y168653D01*
X309871Y168624D01*
X309759Y168599D01*
X309647Y168578D01*
X309534Y168560D01*
X309421Y168547D01*
X309307Y168537D01*
X309193Y168531D01*
X309079Y168529D01*
X299071Y176332D02*
X294054Y176332D01*
X299071Y176333D02*
X299195Y176331D01*
X299318Y176325D01*
X299442Y176315D01*
X299565Y176302D01*
X299688Y176284D01*
X299809Y176262D01*
X299931Y176237D01*
X300051Y176208D01*
X300170Y176175D01*
X300289Y176138D01*
X300406Y176098D01*
X300521Y176053D01*
X300635Y176006D01*
X300748Y175954D01*
X300859Y175899D01*
X300968Y175841D01*
X301075Y175779D01*
X301181Y175714D01*
X301284Y175645D01*
X301385Y175573D01*
X301483Y175498D01*
X301579Y175420D01*
X301673Y175339D01*
X301764Y175255D01*
X301852Y175168D01*
X301937Y175079D01*
X302020Y174986D01*
X302100Y174891D01*
X302176Y174794D01*
X302249Y174694D01*
X302320Y174592D01*
X302387Y174488D01*
X302450Y174382D01*
X302510Y174274D01*
X302567Y174164D01*
X302620Y174052D01*
X302670Y173939D01*
X302716Y173824D01*
X302758Y173707D01*
X302797Y173590D01*
X302832Y173471D01*
X302863Y173351D01*
X302890Y173230D01*
X302914Y173109D01*
X302933Y172986D01*
X302949Y172863D01*
X302961Y172740D01*
X302969Y172617D01*
X302973Y172493D01*
X302973Y172369D01*
X302969Y172245D01*
X302961Y172122D01*
X302949Y171999D01*
X302933Y171876D01*
X302914Y171753D01*
X302890Y171632D01*
X302863Y171511D01*
X302832Y171391D01*
X302797Y171272D01*
X302758Y171155D01*
X302716Y171038D01*
X302670Y170923D01*
X302620Y170810D01*
X302567Y170698D01*
X302510Y170588D01*
X302450Y170480D01*
X302387Y170374D01*
X302320Y170270D01*
X302249Y170168D01*
X302176Y170068D01*
X302100Y169971D01*
X302020Y169876D01*
X301937Y169783D01*
X301852Y169694D01*
X301764Y169607D01*
X301673Y169523D01*
X301579Y169442D01*
X301483Y169364D01*
X301385Y169289D01*
X301284Y169217D01*
X301181Y169148D01*
X301075Y169083D01*
X300968Y169021D01*
X300859Y168963D01*
X300748Y168908D01*
X300635Y168856D01*
X300521Y168809D01*
X300406Y168764D01*
X300289Y168724D01*
X300170Y168687D01*
X300051Y168654D01*
X299931Y168625D01*
X299809Y168600D01*
X299688Y168578D01*
X299565Y168560D01*
X299442Y168547D01*
X299318Y168537D01*
X299195Y168531D01*
X299071Y168529D01*
X294054Y168529D01*
X294054Y178562D01*
X294056Y178676D01*
X294062Y178790D01*
X294072Y178904D01*
X294085Y179017D01*
X294103Y179130D01*
X294124Y179242D01*
X294149Y179354D01*
X294178Y179464D01*
X294211Y179574D01*
X294247Y179682D01*
X294287Y179789D01*
X294331Y179894D01*
X294378Y179998D01*
X294429Y180100D01*
X294483Y180201D01*
X294541Y180299D01*
X294602Y180396D01*
X294666Y180490D01*
X294733Y180583D01*
X294804Y180672D01*
X294878Y180760D01*
X294954Y180844D01*
X295033Y180927D01*
X295116Y181006D01*
X295200Y181082D01*
X295288Y181156D01*
X295377Y181227D01*
X295470Y181294D01*
X295564Y181358D01*
X295661Y181419D01*
X295759Y181477D01*
X295860Y181531D01*
X295962Y181582D01*
X296066Y181629D01*
X296171Y181673D01*
X296278Y181713D01*
X296386Y181749D01*
X296496Y181782D01*
X296606Y181811D01*
X296718Y181836D01*
X296830Y181857D01*
X296943Y181875D01*
X297056Y181888D01*
X297170Y181898D01*
X297284Y181904D01*
X297398Y181906D01*
X297399Y181906D02*
X301858Y181906D01*
X286301Y181906D02*
X286301Y165185D01*
X286302Y165185D02*
X286304Y165071D01*
X286310Y164957D01*
X286320Y164843D01*
X286333Y164730D01*
X286351Y164617D01*
X286372Y164505D01*
X286397Y164393D01*
X286426Y164283D01*
X286459Y164173D01*
X286495Y164065D01*
X286535Y163958D01*
X286579Y163853D01*
X286626Y163749D01*
X286677Y163647D01*
X286731Y163546D01*
X286789Y163448D01*
X286850Y163351D01*
X286914Y163257D01*
X286981Y163164D01*
X287052Y163075D01*
X287126Y162987D01*
X287202Y162903D01*
X287281Y162820D01*
X287364Y162741D01*
X287448Y162665D01*
X287536Y162591D01*
X287625Y162520D01*
X287718Y162453D01*
X287812Y162389D01*
X287909Y162328D01*
X288007Y162270D01*
X288108Y162216D01*
X288210Y162165D01*
X288314Y162118D01*
X288419Y162074D01*
X288526Y162034D01*
X288634Y161998D01*
X288744Y161965D01*
X288854Y161936D01*
X288966Y161911D01*
X289078Y161890D01*
X289191Y161872D01*
X289304Y161859D01*
X289418Y161849D01*
X289532Y161843D01*
X289646Y161841D01*
X289646Y161840D02*
X290761Y161840D01*
X286859Y187480D02*
X286859Y188595D01*
X285744Y188595D01*
X285744Y187480D01*
X286859Y187480D01*
X278674Y181906D02*
X278674Y168529D01*
X279232Y187480D02*
X279232Y188595D01*
X278117Y188595D01*
X278117Y187480D01*
X279232Y187480D01*
X345821Y160655D02*
X345821Y140589D01*
X345821Y148392D02*
X334673Y160655D01*
X341362Y152852D02*
X334673Y140589D01*
X324372Y148392D02*
X319356Y148392D01*
X324372Y148393D02*
X324496Y148391D01*
X324619Y148385D01*
X324743Y148375D01*
X324866Y148362D01*
X324989Y148344D01*
X325110Y148322D01*
X325232Y148297D01*
X325352Y148268D01*
X325471Y148235D01*
X325590Y148198D01*
X325707Y148158D01*
X325822Y148113D01*
X325936Y148066D01*
X326049Y148014D01*
X326160Y147959D01*
X326269Y147901D01*
X326376Y147839D01*
X326482Y147774D01*
X326585Y147705D01*
X326686Y147633D01*
X326784Y147558D01*
X326880Y147480D01*
X326974Y147399D01*
X327065Y147315D01*
X327153Y147228D01*
X327238Y147139D01*
X327321Y147046D01*
X327401Y146951D01*
X327477Y146854D01*
X327550Y146754D01*
X327621Y146652D01*
X327688Y146548D01*
X327751Y146442D01*
X327811Y146334D01*
X327868Y146224D01*
X327921Y146112D01*
X327971Y145999D01*
X328017Y145884D01*
X328059Y145767D01*
X328098Y145650D01*
X328133Y145531D01*
X328164Y145411D01*
X328191Y145290D01*
X328215Y145169D01*
X328234Y145046D01*
X328250Y144923D01*
X328262Y144800D01*
X328270Y144677D01*
X328274Y144553D01*
X328274Y144429D01*
X328270Y144305D01*
X328262Y144182D01*
X328250Y144059D01*
X328234Y143936D01*
X328215Y143813D01*
X328191Y143692D01*
X328164Y143571D01*
X328133Y143451D01*
X328098Y143332D01*
X328059Y143215D01*
X328017Y143098D01*
X327971Y142983D01*
X327921Y142870D01*
X327868Y142758D01*
X327811Y142648D01*
X327751Y142540D01*
X327688Y142434D01*
X327621Y142330D01*
X327550Y142228D01*
X327477Y142128D01*
X327401Y142031D01*
X327321Y141936D01*
X327238Y141843D01*
X327153Y141754D01*
X327065Y141667D01*
X326974Y141583D01*
X326880Y141502D01*
X326784Y141424D01*
X326686Y141349D01*
X326585Y141277D01*
X326482Y141208D01*
X326376Y141143D01*
X326269Y141081D01*
X326160Y141023D01*
X326049Y140968D01*
X325936Y140916D01*
X325822Y140869D01*
X325707Y140824D01*
X325590Y140784D01*
X325471Y140747D01*
X325352Y140714D01*
X325232Y140685D01*
X325110Y140660D01*
X324989Y140638D01*
X324866Y140620D01*
X324743Y140607D01*
X324619Y140597D01*
X324496Y140591D01*
X324372Y140589D01*
X319356Y140589D01*
X319356Y150622D01*
X319358Y150736D01*
X319364Y150850D01*
X319374Y150964D01*
X319387Y151077D01*
X319405Y151190D01*
X319426Y151302D01*
X319451Y151414D01*
X319480Y151524D01*
X319513Y151634D01*
X319549Y151742D01*
X319589Y151849D01*
X319633Y151954D01*
X319680Y152058D01*
X319731Y152160D01*
X319785Y152261D01*
X319843Y152359D01*
X319904Y152456D01*
X319968Y152550D01*
X320035Y152643D01*
X320106Y152732D01*
X320180Y152820D01*
X320256Y152904D01*
X320335Y152987D01*
X320418Y153066D01*
X320502Y153142D01*
X320590Y153216D01*
X320679Y153287D01*
X320772Y153354D01*
X320866Y153418D01*
X320963Y153479D01*
X321061Y153537D01*
X321162Y153591D01*
X321264Y153642D01*
X321368Y153689D01*
X321473Y153733D01*
X321580Y153773D01*
X321688Y153809D01*
X321798Y153842D01*
X321908Y153871D01*
X322020Y153896D01*
X322132Y153917D01*
X322245Y153935D01*
X322358Y153948D01*
X322472Y153958D01*
X322586Y153964D01*
X322700Y153966D01*
X327159Y153966D01*
X312143Y153966D02*
X307683Y140589D01*
X303224Y153966D01*
X292857Y148392D02*
X287841Y148392D01*
X292857Y148393D02*
X292981Y148391D01*
X293104Y148385D01*
X293228Y148375D01*
X293351Y148362D01*
X293474Y148344D01*
X293595Y148322D01*
X293717Y148297D01*
X293837Y148268D01*
X293956Y148235D01*
X294075Y148198D01*
X294192Y148158D01*
X294307Y148113D01*
X294421Y148066D01*
X294534Y148014D01*
X294645Y147959D01*
X294754Y147901D01*
X294861Y147839D01*
X294967Y147774D01*
X295070Y147705D01*
X295171Y147633D01*
X295269Y147558D01*
X295365Y147480D01*
X295459Y147399D01*
X295550Y147315D01*
X295638Y147228D01*
X295723Y147139D01*
X295806Y147046D01*
X295886Y146951D01*
X295962Y146854D01*
X296035Y146754D01*
X296106Y146652D01*
X296173Y146548D01*
X296236Y146442D01*
X296296Y146334D01*
X296353Y146224D01*
X296406Y146112D01*
X296456Y145999D01*
X296502Y145884D01*
X296544Y145767D01*
X296583Y145650D01*
X296618Y145531D01*
X296649Y145411D01*
X296676Y145290D01*
X296700Y145169D01*
X296719Y145046D01*
X296735Y144923D01*
X296747Y144800D01*
X296755Y144677D01*
X296759Y144553D01*
X296759Y144429D01*
X296755Y144305D01*
X296747Y144182D01*
X296735Y144059D01*
X296719Y143936D01*
X296700Y143813D01*
X296676Y143692D01*
X296649Y143571D01*
X296618Y143451D01*
X296583Y143332D01*
X296544Y143215D01*
X296502Y143098D01*
X296456Y142983D01*
X296406Y142870D01*
X296353Y142758D01*
X296296Y142648D01*
X296236Y142540D01*
X296173Y142434D01*
X296106Y142330D01*
X296035Y142228D01*
X295962Y142128D01*
X295886Y142031D01*
X295806Y141936D01*
X295723Y141843D01*
X295638Y141754D01*
X295550Y141667D01*
X295459Y141583D01*
X295365Y141502D01*
X295269Y141424D01*
X295171Y141349D01*
X295070Y141277D01*
X294967Y141208D01*
X294861Y141143D01*
X294754Y141081D01*
X294645Y141023D01*
X294534Y140968D01*
X294421Y140916D01*
X294307Y140869D01*
X294192Y140824D01*
X294075Y140784D01*
X293956Y140747D01*
X293837Y140714D01*
X293717Y140685D01*
X293595Y140660D01*
X293474Y140638D01*
X293351Y140620D01*
X293228Y140607D01*
X293104Y140597D01*
X292981Y140591D01*
X292857Y140589D01*
X287841Y140589D01*
X287841Y150622D01*
X287843Y150736D01*
X287849Y150850D01*
X287859Y150964D01*
X287872Y151077D01*
X287890Y151190D01*
X287911Y151302D01*
X287936Y151414D01*
X287965Y151524D01*
X287998Y151634D01*
X288034Y151742D01*
X288074Y151849D01*
X288118Y151954D01*
X288165Y152058D01*
X288216Y152160D01*
X288270Y152261D01*
X288328Y152359D01*
X288389Y152456D01*
X288453Y152550D01*
X288520Y152643D01*
X288591Y152732D01*
X288665Y152820D01*
X288741Y152904D01*
X288820Y152987D01*
X288903Y153066D01*
X288987Y153142D01*
X289075Y153216D01*
X289164Y153287D01*
X289257Y153354D01*
X289351Y153418D01*
X289448Y153479D01*
X289546Y153537D01*
X289647Y153591D01*
X289749Y153642D01*
X289853Y153689D01*
X289958Y153733D01*
X290065Y153773D01*
X290173Y153809D01*
X290283Y153842D01*
X290393Y153871D01*
X290505Y153896D01*
X290617Y153917D01*
X290730Y153935D01*
X290843Y153948D01*
X290957Y153958D01*
X291071Y153964D01*
X291185Y153966D01*
X295644Y153966D01*
X279391Y153966D02*
X279391Y140589D01*
X279391Y153966D02*
X273818Y153966D01*
X273704Y153964D01*
X273590Y153958D01*
X273476Y153948D01*
X273363Y153935D01*
X273250Y153917D01*
X273138Y153896D01*
X273026Y153871D01*
X272916Y153842D01*
X272806Y153809D01*
X272698Y153773D01*
X272591Y153733D01*
X272486Y153689D01*
X272382Y153642D01*
X272280Y153591D01*
X272179Y153537D01*
X272081Y153479D01*
X271984Y153418D01*
X271890Y153354D01*
X271797Y153287D01*
X271708Y153216D01*
X271620Y153142D01*
X271536Y153066D01*
X271453Y152987D01*
X271374Y152904D01*
X271298Y152820D01*
X271224Y152732D01*
X271154Y152643D01*
X271086Y152550D01*
X271022Y152456D01*
X270961Y152360D01*
X270903Y152261D01*
X270849Y152160D01*
X270798Y152058D01*
X270751Y151954D01*
X270707Y151849D01*
X270667Y151742D01*
X270631Y151634D01*
X270598Y151524D01*
X270569Y151414D01*
X270544Y151302D01*
X270523Y151190D01*
X270505Y151077D01*
X270492Y150964D01*
X270482Y150850D01*
X270476Y150736D01*
X270474Y150622D01*
X270473Y150622D02*
X270473Y140589D01*
D11*
X133350Y480060D02*
X120650Y480060D01*
X657050Y463550D02*
X657050Y450850D01*
X714550Y476250D02*
X714550Y488950D01*
X352250Y463550D02*
X352250Y450850D01*
X79550Y184150D02*
X79550Y171450D01*
M02*
