G04 EAGLE Gerber RS-274X export*
G75*
%MOMM*%
%FSLAX34Y34*%
%LPD*%
%INSoldermask Top*%
%IPPOS*%
%AMOC8*
5,1,8,0,0,1.08239X$1,22.5*%
G01*
%ADD10R,1.603200X1.803200*%
%ADD11R,1.303200X1.203200*%
%ADD12R,1.203200X1.303200*%
%ADD13C,0.505344*%
%ADD14R,1.413200X0.933200*%
%ADD15C,2.082800*%
%ADD16R,1.473200X0.838200*%
%ADD17R,0.838200X1.473200*%
%ADD18R,1.203200X1.353200*%
%ADD19C,1.053200*%
%ADD20R,2.503200X1.803200*%
%ADD21R,2.653200X1.203200*%
%ADD22R,1.203200X2.653200*%
%ADD23R,1.403200X0.753200*%
%ADD24R,1.473200X0.762000*%
%ADD25R,0.762000X1.473200*%
%ADD26R,2.203200X1.403200*%
%ADD27R,1.303200X1.903200*%
%ADD28R,2.133600X5.537200*%
%ADD29C,0.959600*%


D10*
X139700Y459500D03*
X139700Y429500D03*
D11*
X194700Y406400D03*
X211700Y406400D03*
D10*
X215900Y459500D03*
X215900Y429500D03*
D12*
X330200Y135500D03*
X330200Y118500D03*
X330200Y220100D03*
X330200Y237100D03*
D11*
X122800Y203200D03*
X105800Y203200D03*
D13*
X756720Y479110D02*
X756720Y486090D01*
X756720Y479110D02*
X749740Y479110D01*
X749740Y486090D01*
X756720Y486090D01*
X756720Y483910D02*
X749740Y483910D01*
X774260Y486090D02*
X774260Y479110D01*
X767280Y479110D01*
X767280Y486090D01*
X774260Y486090D01*
X774260Y483910D02*
X767280Y483910D01*
X756720Y460690D02*
X756720Y453710D01*
X749740Y453710D01*
X749740Y460690D01*
X756720Y460690D01*
X756720Y458510D02*
X749740Y458510D01*
X774260Y460690D02*
X774260Y453710D01*
X767280Y453710D01*
X767280Y460690D01*
X774260Y460690D01*
X774260Y458510D02*
X767280Y458510D01*
X756720Y435290D02*
X756720Y428310D01*
X749740Y428310D01*
X749740Y435290D01*
X756720Y435290D01*
X756720Y433110D02*
X749740Y433110D01*
X774260Y435290D02*
X774260Y428310D01*
X767280Y428310D01*
X767280Y435290D01*
X774260Y435290D01*
X774260Y433110D02*
X767280Y433110D01*
X756720Y409890D02*
X756720Y402910D01*
X749740Y402910D01*
X749740Y409890D01*
X756720Y409890D01*
X756720Y407710D02*
X749740Y407710D01*
X774260Y409890D02*
X774260Y402910D01*
X767280Y402910D01*
X767280Y409890D01*
X774260Y409890D01*
X774260Y407710D02*
X767280Y407710D01*
D14*
X93000Y482600D03*
X59400Y482600D03*
D13*
X170380Y371790D02*
X170380Y364810D01*
X170380Y371790D02*
X177360Y371790D01*
X177360Y364810D01*
X170380Y364810D01*
X170380Y369610D02*
X177360Y369610D01*
X152840Y371790D02*
X152840Y364810D01*
X152840Y371790D02*
X159820Y371790D01*
X159820Y364810D01*
X152840Y364810D01*
X152840Y369610D02*
X159820Y369610D01*
D15*
X622300Y381000D03*
X596900Y381000D03*
X571500Y381000D03*
X546100Y381000D03*
X63500Y76200D03*
X88900Y76200D03*
X114300Y76200D03*
X139700Y76200D03*
X165100Y76200D03*
X190500Y76200D03*
X215900Y76200D03*
X241300Y76200D03*
X101600Y279400D03*
X127000Y279400D03*
X152400Y279400D03*
X177800Y279400D03*
X203200Y279400D03*
X228600Y279400D03*
X101600Y254000D03*
X127000Y254000D03*
X152400Y254000D03*
X177800Y254000D03*
X203200Y254000D03*
X228600Y254000D03*
X673100Y266700D03*
X673100Y241300D03*
X673100Y215900D03*
X673100Y190500D03*
X673100Y165100D03*
X673100Y139700D03*
X673100Y114300D03*
X673100Y88900D03*
X419100Y88900D03*
X419100Y114300D03*
X419100Y139700D03*
X419100Y165100D03*
X419100Y190500D03*
X419100Y215900D03*
X419100Y241300D03*
X419100Y266700D03*
X698500Y190500D03*
X698500Y215900D03*
X698500Y241300D03*
X698500Y266700D03*
X520700Y381000D03*
X495300Y381000D03*
X469900Y381000D03*
X444500Y381000D03*
X63500Y520700D03*
X88900Y520700D03*
X127000Y495300D03*
X127000Y520700D03*
X152400Y495300D03*
X152400Y520700D03*
X177800Y495300D03*
X177800Y520700D03*
X203200Y495300D03*
X203200Y520700D03*
X673100Y457200D03*
X698500Y457200D03*
X673100Y431800D03*
X698500Y431800D03*
X673100Y406400D03*
X698500Y406400D03*
X698500Y482600D03*
X673100Y482600D03*
X698500Y508000D03*
X673100Y508000D03*
X698500Y533400D03*
X673100Y533400D03*
X368300Y457200D03*
X393700Y457200D03*
X368300Y431800D03*
X393700Y431800D03*
X368300Y406400D03*
X393700Y406400D03*
X63500Y177800D03*
X38100Y177800D03*
X63500Y203200D03*
X38100Y203200D03*
X63500Y228600D03*
X38100Y228600D03*
X114300Y50800D03*
X139700Y50800D03*
X165100Y50800D03*
X190500Y50800D03*
X215900Y50800D03*
X241300Y50800D03*
D16*
X330200Y385064D03*
X330200Y376936D03*
X114300Y364236D03*
X114300Y372364D03*
X330200Y461264D03*
X330200Y453136D03*
D17*
X383540Y533400D03*
X393700Y533400D03*
X403860Y533400D03*
D16*
X330200Y427736D03*
X330200Y435864D03*
X292100Y67564D03*
X292100Y59436D03*
X266700Y67564D03*
X266700Y59436D03*
X342900Y67564D03*
X342900Y59436D03*
X63500Y275336D03*
X63500Y283464D03*
X266700Y34036D03*
X266700Y42164D03*
X38100Y275336D03*
X38100Y283464D03*
X317500Y67564D03*
X317500Y59436D03*
X673100Y46736D03*
X673100Y54864D03*
X647700Y54864D03*
X647700Y46736D03*
X330200Y410464D03*
X330200Y402336D03*
D17*
X332740Y533400D03*
X342900Y533400D03*
X353060Y533400D03*
D16*
X88900Y372364D03*
X88900Y364236D03*
X63500Y372364D03*
X63500Y364236D03*
D11*
X770500Y381000D03*
X753500Y381000D03*
X757800Y152400D03*
X740800Y152400D03*
X702700Y127000D03*
X719700Y127000D03*
X740800Y127000D03*
X757800Y127000D03*
X436000Y50800D03*
X453000Y50800D03*
X486800Y50800D03*
X503800Y50800D03*
X156600Y406400D03*
X173600Y406400D03*
X770500Y355600D03*
X753500Y355600D03*
X770500Y330200D03*
X753500Y330200D03*
X770500Y304800D03*
X753500Y304800D03*
X402200Y482600D03*
X385200Y482600D03*
X351400Y482600D03*
X334400Y482600D03*
X385200Y511810D03*
X402200Y511810D03*
X105800Y177800D03*
X122800Y177800D03*
X702700Y152400D03*
X719700Y152400D03*
D18*
X113900Y447350D03*
X88900Y447350D03*
X63900Y447350D03*
X113900Y390850D03*
X88900Y390850D03*
X63900Y390850D03*
D19*
X103900Y419100D03*
X73900Y419100D03*
D20*
X44700Y133350D03*
X107700Y133350D03*
D18*
X755250Y104450D03*
X730250Y104450D03*
X705250Y104450D03*
X755250Y47950D03*
X730250Y47950D03*
X705250Y47950D03*
D19*
X745250Y76200D03*
X715250Y76200D03*
D20*
X540000Y50800D03*
X603000Y50800D03*
D21*
X469400Y548860D03*
X469400Y534860D03*
X469400Y520860D03*
X469400Y506860D03*
X469400Y492860D03*
X469400Y478860D03*
X469400Y464860D03*
X469400Y450860D03*
D22*
X484400Y427910D03*
X498400Y427910D03*
X512400Y427910D03*
X526400Y427910D03*
X540400Y427910D03*
X554400Y427910D03*
X568400Y427910D03*
X582400Y427910D03*
D21*
X597400Y450860D03*
X597400Y464860D03*
X597400Y478860D03*
X597400Y492860D03*
X597400Y506860D03*
X597400Y520860D03*
X597400Y534860D03*
X597400Y548860D03*
D23*
X164799Y454000D03*
X164799Y444500D03*
X164799Y435000D03*
X190801Y435000D03*
X190801Y454000D03*
D24*
X233426Y137100D03*
X233426Y145100D03*
X233426Y153100D03*
X233426Y161100D03*
X233426Y169100D03*
X233426Y177100D03*
X233426Y185100D03*
X233426Y193100D03*
D25*
X218500Y208026D03*
X210500Y208026D03*
X202500Y208026D03*
X194500Y208026D03*
X186500Y208026D03*
X178500Y208026D03*
X170500Y208026D03*
X162500Y208026D03*
D24*
X147574Y193100D03*
X147574Y185100D03*
X147574Y177100D03*
X147574Y169100D03*
X147574Y161100D03*
X147574Y153100D03*
X147574Y145100D03*
X147574Y137100D03*
D25*
X162500Y122174D03*
X170500Y122174D03*
X178500Y122174D03*
X186500Y122174D03*
X194500Y122174D03*
X202500Y122174D03*
X210500Y122174D03*
X218500Y122174D03*
D26*
X471100Y247800D03*
X471100Y227800D03*
X471100Y207800D03*
X471100Y187800D03*
X471100Y167800D03*
X471100Y147800D03*
X471100Y127800D03*
X471100Y107800D03*
X621100Y107800D03*
X621100Y127800D03*
X621100Y147800D03*
X621100Y167800D03*
X621100Y187800D03*
X621100Y207800D03*
X621100Y227800D03*
X621100Y247800D03*
D27*
X496100Y92800D03*
X516100Y92800D03*
X536100Y92800D03*
X556100Y92800D03*
X576100Y92800D03*
X596100Y92800D03*
D28*
X279400Y226060D03*
X279400Y129540D03*
D29*
X628650Y506730D03*
X441960Y455930D03*
X406400Y533400D03*
X441960Y410210D03*
X621030Y417830D03*
X152400Y330200D03*
X173990Y386080D03*
X685800Y38100D03*
X266700Y76200D03*
X410210Y387350D03*
X402590Y495300D03*
X304800Y368300D03*
X659130Y317500D03*
X574040Y346710D03*
X736600Y317500D03*
X736600Y394970D03*
X780318Y448310D03*
X774700Y355600D03*
X774700Y381000D03*
X763270Y500380D03*
X419100Y541558D03*
X312420Y419100D03*
X419100Y508000D03*
X347980Y511810D03*
X731520Y495300D03*
X125730Y379730D03*
X166370Y422910D03*
X360680Y35560D03*
X652780Y35560D03*
X241300Y342900D03*
X228600Y381000D03*
X175260Y331470D03*
X43152Y383540D03*
X114300Y355600D03*
X139700Y419100D03*
X215900Y342900D03*
X215900Y393700D03*
X444500Y520860D03*
X443230Y438150D03*
X431800Y495300D03*
X429260Y425450D03*
X444500Y546100D03*
X63500Y304800D03*
X417830Y341630D03*
X458470Y400050D03*
X652780Y417830D03*
X393700Y370840D03*
X38100Y317500D03*
X152400Y355600D03*
X736600Y419100D03*
X631190Y464820D03*
X317500Y38100D03*
X22860Y254000D03*
X25400Y114300D03*
X288290Y25372D03*
X304800Y101600D03*
X292100Y292100D03*
X185420Y142240D03*
X88900Y101600D03*
X88900Y177800D03*
X101600Y215900D03*
X203200Y165100D03*
X80010Y266700D03*
X48768Y264668D03*
X252730Y13942D03*
X73660Y34290D03*
X38100Y88900D03*
X140970Y203200D03*
X127000Y215900D03*
X292100Y76200D03*
X190500Y25400D03*
X177800Y177800D03*
X215900Y139700D03*
X321310Y99060D03*
X330200Y298450D03*
X238760Y123190D03*
X245884Y145100D03*
X213360Y187960D03*
X194310Y189230D03*
X203200Y227330D03*
X177800Y228600D03*
X450850Y68580D03*
X730250Y104450D03*
X740410Y177800D03*
X723900Y165100D03*
M02*
