M48
;GenerationSoftware,Autodesk,EAGLE,9.2.2*%
;CreationDate,2019-11-14T05:23:04Z*%
FMAT,2
ICI,OFF
METRIC,TZ,000.000
T3C0.350
T2C0.850
T1C1.016
%
G90
M71
T1
X16510Y5080
X13970Y5080
X11430Y5080
X3810Y22860
X6350Y22860
X3810Y20320
X6350Y20320
X3810Y17780
X6350Y17780
X39370Y40640
X36830Y40640
X39370Y43180
X36830Y43180
X39370Y45720
X36830Y45720
X67310Y53340
X69850Y53340
X67310Y50800
X69850Y50800
X69850Y48260
X69850Y40640
X67310Y40640
X67310Y48260
X69850Y43180
X67310Y43180
X69850Y45720
X67310Y45720
X20320Y52070
X20320Y49530
X17780Y52070
X17780Y49530
X15240Y52070
X15240Y49530
X12700Y52070
X12700Y49530
X8890Y52070
X6350Y52070
X44450Y38100
X46990Y38100
X49530Y38100
X52070Y38100
X69850Y26670
X69850Y24130
X69850Y21590
X69850Y19050
X41910Y26670
X41910Y24130
X41910Y21590
X41910Y19050
X41910Y16510
X41910Y13970
X41910Y11430
X41910Y8890
X67310Y8890
X67310Y11430
X67310Y13970
X67310Y16510
X67310Y19050
X67310Y21590
X67310Y24130
X67310Y26670
X22860Y25400
X20320Y25400
X15240Y25400
X12700Y25400
X10160Y25400
X17780Y25400
X22860Y27940
X20320Y27940
X17780Y27940
X15240Y27940
X12700Y27940
X10160Y27940
X24130Y7620
X21590Y7620
X19050Y7620
X16510Y7620
X13970Y7620
X11430Y7620
X8890Y7620
X6350Y7620
X54610Y38100
X57150Y38100
X59690Y38100
X62230Y38100
X19050Y5080
X21590Y5080
X24130Y5080
T2
X71525Y7620
X10390Y41910
X7390Y41910
X74525Y7620
T3
X45085Y6858
X17780Y22860
X20320Y22733
X19431Y18923
X21336Y18796
X24588Y14510
X23876Y12319
X33020Y29845
X32131Y9906
X21590Y13970
X17780Y17780
X19050Y2540
X29210Y7620
X12700Y21590
X14097Y20320
X7366Y3429
X25273Y1394
X4877Y26467
X3810Y8890
X8001Y26670
X20320Y16510
X10160Y21590
X8890Y17780
X8890Y10160
X18542Y14224
X29210Y29210
X30480Y10160
X28829Y2537
X2540Y11430
X2286Y25400
X31750Y3810
X63119Y46482
X73660Y41910
X15240Y35560
X3810Y31750
X39370Y37084
X65278Y41783
X45847Y40005
X41783Y34163
X6350Y30480
X44450Y54610
X42926Y42545
X43180Y49530
X44323Y43815
X44450Y52086
X21590Y39370
X21590Y34290
X13970Y41910
X11430Y35560
X4315Y38354
X17526Y33147
X22860Y38100
X24130Y34290
X65278Y3556
X36068Y3556
X16637Y42291
X12573Y37973
X73152Y49530
X34798Y51181
X31242Y41910
X41910Y54156
X76327Y50038
X41910Y50800
X77470Y38100
X77470Y35560
X78032Y44831
X73660Y39497
X73660Y31750
X57404Y34671
X65913Y31750
X30480Y36830
X40259Y49530
X41021Y38735
X26670Y7620
X68580Y3810
X17399Y38608
X15240Y33020
X62103Y41783
X44196Y41021
X40640Y53340
X44196Y45593
X62865Y50673
X72390Y16510
X74041Y17780
X73025Y10445
M30